<svg width="24" height="24" viewBox="0 0 24 24" fill="none" xmlns="http://www.w3.org/2000/svg">
<path d="M11.625 8V15.25M15.25 11.625H8M22.5 11.625C22.5 13.0531 22.2187 14.4673 21.6722 15.7867C21.1257 17.1061 20.3246 18.3049 19.3148 19.3148C18.3049 20.3246 17.1061 21.1257 15.7867 21.6722C14.4673 22.2187 13.0531 22.5 11.625 22.5C10.1969 22.5 8.78273 22.2187 7.46332 21.6722C6.1439 21.1257 4.94505 20.3246 3.93521 19.3148C2.92538 18.3049 2.12433 17.1061 1.57781 15.7867C1.03129 14.4673 0.75 13.0531 0.75 11.625C0.75 8.74077 1.89576 5.97467 3.93521 3.93521C5.97467 1.89576 8.74077 0.75 11.625 0.75C14.5092 0.75 17.2753 1.89576 19.3148 3.93521C21.3542 5.97467 22.5 8.74077 22.5 11.625Z" stroke="#2BD383" stroke-width="1.5" stroke-linecap="round" stroke-linejoin="round"/>
</svg>
