<svg width="17" height="15" viewBox="0 0 17 15" fill="none" xmlns="http://www.w3.org/2000/svg">
<path d="M2.41667 3.25H3.25C3.69203 3.25 4.11595 3.07441 4.42851 2.76184C4.74107 2.44928 4.91667 2.02536 4.91667 1.58333C4.91667 1.36232 5.00446 1.15036 5.16074 0.994078C5.31702 0.837798 5.52899 0.75 5.75 0.75H10.75C10.971 0.75 11.183 0.837798 11.3393 0.994078C11.4955 1.15036 11.5833 1.36232 11.5833 1.58333C11.5833 2.02536 11.7589 2.44928 12.0715 2.76184C12.384 3.07441 12.808 3.25 13.25 3.25H14.0833C14.5254 3.25 14.9493 3.42559 15.2618 3.73816C15.5744 4.05072 15.75 4.47464 15.75 4.91667V12.4167C15.75 12.8587 15.5744 13.2826 15.2618 13.5952C14.9493 13.9077 14.5254 14.0833 14.0833 14.0833H2.41667C1.97464 14.0833 1.55072 13.9077 1.23816 13.5952C0.925595 13.2826 0.75 12.8587 0.75 12.4167V4.91667C0.75 4.47464 0.925595 4.05072 1.23816 3.73816C1.55072 3.42559 1.97464 3.25 2.41667 3.25Z" stroke="#3D3D3D" stroke-width="1.5" stroke-linecap="round" stroke-linejoin="round"/>
<path d="M5.75 8.25C5.75 8.91304 6.01339 9.54893 6.48223 10.0178C6.95107 10.4866 7.58696 10.75 8.25 10.75C8.91304 10.75 9.54893 10.4866 10.0178 10.0178C10.4866 9.54893 10.75 8.91304 10.75 8.25C10.75 7.58696 10.4866 6.95107 10.0178 6.48223C9.54893 6.01339 8.91304 5.75 8.25 5.75C7.58696 5.75 6.95107 6.01339 6.48223 6.48223C6.01339 6.95107 5.75 7.58696 5.75 8.25Z" stroke="#3D3D3D" stroke-width="1.5" stroke-linecap="round" stroke-linejoin="round"/>
</svg>
