<svg width="20" height="23" viewBox="0 0 20 23" fill="none" xmlns="http://www.w3.org/2000/svg">
<path d="M12.6561 8.06306L12.2812 17.8131M7.09424 17.8131L6.71941 8.06306M17.5181 4.58556C17.8886 4.6419 18.2569 4.70148 18.6252 4.7654M17.5181 4.58556L16.3611 19.6255C16.3139 20.2378 16.0372 20.8097 15.5865 21.2269C15.1358 21.6441 14.5442 21.8757 13.9301 21.8756H5.44541C4.83126 21.8757 4.23969 21.6441 3.78897 21.2269C3.33826 20.8097 3.06163 20.2378 3.01441 19.6255L1.85741 4.58556M17.5181 4.58556C16.2678 4.39654 15.011 4.25309 13.7502 4.15548M1.85741 4.58556C1.48691 4.64081 1.11858 4.7004 0.750244 4.76431M1.85741 4.58556C3.10772 4.39654 4.3645 4.25309 5.62524 4.15548M13.7502 4.15548V3.16315C13.7502 1.88481 12.7644 0.818815 11.4861 0.778731C10.2875 0.740423 9.08799 0.740423 7.88941 0.778731C6.61108 0.818815 5.62524 1.8859 5.62524 3.16315V4.15548M13.7502 4.15548C11.0459 3.94648 8.32955 3.94648 5.62524 4.15548" stroke="black" stroke-width="1.5" stroke-linecap="round" stroke-linejoin="round"/>
</svg>
