<svg width="24" height="24" viewBox="0 0 24 24" fill="none" xmlns="http://www.w3.org/2000/svg">
<path d="M21.9541 11.5615C21.6476 11.5615 21.3537 11.6832 21.1371 11.8999C20.9204 12.1166 20.7986 12.4105 20.7986 12.717V19.6498C20.7986 19.9563 20.6769 20.2502 20.4602 20.4669C20.2435 20.6836 19.9496 20.8053 19.6431 20.8053H3.46644C3.15998 20.8053 2.86608 20.6836 2.64939 20.4669C2.4327 20.2502 2.31096 19.9563 2.31096 19.6498V3.47314C2.31096 3.16668 2.4327 2.87278 2.64939 2.65609C2.86608 2.4394 3.15998 2.31766 3.46644 2.31766H10.3993C10.7058 2.31766 10.9997 2.19592 11.2164 1.97923C11.4331 1.76253 11.5548 1.46863 11.5548 1.16218C11.5548 0.855727 11.4331 0.561826 11.2164 0.345132C10.9997 0.128437 10.7058 0.00669986 10.3993 0.00669986H3.46644C2.54708 0.00669986 1.66538 0.371913 1.0153 1.022C0.365213 1.67208 0 2.55378 0 3.47314V19.6498C0 20.5692 0.365213 21.4509 1.0153 22.101C1.66538 22.7511 2.54708 23.1163 3.46644 23.1163H19.6431C20.5625 23.1163 21.4442 22.7511 22.0943 22.101C22.7444 21.4509 23.1096 20.5692 23.1096 19.6498V12.717C23.1096 12.4105 22.9878 12.1166 22.7711 11.8999C22.5545 11.6832 22.2606 11.5615 21.9541 11.5615ZM4.62192 12.4397V17.3389C4.62192 17.6453 4.74365 17.9392 4.96035 18.1559C5.17704 18.3726 5.47094 18.4944 5.77739 18.4944H10.6766C10.8287 18.4952 10.9794 18.4661 11.1202 18.4086C11.261 18.3511 11.389 18.2664 11.497 18.1593L19.4929 10.1518L22.7745 6.93957C22.8828 6.83216 22.9688 6.70436 23.0274 6.56355C23.0861 6.42275 23.1163 6.27172 23.1163 6.11918C23.1163 5.96665 23.0861 5.81562 23.0274 5.67481C22.9688 5.53401 22.8828 5.40621 22.7745 5.29879L17.8753 0.341789C17.7678 0.233487 17.64 0.147526 17.4992 0.0888643C17.3584 0.0302022 17.2074 0 17.0549 0C16.9023 0 16.7513 0.0302022 16.6105 0.0888643C16.4697 0.147526 16.3419 0.233487 16.2345 0.341789L12.976 3.61179L4.957 11.6193C4.84991 11.7272 4.76519 11.8553 4.70769 11.9961C4.65018 12.1368 4.62104 12.2876 4.62192 12.4397ZM17.0549 2.7914L20.3249 6.06141L18.6841 7.70219L15.4141 4.43218L17.0549 2.7914ZM6.93287 12.9134L13.7849 6.06141L17.0549 9.33141L10.2029 16.1834H6.93287V12.9134Z" fill="#2BD383"/>
</svg>
