<svg width="32" height="32" viewBox="0 0 30 30" fill="none" xmlns="http://www.w3.org/2000/svg">
<path d="M22.6421 22.6144C26.8104 18.4511 26.8104 11.7012 22.6421 7.53796C18.4738 3.37473 11.7157 3.37473 7.54738 7.53796C3.37908 11.7012 3.37908 18.4511 7.54738 22.6144C11.7157 26.7776 18.4738 26.7776 22.6421 22.6144Z" stroke="#272525" stroke-linecap="round" stroke-linejoin="round"/>
<path d="M9.34119 12.5949C9.34119 12.0758 9.76282 11.6528 10.2844 11.6528C10.806 11.6528 11.2277 12.074 11.2277 12.5949C11.2277 13.1159 10.806 13.537 10.2844 13.537C9.76282 13.537 9.34119 13.1159 9.34119 12.5949Z" fill="#272525"/>
<path d="M18.9624 12.5949C18.9624 12.0758 19.384 11.6528 19.9056 11.6528C20.4272 11.6528 20.8489 12.074 20.8489 12.5949C20.8489 13.1159 20.4272 13.537 19.9056 13.537C19.384 13.537 18.9624 13.1159 18.9624 12.5949Z" fill="#272525"/>
<path d="M9.92432 19.4411C10.7894 17.4462 12.7795 16.0503 15.0948 16.0503C17.4102 16.0503 19.3984 17.4444 20.2635 19.4393" stroke="#272525" stroke-linecap="round" stroke-linejoin="round"/>
</svg>
