<svg width="27" height="26" viewBox="0 0 27 26" fill="none" xmlns="http://www.w3.org/2000/svg">
<path d="M23.5467 15.4824C24.9193 9.67362 21.3174 3.85321 15.5015 2.4822C9.68561 1.11119 3.85813 4.70876 2.48545 10.5176C1.11277 16.3264 4.71471 22.1468 10.5306 23.5178C16.3465 24.8888 22.174 21.2913 23.5467 15.4824Z" stroke="#272525" stroke-linecap="round" stroke-linejoin="round"/>
<path d="M7.18665 10.486C7.18665 9.95974 7.61406 9.53101 8.14281 9.53101C8.67156 9.53101 9.09897 9.9579 9.09897 10.486C9.09897 11.0141 8.67156 11.441 8.14281 11.441C7.61406 11.441 7.18665 11.0141 7.18665 10.486Z" fill="#272525"/>
<path d="M16.9379 10.486C16.9379 9.95974 17.3653 9.53101 17.894 9.53101C18.4228 9.53101 18.8502 9.9579 18.8502 10.486C18.8502 11.0141 18.4228 11.441 17.894 11.441C17.3653 11.441 16.9379 11.0141 16.9379 10.486Z" fill="#272525"/>
<path d="M18.8356 14.8105C18.0636 17.2873 15.7515 19.0851 13.0175 19.0851C10.2835 19.0851 7.97139 17.2873 7.19946 14.8105" stroke="#272525" stroke-linecap="round" stroke-linejoin="round"/>
<path d="M7.66181 14.5435L6.55273 15.0752" stroke="#272525" stroke-linecap="round" stroke-linejoin="round"/>
<path d="M18.373 14.5435L19.4821 15.0752" stroke="#272525" stroke-linecap="round" stroke-linejoin="round"/>
</svg>
