<svg width="23" height="23" viewBox="0 0 23 23" fill="none" xmlns="http://www.w3.org/2000/svg">
<path d="M5.54614 8.8894C5.54614 8.35505 5.97862 7.9231 6.51362 7.9231C7.04862 7.9231 7.4811 8.35505 7.4811 8.8894C7.4811 9.42375 7.04862 9.85569 6.51362 9.85569C5.97862 9.85569 5.54614 9.42375 5.54614 8.8894Z" fill="#272525"/>
<path d="M15.4148 8.8894C15.4148 8.35505 15.8473 7.9231 16.3823 7.9231C16.9173 7.9231 17.3497 8.35505 17.3497 8.8894C17.3497 9.42375 16.9173 9.85569 16.3823 9.85569C15.8473 9.85569 15.4148 9.42375 15.4148 8.8894Z" fill="#272525"/>
<path d="M11.4479 22.3693C17.4943 22.3693 22.3959 17.4737 22.3959 11.4347C22.3959 5.39562 17.4943 0.5 11.4479 0.5C5.40156 0.5 0.5 5.39562 0.5 11.4347C0.5 17.4737 5.40156 22.3693 11.4479 22.3693Z" stroke="#272525" stroke-linecap="round" stroke-linejoin="round"/>
<path d="M5.7959 14.4211H17.0999" stroke="#272525" stroke-linecap="round" stroke-linejoin="round"/>
</svg>
