<svg width="22" height="22" viewBox="0 0 21 21" fill="none" xmlns="http://www.w3.org/2000/svg">
<path d="M10.5776 20.6307C16.1433 20.6307 20.6552 16.1243 20.6552 10.5653C20.6552 5.00641 16.1433 0.5 10.5776 0.5C5.01189 0.5 0.5 5.00641 0.5 10.5653C0.5 16.1243 5.01189 20.6307 10.5776 20.6307Z" stroke="#272525" stroke-linecap="round" stroke-linejoin="round"/>
<path d="M5.69568 14.6839C6.51246 12.8004 8.39139 11.4824 10.5775 11.4824C12.7635 11.4824 14.6408 12.7986 15.4575 14.6821" stroke="#272525" stroke-linecap="round" stroke-linejoin="round"/>
<path d="M4.94421 8.14209C5.16042 8.51571 5.56538 8.76592 6.02696 8.76592C6.45937 8.76592 6.8403 8.54655 7.06509 8.21578" stroke="#272525" stroke-linecap="round" stroke-linejoin="round"/>
<path d="M16.2075 8.14209C15.9913 8.51571 15.5864 8.76592 15.1248 8.76592C14.6924 8.76592 14.3115 8.54655 14.0867 8.21578" stroke="#272525" stroke-linecap="round" stroke-linejoin="round"/>
</svg>
