<svg width="24" height="24" viewBox="0 0 24 24" fill="none" xmlns="http://www.w3.org/2000/svg">
<path d="M22.3242 13.659C23.2498 7.96408 19.3778 2.59801 13.6759 1.67359C7.974 0.74917 2.6014 4.61645 1.67585 10.3114C0.750304 16.0064 4.6223 21.3724 10.3242 22.2969C16.0261 23.2213 21.3987 19.354 22.3242 13.659Z" stroke="#272525" stroke-linecap="round" stroke-linejoin="round"/>
<path d="M17.6226 13.7263C16.8764 16.1205 14.6414 17.8584 11.9985 17.8584C9.35564 17.8584 7.12059 16.1205 6.37439 13.7263" stroke="#272525" stroke-linecap="round" stroke-linejoin="round"/>
<path d="M6.82126 13.4702L5.74915 13.9825" stroke="#272525" stroke-linecap="round" stroke-linejoin="round"/>
<path d="M17.1755 13.4702L18.2477 13.9825" stroke="#272525" stroke-linecap="round" stroke-linejoin="round"/>
<path d="M6.15344 9.4624C6.37784 9.85017 6.79813 10.1099 7.2772 10.1099C7.72599 10.1099 8.12135 9.88219 8.35465 9.53889" stroke="#272525" stroke-linecap="round" stroke-linejoin="round"/>
<path d="M17.8434 9.4624C17.619 9.85017 17.1987 10.1099 16.7197 10.1099C16.2709 10.1099 15.8755 9.88219 15.6422 9.53889" stroke="#272525" stroke-linecap="round" stroke-linejoin="round"/>
</svg>
