<svg width="15" height="15" viewBox="0 0 15 15" fill="none" xmlns="http://www.w3.org/2000/svg">
<path d="M11.2966 4.55307C11.2966 4.91083 11.1544 5.25395 10.9015 5.50693C10.6485 5.75991 10.3054 5.90203 9.9476 5.90203C9.58983 5.90203 9.24672 5.75991 8.99374 5.50693C8.74076 5.25395 8.59863 4.91083 8.59863 4.55307C8.59863 4.1953 8.74076 3.85218 8.99374 3.5992C9.24672 3.34622 9.58983 3.2041 9.9476 3.2041C10.3054 3.2041 10.6485 3.34622 10.9015 3.5992C11.1544 3.85218 11.2966 4.1953 11.2966 4.55307Z" fill="#3D3D3D"/>
<path fill-rule="evenodd" clip-rule="evenodd" d="M7.21147 0.000674441H7.28835C8.84556 0.000674441 10.0656 0.000674482 11.0178 0.128812C11.9917 0.259648 12.7605 0.533458 13.3641 1.13638C13.9677 1.73998 14.2408 2.5088 14.3717 3.48333C14.4998 4.43492 14.4998 5.65493 14.4998 7.21214V7.27149C14.4998 8.55894 14.4998 9.61236 14.4297 10.4702C14.3595 11.3335 14.2159 12.0531 13.8935 12.6519C13.7523 12.9154 13.5759 13.153 13.3641 13.3648C12.7605 13.9684 11.9917 14.2415 11.0172 14.3723C10.0656 14.5005 8.84556 14.5005 7.28835 14.5005H7.21147C5.65425 14.5005 4.43425 14.5005 3.48198 14.3723C2.50813 14.2415 1.7393 13.9677 1.13571 13.3648C0.600899 12.83 0.324391 12.1643 0.178044 11.3375C0.0330461 10.5262 0.00674408 9.5166 0.0013488 8.26355C0.000449589 7.94432 0 7.60667 0 7.25058V7.21147C0 5.65425 4.0198e-08 4.43425 0.128138 3.48198C0.258973 2.50813 0.532784 1.7393 1.13571 1.13571C1.7393 0.53211 2.50813 0.258973 3.48265 0.128138C4.43425 4.0198e-08 5.65425 0 7.21147 0M3.61686 1.13031C2.75496 1.24631 2.23499 1.46752 1.85126 1.85126C1.46684 2.23567 1.24631 2.75496 1.13031 3.61753C1.01296 4.49427 1.01161 5.64616 1.01161 7.24991V7.81911L1.6867 7.22833C1.98281 6.96912 2.36638 6.83215 2.75971 6.84517C3.15303 6.8582 3.5267 7.02024 3.80502 7.29846L6.69824 10.1917C6.92275 10.4162 7.21926 10.5542 7.53555 10.5816C7.85185 10.609 8.16767 10.5239 8.42743 10.3414L8.6284 10.1998C9.00316 9.93644 9.45618 9.80806 9.91338 9.83562C10.3706 9.86319 10.8049 10.0451 11.1453 10.3515L13.0539 12.0692C13.2468 11.6659 13.3607 11.1359 13.4214 10.3879C13.4875 9.57527 13.4882 8.56231 13.4882 7.24991C13.4882 5.64616 13.4868 4.49427 13.3695 3.61753C13.2535 2.75496 13.0323 2.23499 12.6486 1.85058C12.2641 1.46684 11.7448 1.24631 10.8823 1.13031C10.0055 1.01296 8.85365 1.01161 7.24991 1.01161C5.64616 1.01161 4.49359 1.01296 3.61686 1.13031Z" fill="#3D3D3D"/>
</svg>
