<svg width="22" height="22" viewBox="0 0 22 22" fill="none" xmlns="http://www.w3.org/2000/svg">
<path d="M12.5682 16.6591H16.6591M16.6591 16.6591H20.75M16.6591 16.6591V12.5682M16.6591 16.6591V20.75M3.47727 8.93182H6.20455C6.92786 8.93182 7.62156 8.64448 8.13302 8.13302C8.64448 7.62156 8.93182 6.92786 8.93182 6.20455V3.47727C8.93182 2.75396 8.64448 2.06026 8.13302 1.5488C7.62156 1.03734 6.92786 0.75 6.20455 0.75H3.47727C2.75396 0.75 2.06026 1.03734 1.5488 1.5488C1.03734 2.06026 0.75 2.75396 0.75 3.47727V6.20455C0.75 6.92786 1.03734 7.62156 1.5488 8.13302C2.06026 8.64448 2.75396 8.93182 3.47727 8.93182ZM3.47727 20.75H6.20455C6.92786 20.75 7.62156 20.4627 8.13302 19.9512C8.64448 19.4397 8.93182 18.746 8.93182 18.0227V15.2955C8.93182 14.5721 8.64448 13.8784 8.13302 13.367C7.62156 12.8555 6.92786 12.5682 6.20455 12.5682H3.47727C2.75396 12.5682 2.06026 12.8555 1.5488 13.367C1.03734 13.8784 0.75 14.5721 0.75 15.2955V18.0227C0.75 18.746 1.03734 19.4397 1.5488 19.9512C2.06026 20.4627 2.75396 20.75 3.47727 20.75ZM15.2955 8.93182H18.0227C18.746 8.93182 19.4397 8.64448 19.9512 8.13302C20.4627 7.62156 20.75 6.92786 20.75 6.20455V3.47727C20.75 2.75396 20.4627 2.06026 19.9512 1.5488C19.4397 1.03734 18.746 0.75 18.0227 0.75H15.2955C14.5721 0.75 13.8784 1.03734 13.367 1.5488C12.8555 2.06026 12.5682 2.75396 12.5682 3.47727V6.20455C12.5682 6.92786 12.8555 7.62156 13.367 8.13302C13.8784 8.64448 14.5721 8.93182 15.2955 8.93182Z" stroke="#11998E" stroke-width="1.5" stroke-linecap="round" stroke-linejoin="round"/>
</svg>
