<svg width="153" height="117" viewBox="0 0 153 117" fill="none" xmlns="http://www.w3.org/2000/svg">
<mask id="mask0_191_1948" style="mask-type:luminance" maskUnits="userSpaceOnUse" x="-1" y="0" width="154" height="117">
<path d="M136.657 0H15.2593C6.52924 0 -0.547852 7.11116 -0.547852 15.8832V100.341C-0.547852 109.113 6.52924 116.224 15.2593 116.224H136.657C145.387 116.224 152.464 109.113 152.464 100.341V15.8832C152.464 7.11116 145.387 0 136.657 0Z" fill="white"/>
</mask>
<g mask="url(#mask0_191_1948)">
<path d="M153 -5.63818H-3.85718V278.505H153V-5.63818Z" fill="#F1FAEE"/>
<path opacity="0.09" d="M-3.85718 -5.63818V54.4271C16.5691 45.4329 35.7124 33.0827 56.6634 23.5882C88.7794 9.12124 121.52 12.4965 152.996 22.6606V-5.63818H-3.85718Z" fill="#457B9D"/>
<path d="M36.5319 110.182C36.9846 110.182 37.3516 109.814 37.3516 109.359C37.3516 108.904 36.9846 108.535 36.5319 108.535C36.0793 108.535 35.7123 108.904 35.7123 109.359C35.7123 109.814 36.0793 110.182 36.5319 110.182Z" fill="#A8DADC"/>
<path d="M25.0376 109.359C25.0376 108.905 25.4053 108.535 25.8573 108.535C26.3092 108.535 26.6769 108.905 26.6769 109.359C26.6769 109.813 26.3092 110.182 25.8573 110.182C25.4053 110.182 25.0376 109.813 25.0376 109.359Z" fill="#A8DADC"/>
<path d="M14.3629 109.359C14.3629 108.905 14.7306 108.535 15.1826 108.535C15.6345 108.535 16.0022 108.905 16.0022 109.359C16.0022 109.813 15.6345 110.182 15.1826 110.182C14.7306 110.182 14.3629 109.813 14.3629 109.359Z" fill="#A8DADC"/>
<path d="M3.68823 109.359C3.68823 108.905 4.05593 108.535 4.50789 108.535C4.95985 108.535 5.32755 108.905 5.32755 109.359C5.32755 109.813 4.95985 110.182 4.50789 110.182C4.05593 110.182 3.68823 109.813 3.68823 109.359Z" fill="#A8DADC"/>
<path d="M35.7123 98.725C35.7123 98.2708 36.08 97.9014 36.5319 97.9014C36.9839 97.9014 37.3516 98.2708 37.3516 98.725C37.3516 99.1791 36.9839 99.5486 36.5319 99.5486C36.08 99.5486 35.7123 99.1791 35.7123 98.725Z" fill="#A8DADC"/>
<path d="M25.0376 98.725C25.0376 98.2708 25.4053 97.9014 25.8573 97.9014C26.3092 97.9014 26.6769 98.2708 26.6769 98.725C26.6769 99.1791 26.3092 99.5486 25.8573 99.5486C25.4053 99.5486 25.0376 99.1791 25.0376 98.725Z" fill="#A8DADC"/>
<path d="M14.3629 98.725C14.3629 98.2708 14.7306 97.9014 15.1826 97.9014C15.6345 97.9014 16.0022 98.2708 16.0022 98.725C16.0022 99.1791 15.6345 99.5486 15.1826 99.5486C14.7306 99.5486 14.3629 99.1791 14.3629 98.725Z" fill="#A8DADC"/>
<path d="M3.68823 98.725C3.68823 98.2708 4.05593 97.9014 4.50789 97.9014C4.95985 97.9014 5.32755 98.2708 5.32755 98.725C5.32755 99.1791 4.95985 99.5486 4.50789 99.5486C4.05593 99.5486 3.68823 99.1791 3.68823 98.725Z" fill="#A8DADC"/>
<path d="M95.3404 21.6216C95.689 21.6216 95.9686 21.9025 95.9686 22.2528C95.9686 22.603 95.689 22.8839 95.3404 22.8839C94.9919 22.8839 94.7123 22.603 94.7123 22.2528C94.7123 21.9025 94.9919 21.6216 95.3404 21.6216Z" fill="#A8DADC"/>
<path d="M95.3404 13.3818C95.689 13.3818 95.9686 13.6628 95.9686 14.013C95.9686 14.3632 95.689 14.6442 95.3404 14.6442C94.9919 14.6442 94.7123 14.3632 94.7123 14.013C94.7123 13.6628 94.9919 13.3818 95.3404 13.3818Z" fill="#A8DADC"/>
<path d="M103.468 21.6216C103.817 21.6216 104.096 21.9025 104.096 22.2528C104.096 22.603 103.817 22.8839 103.468 22.8839C103.12 22.8839 102.84 22.603 102.84 22.2528C102.84 21.9025 103.12 21.6216 103.468 21.6216Z" fill="#A8DADC"/>
<path d="M103.468 13.3818C103.817 13.3818 104.096 13.6628 104.096 14.013C104.096 14.3632 103.817 14.6442 103.468 14.6442C103.12 14.6442 102.84 14.3632 102.84 14.013C102.84 13.6628 103.12 13.3818 103.468 13.3818Z" fill="#A8DADC"/>
<path d="M111.599 21.6216C111.948 21.6216 112.228 21.9025 112.228 22.2528C112.228 22.603 111.948 22.8839 111.599 22.8839C111.251 22.8839 110.971 22.603 110.971 22.2528C110.971 21.9025 111.251 21.6216 111.599 21.6216Z" fill="#A8DADC"/>
<path d="M111.599 13.3818C111.948 13.3818 112.228 13.6628 112.228 14.013C112.228 14.3632 111.948 14.6442 111.599 14.6442C111.251 14.6442 110.971 14.3632 110.971 14.013C110.971 13.6628 111.251 13.3818 111.599 13.3818Z" fill="#A8DADC"/>
<path d="M119.727 21.6216C120.076 21.6216 120.355 21.9025 120.355 22.2528C120.355 22.603 120.076 22.8839 119.727 22.8839C119.379 22.8839 119.099 22.603 119.099 22.2528C119.099 21.9025 119.379 21.6216 119.727 21.6216Z" fill="#A8DADC"/>
<path d="M119.727 13.3818C120.076 13.3818 120.355 13.6628 120.355 14.013C120.355 14.3632 120.076 14.6442 119.727 14.6442C119.379 14.6442 119.099 14.3632 119.099 14.013C119.099 13.6628 119.379 13.3818 119.727 13.3818Z" fill="#A8DADC"/>
<path d="M127.859 21.6216C128.207 21.6216 128.487 21.9025 128.487 22.2528C128.487 22.603 128.207 22.8839 127.859 22.8839C127.51 22.8839 127.23 22.603 127.23 22.2528C127.23 21.9025 127.51 21.6216 127.859 21.6216Z" fill="#A8DADC"/>
<path d="M127.859 13.3818C128.207 13.3818 128.487 13.6628 128.487 14.013C128.487 14.3632 128.207 14.6442 127.859 14.6442C127.51 14.6442 127.23 14.3632 127.23 14.013C127.23 13.6628 127.51 13.3818 127.859 13.3818Z" fill="#A8DADC"/>
<path d="M135.986 21.6216C136.335 21.6216 136.614 21.9025 136.614 22.2528C136.614 22.603 136.335 22.8839 135.986 22.8839C135.638 22.8839 135.358 22.603 135.358 22.2528C135.358 21.9025 135.638 21.6216 135.986 21.6216Z" fill="#A8DADC"/>
<path d="M135.986 13.3818C136.335 13.3818 136.614 13.6628 136.614 14.013C136.614 14.3632 136.335 14.6442 135.986 14.6442C135.638 14.6442 135.358 14.3632 135.358 14.013C135.358 13.6628 135.638 13.3818 135.986 13.3818Z" fill="#A8DADC"/>
<path d="M144.114 21.6216C144.462 21.6216 144.742 21.9025 144.742 22.2528C144.742 22.603 144.462 22.8839 144.114 22.8839C143.765 22.8839 143.486 22.603 143.486 22.2528C143.486 21.9025 143.765 21.6216 144.114 21.6216Z" fill="#A8DADC"/>
<path d="M144.114 13.3818C144.462 13.3818 144.742 13.6628 144.742 14.013C144.742 14.3632 144.462 14.6442 144.114 14.6442C143.765 14.6442 143.486 14.3632 143.486 14.013C143.486 13.6628 143.765 13.3818 144.114 13.3818Z" fill="#A8DADC"/>
<path d="M58.5593 37.0428C54.0091 37.5932 49.2405 35.5457 46.4866 31.8626C45.7321 30.8543 45.1039 29.665 45.1307 28.4027C45.1575 27.1403 46.0232 25.8318 47.268 25.6702C48.9418 25.4547 50.2555 27.4983 49.8189 29.1339C49.3822 30.7734 47.7774 31.851 46.1457 32.2936C43.5604 32.9902 40.8065 32.4399 38.2594 31.6201C35.7123 30.7965 33.2342 29.6997 30.5952 29.2648C27.9562 28.8299 25.03 29.1609 22.9962 30.912C20.9662 32.6631 20.292 36.0884 22.0807 38.0896C23.4673 39.6368 26.0833 39.8523 27.7034 38.5515C29.3236 37.2506 29.6836 34.6336 28.481 32.9402C27.0906 30.9813 24.398 30.6233 22.2569 29.5419C19.1047 27.9486 17.0096 24.0769 18.1318 20.7132C19.2541 17.3495 24.0494 15.6445 26.6463 18.0422C27.6383 18.9582 28.2358 20.3052 29.3925 21.0018C30.7752 21.8331 32.6482 21.4636 33.893 20.4361C35.1378 19.4085 35.8426 17.8537 36.2409 16.2834C36.7158 14.4091 36.8116 12.4464 37.367 10.5952C37.9223 8.74399 39.0714 6.91205 40.8869 6.26549C42.8671 5.55734 45.1001 6.44637 46.7011 7.81263C48.3021 9.17889 49.4742 10.9762 50.899 12.5272C52.3238 14.0782 54.1776 15.4406 56.2765 15.4829C58.3755 15.5252 60.574 13.7279 60.2867 11.6381C60.0416 9.84469 57.9848 8.64393 56.2344 9.05958C54.484 9.47523 53.2201 11.2071 53.0477 13.0083C52.8753 14.8094 53.6567 16.6106 54.8517 17.9614C57.0311 20.4284 60.6506 21.506 63.8182 20.6285C65.9937 20.0243 68.1233 18.0422 67.6636 15.8216C67.2462 13.8011 64.7566 12.7388 62.784 13.3046C60.8115 13.8703 59.3713 15.6099 58.4789 17.4688C57.5865 19.3277 57.1077 21.3559 56.2919 23.2494C55.476 25.1429 54.2121 26.9749 52.3238 27.7831C49.3669 29.0493 45.9427 27.3982 43.5795 25.2083C41.2163 23.0185 39.351 20.2398 36.6239 18.5349C33.893 16.8299 29.7526 16.6606 27.9332 19.3238C28.5193 16.7145 29.1819 14.0358 30.7752 11.8999C32.3724 9.76003 35.1455 8.28601 37.7079 9.00955C40.2702 9.73309 41.8598 13.2353 40.1745 15.3059C38.899 16.8723 36.3635 17.1609 35.4442 18.9621C34.8505 20.1282 35.1914 21.6253 36.057 22.6028C36.9188 23.5804 38.2134 24.0961 39.5042 24.2616C41.5878 24.531 43.8859 23.869 45.1575 22.1872C46.4253 20.5053 46.2836 17.7613 44.5677 16.5413C42.2428 14.8864 38.9527 16.7953 37.4244 19.2122C35.8962 21.6291 35.1838 24.6003 33.1423 26.5938C31.1314 28.5643 28.1018 29.2263 25.3134 28.8607C22.5289 28.4951 19.9397 27.2212 17.5382 25.7548C18.9055 25.9588 20.338 24.9351 20.5946 23.5727C20.8513 22.2103 19.886 20.7286 18.5378 20.4207C17.1322 20.0974 15.738 20.9287 14.5544 21.76C12.0112 23.5496 9.48329 25.6779 8.45298 28.6182C7.42266 31.5586 8.51426 35.4495 11.4443 36.4771C14.3246 37.4893 17.4194 35.3725 19.1392 32.8401C20.8589 30.3078 21.8088 27.2712 23.7852 24.9351C25.7615 22.599 29.4385 21.1865 31.8553 23.0531C33.7551 24.5233 34.0117 27.2827 33.847 29.6843C33.6785 32.0858 33.2802 34.649 34.3794 36.7888C35.3944 38.7593 37.6849 39.9832 39.8757 39.7253C42.0704 39.4674 44.02 37.7471 44.5562 35.5957C45.035 33.6714 44.4604 31.6586 44.4681 29.6766C44.4758 27.6945 45.4716 25.3777 47.4288 25.1237C49.5622 24.8504 51.0484 27.0903 52.8179 28.3142C55.8974 30.4386 60.7655 28.9877 62.198 25.5201C63.0215 23.5188 62.9066 20.9749 64.5574 19.5778C66.2503 18.1461 69.0234 18.6773 70.678 17.1994C72.145 15.8909 72.0645 13.4162 70.9193 11.819C69.7741 10.2219 67.8552 9.36747 65.9516 8.90563C61.5507 7.84342 56.7553 8.55926 52.8524 10.8607C49.6542 12.7465 47.1224 15.5984 44.0008 17.6112C37.9453 21.5214 29.7679 21.8447 23.429 18.4194C21.2764 17.2571 19.1353 15.2674 19.3383 12.8235C19.549 10.2873 22.1612 8.68626 24.5933 7.97812C30.2045 6.35016 36.5128 7.3431 41.3618 10.6144C33.2036 14.4707 25.0453 18.3309 16.887 22.1872" stroke="#457B9D" stroke-miterlimit="10" stroke-linecap="round"/>
<path d="M99.1058 112.483L94.5977 135.356C90.4343 135.198 86.2747 134.471 82.1841 133.239C82.1841 131.746 82.188 130.31 82.2071 128.94C82.3143 119.584 82.8314 113.261 82.8314 113.261C80.9814 100.345 79.1276 87.4251 77.2738 74.5053C76.7453 70.8261 76.2397 66.962 77.5075 63.4752C78.7829 59.9845 82.4867 57.0904 86.0526 58.0602L90.7024 77.4303L99.1097 112.48L99.1058 112.483Z" fill="#457B9D"/>
<path d="M86.0524 58.0599C82.4788 57.0862 78.7789 59.9842 77.5072 63.4787C76.2318 66.9694 76.745 70.8296 77.2736 74.5127C79.1274 87.4286 80.9812 100.348 82.8312 113.264C82.8312 113.264 82.318 119.591 82.203 128.944C84.7348 111.567 89.0782 94.7487 90.6945 77.4223L86.0524 58.0637V58.0599Z" fill="#457B9D"/>
<path d="M99.1056 112.483L94.6013 135.356H94.5937C90.4303 135.198 86.2707 134.47 82.1801 133.239C82.1801 131.746 82.1839 130.31 82.203 128.94C84.7348 111.567 89.0667 94.7489 90.6984 77.4302L99.1056 112.479V112.483Z" fill="#3B6A87"/>
<path d="M120.436 50.1242C118.115 49.2929 115.572 49.3775 112.852 49.4507C109.355 49.5469 105.87 49.9086 102.426 50.5283C95.6852 51.7444 89.1242 53.9497 83.0265 57.0902C80.6863 58.2948 79.0776 61.4121 79.5947 64.0023C79.9854 65.9727 80.8586 67.8085 81.686 69.6405C85.926 79.0118 89.1969 88.8258 91.4491 98.8668C92.6096 104.035 93.4982 109.266 94.111 114.531C94.4098 117.086 95.1682 131.141 94.9384 133.704C94.5132 138.434 128.977 141.917 140.533 129.625C143.049 126.95 138.078 98.9592 137.342 93.4865C135.879 82.618 133.225 71.8765 129.322 61.6277C128.027 58.2255 126.415 54.7194 123.741 52.1793C122.696 51.1864 121.593 50.5398 120.432 50.1242H120.436Z" fill="#457B9D"/>
<path d="M94.1148 114.531C93.502 109.269 92.6095 104.039 91.4528 98.8667C89.5416 90.342 86.8872 81.9867 83.5397 73.9238C91.9048 87.4478 93.3679 103.985 100.779 118.441C102.296 121.2 103.38 125.195 107.068 126.504C104.755 126.792 99.9098 125.63 100.707 127.3C109.359 142.167 129.329 138.015 141.111 127.904C141 128.736 140.816 129.328 140.54 129.621C128.985 141.913 94.5208 138.43 94.9459 133.7C95.1757 131.137 94.4174 117.082 94.1186 114.527L94.1148 114.531Z" fill="#3B6A87"/>
<path d="M92.7245 66.1728C93.7357 66.5961 94.8847 66.269 95.827 65.811C96.7539 65.3607 97.6041 64.7527 98.3434 64.033C99.8256 62.5897 100.883 60.7116 101.346 58.6873C101.607 57.5519 101.672 56.3858 101.534 55.2312C101.496 54.8964 102.013 54.8771 102.051 55.2081C102.58 59.634 100.109 64.287 96.1065 66.2498C94.9843 66.8001 93.6897 67.1426 92.4909 66.6385C92.1806 66.5076 92.4181 66.0458 92.7245 66.1728Z" fill="#3B6A87"/>
<path d="M91.9355 54.4687C88.5841 48.3418 85.2365 42.2148 81.8851 36.0916C82.6971 35.7799 82.4481 34.2559 82 33.5092C81.5519 32.7626 80.399 32.5702 79.7402 33.1436C79.5104 32.3623 78.3498 31.4849 77.5455 31.3848C76.7412 31.2847 75.8947 31.7042 75.4849 32.4085C74.3664 31.6273 72.1909 31.9274 71.4364 33.0705C70.5478 32.8165 69.8507 32.7895 68.9659 33.0589C68.0811 33.3283 67.3572 34.3405 67.7364 35.1834C67.1121 34.71 65.58 34.9024 64.8561 35.1949C64.1322 35.4874 63.573 36.1763 63.4428 36.9499C62.9947 36.7805 62.4354 37.0499 61.9605 37.0192C61.4856 36.9884 60.9723 37.1192 60.6506 37.4733C60.3289 37.8274 60.2561 38.4277 60.5778 38.7818C59.6011 38.8434 58.3755 39.1089 57.552 39.6401C56.7285 40.1712 56.2114 41.3181 56.6979 42.1724C55.8476 42.1109 55.1198 42.8459 54.936 43.6811C54.7521 44.5162 55.2462 45.4515 56.0429 45.7593C55.522 46.3212 55.2462 47.9838 55.6829 48.615C56.1195 49.2462 57.0158 49.5117 57.7243 49.2192C57.5558 49.8504 57.9503 50.6394 58.4214 51.0897C58.8925 51.54 59.6126 51.7016 60.2331 51.5015C64.0211 53.1333 67.679 55.15 70.7623 57.9017L91.9316 54.4764L91.9355 54.4687Z" fill="#1D3557"/>
<path d="M55.6905 48.6077C55.2539 47.9727 55.5258 46.3139 56.0467 45.752C55.2539 45.4441 54.756 44.5089 54.9398 43.6738C55.1236 42.8386 55.8514 42.1074 56.7017 42.1651C56.2114 41.3146 56.7285 40.1677 57.5558 39.6327C58.3793 39.1016 59.605 38.8361 60.5817 38.7745C60.2599 38.4166 60.3327 37.8162 60.6544 37.466C60.98 37.1119 61.4894 36.981 61.9643 37.0118C62.4393 37.0426 63.0023 36.7732 63.4466 36.9426C63.5768 36.169 64.1322 35.4762 64.86 35.1876C65.5877 34.8989 67.1159 34.7027 67.7402 35.176C67.3572 34.3293 68.085 33.3172 68.9697 33.0516C69.8545 32.7822 70.5516 32.813 71.4402 33.0632C72.1947 31.924 74.3703 31.6199 75.4887 32.4012C75.8985 31.6969 76.745 31.2774 77.5493 31.3775C78.3537 31.4775 79.5142 32.355 79.744 33.1363C80.4028 32.5667 81.5595 32.7553 82.0038 33.5019C82.4481 34.2524 82.6971 35.7726 81.8889 36.0843C83.015 38.1472 84.1411 40.2062 85.271 42.269C84.5777 41.5801 83.8959 40.8758 83.2486 40.1446C82.7277 39.5519 82.2221 38.9477 81.7395 38.3242C81.414 37.9047 81.0578 37.4814 80.8126 37.008C80.4947 36.3999 80.2381 35.634 79.6712 35.2107C79.1274 34.8066 78.5835 35.0182 78.1392 35.3954C77.9553 35.0144 77.6949 34.668 77.308 34.5064C76.8293 34.3063 76.3964 34.4833 76.0402 34.7873C75.6381 34.4871 75.167 34.3678 74.6614 34.6257C74.1864 34.8682 73.8379 35.3107 73.5315 35.7495C72.934 35.4993 72.2599 35.3993 71.6509 35.6571C71.084 35.8957 70.7393 36.3691 70.5746 36.9272C69.7588 36.7155 68.9084 36.5731 68.1003 36.9156C67.6713 37.1003 67.3726 37.4082 67.1581 37.82C66.9934 38.1318 66.9014 38.6205 66.6257 38.8553C66.3307 39.1093 65.7217 38.9361 65.377 38.8938C64.948 38.8399 64.4884 38.7745 64.0633 38.8861C63.1402 39.1286 62.5465 39.829 62.1559 40.6449C61.3324 40.7219 60.5127 40.9644 59.8769 41.4801C59.0151 42.1805 58.9079 43.2081 59.2832 44.1702C58.5555 44.5474 57.6745 45.1439 57.8392 46.0291C57.9925 46.8681 58.9691 47.3453 59.7314 47.6571C59.6279 48.1959 59.6279 48.7616 59.9573 49.235C60.2982 49.7276 60.8689 49.9316 61.4396 50.0047C61.612 50.8168 61.8303 51.5981 62.1252 52.3485C61.5009 52.0522 60.8766 51.7674 60.2446 51.4941C59.6279 51.6943 58.904 51.5288 58.4329 51.0823C57.9618 50.6321 57.5673 49.8431 57.7358 49.2119C57.0272 49.5044 56.131 49.2427 55.6943 48.6077H55.6905Z" fill="#294B7A"/>
<path d="M84.3556 46.8486C88.722 49.4272 93.2761 51.6979 97.9527 53.6376C99.0596 54.0956 99.818 55.1616 99.8142 56.3624C99.8065 59.118 98.7341 61.6234 96.7768 63.4785C95.8346 64.3714 94.4251 64.5676 93.2914 63.9365C90.4609 62.3662 87.5883 60.7344 84.7807 59.195L84.3556 46.8563V46.8486Z" fill="#BC6C25"/>
<path d="M84.3556 46.8486C86.8797 48.338 89.4689 49.7235 92.104 51.0051C93.5289 53.5491 93.9157 56.4278 93.5442 59.5452C93.2799 60.8537 92.8624 62.1584 92.2764 63.3669C89.7753 61.9737 87.2512 60.5458 84.7807 59.1873L84.3556 46.8486Z" fill="#6B3E15"/>
<path d="M85.5965 62.636C91.4337 56.0241 88.9709 50.4513 85.336 47.7304C86.4468 46.4295 86.4353 44.4129 85.2977 43.139C84.6887 42.4578 83.804 42.019 82.9 42.0537C81.9961 42.096 81.1113 42.6464 80.759 43.4854C80.3989 44.3167 80.6632 45.3981 81.4063 45.9177L78.0089 45.9061C76.4347 44.9632 74.6728 43.6662 73.1063 42.7272C69.1612 45.0517 66.1928 48.4808 64.2356 52.6296C65.1625 53.9536 67.0852 55.9318 67.2806 56.0665C74.0447 60.9273 80.8969 67.9702 85.6041 62.636H85.5965Z" fill="#BC6C25"/>
<path d="M82.5668 46.241C82.0191 45.6714 81.4024 44.9941 81.4254 44.1435C81.4446 43.4392 81.9463 42.7465 82.6856 42.7388C82.8158 42.7388 82.9115 42.885 82.9 43.0043C82.8847 43.1467 82.766 43.216 82.6358 43.2198C82.1455 43.2275 81.8774 43.8433 81.9004 44.2667C81.9425 44.9402 82.4979 45.4867 82.9383 45.9447C83.0303 46.037 82.992 46.2064 82.9 46.2833C82.789 46.3719 82.6549 46.3372 82.563 46.2449L82.5668 46.241Z" fill="#6B3E15"/>
<path d="M83.0533 60.6541C83.3329 60.3385 83.6163 60.023 83.8959 59.7112C83.9802 59.6189 84.1219 59.5727 84.2291 59.6612C84.3211 59.7343 84.3709 59.896 84.2789 59.996C83.9993 60.3116 83.7159 60.6272 83.4363 60.9389C83.352 61.0313 83.2103 61.0775 83.1031 60.989C83.0111 60.912 82.9614 60.7542 83.0533 60.6541Z" fill="#6B3E15"/>
<path d="M70.429 50.0896C71.2755 50.2358 71.8385 49.443 72.2981 48.8619L74.0256 46.6797C74.2171 46.4372 74.6039 46.722 74.4124 46.9645C73.7613 47.7881 73.114 48.6156 72.459 49.4353C71.9496 50.0703 71.264 50.7246 70.3792 50.5706C70.0766 50.5168 70.1264 50.0395 70.429 50.0934V50.0896Z" fill="#1D3557"/>
<path d="M67.4338 55.2122C67.7824 54.7196 68.1309 54.2308 68.4795 53.7382C68.648 53.4996 68.8204 53.2648 68.985 53.0223C69.054 52.9223 69.1383 52.7991 69.1459 52.6721C69.1459 52.6105 69.1268 52.4951 69.054 52.4835C68.7514 52.4258 68.8012 51.9486 69.1038 52.0063C69.4025 52.064 69.6055 52.3103 69.6209 52.6144C69.64 52.9838 69.3796 53.2917 69.1804 53.5765C68.7284 54.2154 68.2726 54.8543 67.8207 55.497C67.6407 55.751 67.2538 55.4662 67.4338 55.2122Z" fill="#1D3557"/>
<path d="M75.1861 58.6526C74.9792 58.4101 74.849 58.1099 74.7111 57.8251L74.1979 56.7783C73.8455 56.0625 73.4931 55.3428 73.1407 54.627C73.0029 54.3422 73.4242 54.0843 73.5659 54.3729C73.8723 54.9964 74.1787 55.6237 74.4851 56.2472C74.7839 56.8553 75.0558 57.4903 75.3929 58.0792C76.09 59.2953 77.4957 58.0907 78.4915 58.0484C78.8094 58.0368 78.8209 58.5333 78.503 58.5448C77.8787 58.5718 77.3463 58.9412 76.7449 59.0721C76.1742 59.1953 75.5844 59.1221 75.1861 58.6526Z" fill="#6B3E15"/>
<path d="M75.7874 49.2581C75.841 50.2511 75.1975 51.2171 74.2668 51.5519C73.8723 51.6943 74.083 52.3139 74.4813 52.1715C75.6878 51.7366 76.5075 50.4935 76.4385 49.2081C76.4155 48.7886 75.7644 48.8348 75.7874 49.2581Z" fill="#1D3557"/>
<path d="M72.3058 54.654C72.1182 54.6694 72.0071 54.8272 72.0071 55.0042C72.0071 55.0812 71.9994 55.1543 71.9803 55.2582C71.9688 55.3121 71.9573 55.3621 71.9458 55.416C71.942 55.4353 71.9343 55.4545 71.9305 55.4738C71.9305 55.4776 71.9152 55.5161 71.9113 55.5199C71.8309 55.7278 71.7505 55.8702 71.6317 56.0203C71.3789 56.332 71.0763 56.536 70.678 56.6322C70.5057 56.6745 70.4214 56.8939 70.475 57.0478C70.5363 57.2287 70.7201 57.2941 70.8887 57.2518C71.919 56.9978 72.6467 56.001 72.6582 54.9542C72.6582 54.7772 72.4705 54.6386 72.3097 54.654H72.3058Z" fill="#1D3557"/>
<path d="M84.279 56.2856C82.8963 56.6435 81.6361 57.4209 80.6786 58.4908C80.399 58.8064 80.8893 59.2374 81.1689 58.9257C82.0536 57.9366 83.2103 57.24 84.4896 56.909C84.662 56.8629 84.7462 56.6512 84.6926 56.4934C84.6313 56.3164 84.4475 56.2471 84.279 56.2894V56.2856Z" fill="#1D3557"/>
<path d="M91.3035 103.558C100.906 101.626 108.011 100.93 116.226 100.167C117.261 103.574 117.866 107.037 117.578 110.609C108.754 110.374 99.8945 109.339 91.5907 107.549C91.4835 106.16 91.4107 104.944 91.3035 103.554V103.558Z" fill="#BC6C25"/>
<path d="M98.0637 102.85C94.4787 101.884 90.7825 101.284 87.0596 101.064C86.0331 101.003 84.8841 101.014 84.1295 101.699C83.2984 102.454 83.2907 103.704 83.3405 104.805C83.4095 106.333 83.5665 108.038 84.7538 109.031C85.7612 109.874 87.2281 109.943 88.561 109.843C92.1576 109.577 95.6852 108.38 98.6842 106.41L98.0637 102.846V102.85Z" fill="#BC6C25"/>
<path d="M85.1713 101.137C83.6354 101.364 82.0995 101.587 80.5674 101.815C80.0848 102.981 79.5103 104.12 79.0277 105.286C79.2499 106.275 79.4375 107.495 79.6597 108.48C80.5828 107.934 81.05 106.51 80.5789 105.54C80.9351 105.078 81.2301 104.339 81.5863 103.877C82.8043 103.704 84.1333 103.308 85.3552 103.131L85.1751 101.133L85.1713 101.137Z" fill="#BC6C25"/>
<path d="M86.4429 103.485C84.907 103.712 83.3711 103.935 81.839 104.162C81.3564 105.328 80.7819 106.467 80.2993 107.634C80.5215 108.623 80.7091 109.843 80.9313 110.828C81.8544 110.281 82.3216 108.857 81.8505 107.888C82.2067 107.426 82.5017 106.687 82.8579 106.225C84.0759 106.052 85.4049 105.655 86.6268 105.478L86.4467 103.481L86.4429 103.485Z" fill="#BC6C25"/>
<path d="M87.9827 104.67C86.4468 104.897 84.9109 105.121 83.3788 105.348C82.8962 106.514 82.3217 107.653 81.8391 108.819C82.0613 109.808 82.2489 111.028 82.4711 112.014C83.3942 111.467 83.8614 110.043 83.3903 109.073C83.7465 108.611 84.0415 107.872 84.3977 107.411C85.6157 107.237 86.9447 106.841 88.1666 106.664L87.9865 104.667L87.9827 104.67Z" fill="#BC6C25"/>
<path d="M89.5147 105.987C87.9788 106.214 86.4429 106.437 84.9108 106.664C84.4282 107.83 83.8537 108.969 83.3711 110.136C83.5932 111.125 83.7809 112.345 84.0031 113.33C84.9261 112.783 85.3934 111.359 84.9223 110.39C85.2785 109.928 85.5734 109.189 85.9296 108.727C87.1515 108.554 88.4767 108.157 89.6985 107.98L89.5185 105.983L89.5147 105.987Z" fill="#BC6C25"/>
<path d="M116.602 99.448C116.464 99.0516 115.836 99.2286 115.974 99.6289C117.364 103.608 117.766 107.896 117.111 112.064C117.046 112.479 117.678 112.645 117.743 112.225C118.413 107.942 118.03 103.539 116.602 99.448Z" fill="#3B6A87"/>
<path d="M122.918 97.8198C120.685 98.2971 118.452 98.7705 116.215 99.2477C115.805 99.3362 115.985 99.9635 116.395 99.8789C118.628 99.4016 120.861 98.9282 123.098 98.451C123.508 98.3625 123.328 97.7352 122.918 97.8198Z" fill="#3B6A87"/>
<path d="M117.667 75.4903C116.832 73.466 115.916 71.4724 114.924 69.5211C114.733 69.144 114.177 69.4865 114.369 69.8636C117.847 76.7219 120.363 84.065 121.826 91.6198C122.244 93.7635 122.569 95.9264 122.814 98.0971C122.86 98.5127 123.515 98.5089 123.465 98.0894C122.592 90.3306 120.643 82.7026 117.667 75.4903Z" fill="#3B6A87"/>
<path d="M134.596 79.312C133.615 74.609 132.252 69.9868 130.532 65.5032C130.383 65.1145 129.755 65.2876 129.904 65.684C132.884 73.4428 134.776 81.6173 135.508 89.9033C135.875 94.0444 135.956 98.2163 135.745 102.369C135.642 104.409 135.538 106.491 135.209 108.508C135.063 109.389 134.749 110.197 133.96 110.678C133.275 111.098 132.44 111.228 131.651 111.294C129.341 111.482 127.001 111.475 124.683 111.556C122.263 111.64 119.842 111.725 117.421 111.81C117 111.825 117.008 112.479 117.429 112.464C121.895 112.306 126.361 112.16 130.823 111.994C132.348 111.937 134.182 111.787 135.17 110.447C135.684 109.751 135.825 108.892 135.925 108.053C136.051 106.983 136.155 105.91 136.239 104.836C136.909 96.3074 136.343 87.6827 134.596 79.312Z" fill="#3B6A87"/>
<path d="M123.423 97.8163C123.048 97.6238 122.73 98.1973 123.105 98.3897C125.492 99.6059 127.231 101.873 127.805 104.494C127.893 104.905 128.521 104.725 128.433 104.313C127.828 101.53 125.951 99.1017 123.423 97.8124V97.8163Z" fill="#3B6A87"/>
<path d="M73.5391 56.6821C73.5391 58.3947 72.1564 59.7802 70.4559 59.7802C68.7553 59.7802 67.3726 58.3909 67.3726 56.6821C67.3726 54.9733 68.7553 53.584 70.4559 53.584C72.1564 53.584 73.5391 54.9733 73.5391 56.6821Z" stroke="#1D3557" stroke-width="0.25" stroke-miterlimit="10" stroke-linecap="round"/>
<path d="M78.3345 50.8901C78.3345 52.6028 76.9519 53.9883 75.2513 53.9883C73.5507 53.9883 72.168 52.5989 72.168 50.8901C72.168 49.1813 73.5507 47.792 75.2513 47.792C76.9519 47.792 78.3345 49.1813 78.3345 50.8901Z" stroke="#1D3557" stroke-width="0.25" stroke-miterlimit="10" stroke-linecap="round"/>
<path d="M72.9148 52.9722C72.6889 53.3031 72.4667 53.6341 72.2407 53.9651" stroke="#1D3557" stroke-width="0.25" stroke-miterlimit="10" stroke-linecap="round"/>
</g>
</svg>
