<svg width="80" height="118" viewBox="0 0 73 108" fill="none" xmlns="http://www.w3.org/2000/svg">
<g clip-path="url(#clip0_68_2797)">
<path d="M18.6992 95.7111C4.48397 80.0186 -0.435319 68.5689 0.0298292 43.4848C0.396309 23.8867 8.78306 3.42467 36.8893 3.00321C65.0025 2.58877 79.4996 42.3679 67.7934 77.4477C56.0872 112.528 36.5228 115.386 18.6992 95.7041V95.7111Z" fill="#8BEABD"/>
<path d="M44.0551 29.0601C44.0551 29.0601 53.9501 30.6546 55.4795 47.6677C57.0088 64.6807 52.5547 69.6821 42.6597 70.5812C32.7647 71.4874 19.8745 66.5563 19.8745 66.5563C19.8745 66.5563 30.4672 59.4054 31.024 47.0425L44.0551 29.0601Z" fill="#111111"/>
<path d="M41.6448 61.8498C41.6448 61.8498 21.7562 58.2674 17.147 64.4489C9.69756 74.4516 2.16358 88.7884 4.61618 95.1806C6.8503 101.004 24.7514 103.54 29.9949 103.174C29.9949 103.174 43.16 110.683 55.7824 106.609C68.4048 102.535 73.5567 94.2042 72.7674 85.5923C72.126 78.5749 69.8426 61.1755 54.1403 61.309C44.6682 61.3933 41.6448 61.8428 41.6448 61.8428V61.8498Z" fill="#F9CC59"/>
<path d="M20.248 76.7909C19.9026 76.1517 19.6912 75.5335 19.5503 74.8522C19.4234 74.1849 19.3952 73.4754 19.5432 72.787C19.6842 72.0986 20.0154 71.4453 20.4524 70.9255C20.8682 70.4198 21.3192 69.9632 21.7632 69.5136C22.6512 68.6145 23.5111 67.7084 24.0467 66.6126C24.5964 65.5238 24.7233 64.2594 24.5541 63.0301C24.54 62.9458 24.5964 62.8756 24.681 62.8615C24.7585 62.8475 24.836 62.9037 24.8501 62.981C25.0897 64.2383 25.0263 65.6081 24.4907 66.8163C23.9692 68.0315 23.0952 69.029 22.2566 69.9702C21.8408 70.4479 21.4179 70.9115 21.0585 71.4032C20.7131 71.8738 20.4806 72.3866 20.396 72.9486C20.2127 74.0584 20.5792 75.2807 21.1501 76.243L21.1712 76.2711C21.3192 76.524 21.2347 76.8471 20.988 76.9946C20.7343 77.1421 20.4101 77.0578 20.2621 76.812C20.2621 76.812 20.255 76.7979 20.255 76.7909H20.248Z" fill="#5B76E8"/>
<path d="M22.1791 59.5317C22.1791 59.5317 25.0687 60.8102 24.7374 63.2336C24.7374 63.2336 21.9395 61.9903 22.1791 59.5317Z" fill="#5B76E8"/>
<path d="M26.7107 60.5435C26.7107 60.5435 24.836 60.5435 24.7233 63.1495C24.7233 63.1495 26.8587 62.6227 26.7107 60.5435Z" fill="#5B76E8"/>
<path d="M21.7703 69.9983C21.7703 69.9983 18.5143 69.7103 18.7046 66.1489C18.7046 66.1489 21.8972 67.0129 21.7703 69.9983Z" fill="#5B76E8"/>
<path d="M22.1791 69.5627C22.1791 69.5627 24.9277 70.9606 26.2033 69.7665C26.2033 69.7665 24.1947 67.9893 22.1791 69.5627Z" fill="#5B76E8"/>
<path d="M24.3921 66.4365C24.3921 66.4365 24.7727 65.2634 26.1117 65.8534C26.1117 65.8534 25.6254 66.6542 24.3921 66.4365Z" fill="#5B76E8"/>
<path d="M17.7251 84.7216L16.7948 75.9622C16.7736 75.7444 16.9428 75.5547 17.1612 75.5477L24.9348 75.3159C25.1674 75.3159 25.3436 75.5056 25.3225 75.7374L24.3287 84.7286C24.3287 84.7286 21.566 87.138 17.7321 84.7286L17.7251 84.7216Z" fill="#02A338"/>
<path d="M16.851 76.5308L16.9778 77.7319C18.2182 78.0691 22.6371 78.7083 25.0968 77.6828L25.2095 76.6713C25.139 76.6713 25.0968 76.6713 25.0968 76.6713L16.851 76.5308Z" fill="#008E2B"/>
<path d="M25.132 77.3808L25.3153 75.7301C25.3435 75.5053 25.1602 75.3086 24.9276 75.3086L17.154 75.5404C16.9356 75.5404 16.7664 75.7371 16.7876 75.9548L16.9497 77.4791C18.3733 77.6828 21.4531 77.9638 25.132 77.3808Z" fill="#02A338"/>
<path d="M19.2825 67.083C19.2825 67.083 19.7899 68.5019 21.4673 69.7172" stroke="#8BA3F2" stroke-width="0.3" stroke-miterlimit="10" stroke-linecap="round"/>
<path d="M25.6677 69.7591C25.6677 69.7591 24.1031 69.3166 22.7147 69.422" stroke="#8BA3F2" stroke-width="0.3" stroke-miterlimit="10" stroke-linecap="round"/>
<path d="M25.724 65.9238C25.724 65.9238 25.2447 65.9379 24.6598 66.254" stroke="#8BA3F2" stroke-width="0.3" stroke-miterlimit="10" stroke-linecap="round"/>
<path d="M23.0177 60.8174C23.0177 60.8174 23.7577 62.2363 24.54 62.8826" stroke="#8BA3F2" stroke-width="0.3" stroke-miterlimit="10" stroke-linecap="round"/>
<path d="M26.2879 61.0981C26.2879 61.0981 25.5267 61.8357 24.8925 62.7348" stroke="#8BA3F2" stroke-width="0.3" stroke-miterlimit="10" stroke-linecap="round"/>
<path d="M17.147 64.4487C14.3773 68.1717 11.5934 72.4917 9.31702 76.7765" stroke="#FB9936" stroke-width="0.5" stroke-linecap="round" stroke-linejoin="round"/>
<path d="M6.0892 83.7729C4.32728 88.3739 3.58022 92.4832 4.60919 95.1806C5.23643 96.8172 7.10407 98.194 9.58486 99.3249C9.85972 99.4514 10.1416 99.5708 10.4306 99.6902C11.0085 99.929 11.6146 100.154 12.2418 100.365C12.8691 100.575 13.5104 100.779 14.1729 100.969C15.1596 101.25 16.1744 101.51 17.1964 101.734C17.5347 101.812 17.88 101.882 18.2183 101.952C18.9019 102.093 19.5785 102.219 20.2551 102.338C24.2863 103.041 28.0357 103.308 30.002 103.174L23.7014 89.252L6.09625 83.7729H6.0892Z" fill="#A34A55"/>
<path d="M4.60913 95.1807C5.23638 96.8173 7.10401 98.1941 9.5848 99.325C9.85966 99.4515 10.1416 99.5709 10.4305 99.6903C11.0084 99.9292 11.6145 100.154 12.2418 100.365C12.869 100.575 13.5104 100.779 14.1729 100.969C15.1595 101.25 16.1744 101.51 17.1963 101.734C17.5346 101.812 17.8799 101.882 18.2182 101.952C18.9019 102.093 19.5784 102.219 20.255 102.339C24.2863 103.041 28.0357 103.308 30.002 103.174" stroke="#8B3E44" stroke-width="0.5" stroke-linecap="round" stroke-linejoin="round"/>
<path d="M15.8432 96.0373C19.9309 99.0929 24.8854 101.769 27.6552 103.181C28.5784 103.216 29.3748 103.216 29.995 103.181L23.6944 89.2587L11.5794 85.4937C10.4588 87.8749 11.516 92.806 15.8432 96.0443V96.0373Z" fill="#8B3E44"/>
<path d="M55.7754 106.616C68.3978 102.542 73.5497 94.2111 72.7603 85.5992C72.2318 79.8462 70.6037 67.118 61.3854 62.791L54.1403 75.8283C56.3322 83.2109 58.4606 89.7085 49.1224 92.2373C38.5931 95.0962 25.9707 88.4862 25.9707 88.4862C27.1336 83.6745 25.8227 79.8603 25.3646 79.9305C24.9136 80.0008 24.5964 82.3118 24.3004 83.6113C24.0044 84.9108 20.8893 85.2972 19.3177 84.7212C17.7531 84.1452 16.0969 78.0058 15.4837 77.8302C14.8706 77.6546 14.7015 78.8558 14.7015 78.8558C14.7015 78.8558 14.4548 78.3711 14.0249 78.3009C13.5879 78.2306 13.4329 79.0244 13.4329 79.0244C12.9677 79.0244 12.5237 81.1106 13.447 84.2786C14.3773 87.4466 19.4023 91.6191 19.4023 91.6191C22.9543 99.36 29.9879 103.181 29.9879 103.181C29.9879 103.181 43.153 110.69 55.7754 106.616Z" fill="#A34A55"/>
<path d="M25.9708 88.4934C27.1337 83.6817 25.8228 79.8674 25.3647 79.9377C24.9136 80.0079 24.5965 82.3189 24.3005 83.6184C24.0045 84.9179 20.8894 85.3043 19.3178 84.7283C17.7532 84.1523 16.097 78.013 15.4838 77.8374C14.8707 77.6618 14.7015 78.8629 14.7015 78.8629" stroke="#8B3E44" stroke-width="0.5" stroke-linecap="round" stroke-linejoin="round"/>
<path d="M40.4819 92.8062C40.4819 92.8062 48.5656 87.8962 52.1177 88.4862C55.6697 89.0763 58.3901 93.7405 57.6924 94.1338C56.9947 94.5272 54.1404 90.7972 54.1404 90.7972C54.1404 90.7972 56.8326 95.3561 55.9728 95.8899C55.1129 96.4238 52.6533 91.5137 52.6533 91.5137C52.6533 91.5137 54.7606 96.5502 53.9994 96.9296C53.0903 97.3791 51.8499 93.305 50.2994 91.872C50.2994 91.872 46.3104 93.6843 40.4819 92.7992V92.8062Z" fill="#A34A55"/>
<path d="M52.1177 88.4932C55.6697 89.0832 58.3901 93.7474 57.6924 94.1408C56.9947 94.5341 54.1404 90.8042 54.1404 90.8042C54.1404 90.8042 56.8326 95.363 55.9728 95.8969C55.1129 96.4307 52.6533 91.5207 52.6533 91.5207C52.6533 91.5207 54.7606 96.5572 53.9994 96.9365C53.6752 97.098 53.3087 96.6836 52.907 96.0233" stroke="#8B3E44" stroke-width="0.5" stroke-linecap="round" stroke-linejoin="round"/>
<path d="M52.907 96.0233C52.174 94.8221 51.3001 92.8061 50.3064 91.8789C50.3064 91.8789 47.5789 93.1152 43.3433 93.045" stroke="#8B3E44" stroke-width="0.5" stroke-linecap="round" stroke-linejoin="round"/>
<path d="M14.7015 78.856C14.7015 78.856 14.7015 82.7123 16.9779 85.6696" stroke="#8B3E44" stroke-width="0.5" stroke-linecap="round" stroke-linejoin="round"/>
<path d="M13.433 79.0244C13.433 79.0244 13.151 83.2812 15.2865 85.6695" stroke="#8B3E44" stroke-width="0.5" stroke-linecap="round" stroke-linejoin="round"/>
<path d="M46.4937 62.6504C45.4788 57.1152 42.5258 40.0459 42.5258 40.0459L35.7671 42.8135L37.6841 62.7838L46.4937 62.6504Z" fill="#A34A55"/>
<path d="M36.5634 51.0814C36.5634 51.0814 39.608 50.5686 41.6448 47.218C42.8922 45.1669 39.0653 44.4855 35.908 44.2607L36.5634 51.0744V51.0814Z" fill="#8B3E44"/>
<path d="M27.8948 38.1565C27.8948 38.1565 26.154 46.8387 29.9879 48.3629C33.8219 49.8872 42.9134 48.5034 45.2673 43.9868C47.6213 39.4701 46.0144 31.4904 39.3966 30.5842C32.7788 29.6781 28.2965 34.0543 27.9018 38.1565H27.8948Z" fill="#A34A55"/>
<path d="M34.3505 33.0427C34.3505 33.0427 29.396 38.88 27.8102 38.6482C26.2245 38.4164 24.8291 32.7196 29.847 28.8772C34.865 25.0349 41.4123 26.0394 44.0622 29.0599C44.0622 29.0599 48.7419 38.6271 44.7952 39.7159C41.9127 40.5096 35.76 37.8544 34.3575 33.0427H34.3505Z" fill="#111111"/>
<path d="M33.6669 45.427C33.6669 45.427 35.3019 45.448 36.2745 43.9448" stroke="#111111" stroke-width="0.5" stroke-linecap="round" stroke-linejoin="round"/>
<path d="M31.6159 40.8821C31.6159 38.6904 29.8329 36.9062 27.6269 36.9062C25.421 36.9062 23.6379 38.6834 23.6379 40.8821C23.6379 43.0807 25.421 44.8579 27.6269 44.8579C29.8329 44.8579 31.6159 43.0807 31.6159 40.8821Z" stroke="#5533FB" stroke-width="0.5" stroke-linecap="round" stroke-linejoin="round"/>
<path d="M41.6447 40.4817C41.6447 38.2901 39.8617 36.5059 37.6557 36.5059C35.4498 36.5059 33.6667 38.283 33.6667 40.4817C33.6667 42.6803 35.4498 44.4575 37.6557 44.4575C39.8617 44.4575 41.6447 42.6803 41.6447 40.4817Z" stroke="#5533FB" stroke-width="0.5" stroke-linecap="round" stroke-linejoin="round"/>
<path d="M31.4397 39.716C31.4397 39.716 32.3841 38.5499 33.7936 39.4842" stroke="#5533FB" stroke-width="0.5" stroke-linecap="round" stroke-linejoin="round"/>
<path d="M49.6298 40.8821C49.6298 39.0698 48.1569 37.5947 46.3315 37.5947C44.5062 37.5947 43.0332 39.0698 43.0332 40.8821C43.0332 42.6944 44.5062 44.1696 46.3315 44.1696C48.1569 44.1696 49.6298 42.6944 49.6298 40.8821Z" fill="#A34A55"/>
<path d="M45.2884 39.3787C45.1757 39.9337 46.1764 39.6948 46.7755 40.1865C47.3746 40.6783 47.9736 40.615 48.1005 40.2357C48.2273 39.8634 47.4662 39.2102 46.9376 39.0205C46.409 38.8308 45.3519 39.0345 45.2814 39.3717L45.2884 39.3787Z" fill="#8B3E44"/>
<path d="M45.0912 39.47C45.4224 39.182 45.8594 39.0063 46.3316 39.0063C47.2407 39.0063 47.9948 39.6456 48.1781 40.4955" stroke="#111111" stroke-width="0.5" stroke-linecap="round" stroke-linejoin="round"/>
<path d="M29.5087 42.1887C29.5087 41.9288 29.2972 41.7251 29.0435 41.7251C28.7898 41.7251 28.5784 41.9358 28.5784 42.1887C28.5784 42.4416 28.7898 42.6523 29.0435 42.6523C29.2972 42.6523 29.5087 42.4416 29.5087 42.1887Z" fill="#111111"/>
<path d="M36.5704 42.1887C36.5704 41.9288 36.359 41.7251 36.1053 41.7251C35.8516 41.7251 35.6401 41.9358 35.6401 42.1887C35.6401 42.4416 35.8516 42.6523 36.1053 42.6523C36.359 42.6523 36.5704 42.4416 36.5704 42.1887Z" fill="#111111"/>
<path d="M32.1375 40.8818C32.1375 40.8818 31.7851 42.2446 32.1375 42.7573C32.4898 43.2701 33.1664 43.0453 33.1664 43.0453" stroke="#8B3E44" stroke-width="0.5" stroke-miterlimit="10" stroke-linecap="round"/>
<path d="M72.7392 85.3042C72.1824 79.4178 70.4557 67.0408 61.3854 62.791L53.7034 75.7651C54.831 79.5723 56.3815 83.2039 55.9163 86.112L72.7321 85.2972L72.7392 85.3042Z" fill="#F9CC59"/>
<path d="M53.7034 75.7651C54.831 79.5724 56.3815 83.204 55.9163 86.1121" stroke="#FB9936" stroke-width="0.5" stroke-linecap="round" stroke-linejoin="round"/>
<path d="M72.7393 85.3044C72.1191 76.3483 68.9194 64.2453 58.3197 61.7446" stroke="#FB9936" stroke-width="0.5" stroke-linecap="round" stroke-linejoin="round"/>
<path d="M41.6448 61.8497C41.6448 61.8497 37.7263 61.1472 32.9691 60.9014C33.7514 62.805 36.1124 67.1742 41.4334 67.5675C46.4654 67.9398 48.6996 63.669 49.5241 61.3931C43.6534 61.5476 41.6448 61.8497 41.6448 61.8497Z" fill="#A34A55"/>
<path d="M33.5188 62.0747C34.6535 64.1961 37.0285 67.2376 41.4334 67.5678C42.5892 67.6521 43.597 67.4975 44.4709 67.1744" stroke="#FB9936" stroke-width="0.5" stroke-linecap="round" stroke-linejoin="round"/>
<path d="M33.4342 104.797C38.1703 106.743 47.1067 109.419 55.7824 106.616C67.1363 102.949 73.6906 95.1735 72.7392 85.3042" stroke="#8B3E44" stroke-width="0.5" stroke-linecap="round" stroke-linejoin="round"/>
</g>
<defs>
<clipPath id="clip0_68_2797">
<rect width="73" height="108" fill="white"/>
</clipPath>
</defs>
</svg>
