<svg width="21" height="22" viewBox="0 0 21 22" fill="none" xmlns="http://www.w3.org/2000/svg">
<path d="M7.5 7.5V3.28125C7.5 2.60992 7.76668 1.96609 8.24139 1.49139C8.71609 1.01668 9.35992 0.75 10.0312 0.75H16.7812C17.4526 0.75 18.0964 1.01668 18.5711 1.49139C19.0458 1.96609 19.3125 2.60992 19.3125 3.28125V18.4688C19.3125 19.1401 19.0458 19.7839 18.5711 20.2586C18.0964 20.7333 17.4526 21 16.7812 21H10.0312C9.35992 21 8.71609 20.7333 8.24139 20.2586C7.76668 19.7839 7.5 19.1401 7.5 18.4688V14.25M11.7188 7.5L15.0938 10.875M15.0938 10.875L11.7188 14.25M15.0938 10.875H0.75" stroke="black" stroke-width="1.5" stroke-linecap="round" stroke-linejoin="round"/>
</svg>
