<svg width="12" height="20" viewBox="0 0 12 20" fill="none" xmlns="http://www.w3.org/2000/svg">
<path d="M6 15.8438C7.39239 15.8438 8.72775 15.2906 9.71231 14.3061C10.6969 13.3215 11.25 11.9861 11.25 10.5938V9.28125M6 15.8438C4.60761 15.8438 3.27226 15.2906 2.28769 14.3061C1.30312 13.3215 0.75 11.9861 0.75 10.5938V9.28125M6 15.8438V19.125M2.71875 19.125H9.28125M6 13.2188C5.30381 13.2188 4.63613 12.9422 4.14384 12.4499C3.65156 11.9576 3.375 11.2899 3.375 10.5938V3.375C3.375 2.67881 3.65156 2.01113 4.14384 1.51884C4.63613 1.02656 5.30381 0.75 6 0.75C6.69619 0.75 7.36387 1.02656 7.85616 1.51884C8.34844 2.01113 8.625 2.67881 8.625 3.375V10.5938C8.625 11.2899 8.34844 11.9576 7.85616 12.4499C7.36387 12.9422 6.69619 13.2188 6 13.2188Z" stroke="#535353" stroke-width="1.5" stroke-linecap="round" stroke-linejoin="round"/>
</svg>
