<svg width="18" height="18" viewBox="0 0 18 18" fill="none" xmlns="http://www.w3.org/2000/svg">
<path d="M11.325 13.2693C13.0044 13.0732 14.6543 12.6823 16.2408 12.1047C14.8973 10.6367 14.1549 8.72858 14.1578 6.75094V6.08417C14.1578 4.66946 13.5881 3.31269 12.5739 2.31234C11.5598 1.31199 10.1842 0.75 8.75 0.75C7.31575 0.75 5.94025 1.31199 4.92608 2.31234C3.91191 3.31269 3.34216 4.66946 3.34216 6.08417V6.75094C3.34488 8.7287 2.60217 10.6368 1.25834 12.1047C2.8203 12.6736 4.46699 13.0693 6.17497 13.2693M11.325 13.2693C9.61434 13.4694 7.88566 13.4694 6.17497 13.2693M11.325 13.2693C11.4549 13.6692 11.4872 14.0938 11.4193 14.5084C11.3514 14.9229 11.1852 15.3158 10.9342 15.6551C10.6832 15.9943 10.3546 16.2703 9.97505 16.4606C9.5955 16.6508 9.17576 16.75 8.75 16.75C8.32424 16.75 7.9045 16.6508 7.52495 16.4606C7.1454 16.2703 6.81676 15.9943 6.56579 15.6551C6.31482 15.3158 6.14862 14.9229 6.0807 14.5084C6.01279 14.0938 6.04508 13.6692 6.17497 13.2693M0.75 4.75063C1.00414 3.26148 1.68177 1.87413 2.70403 0.75M14.796 0.75C15.8182 1.87413 16.4959 3.26148 16.75 4.75063" stroke="#505050" stroke-width="1.5" stroke-linecap="round" stroke-linejoin="round"/>
</svg>
