<svg width="20" height="20" viewBox="0 0 20 20" fill="none" xmlns="http://www.w3.org/2000/svg">
<path d="M16.3333 6V8.66666M16.3333 8.66666V11.3333M16.3333 8.66666H19M16.3333 8.66666H13.6667M11.6667 5C11.6667 5.79565 11.3506 6.55871 10.788 7.12132C10.2254 7.68392 9.46232 7.99999 8.66667 7.99999C7.87102 7.99999 7.10796 7.68392 6.54535 7.12132C5.98274 6.55871 5.66667 5.79565 5.66667 5C5.66667 4.20435 5.98274 3.44129 6.54535 2.87868C7.10796 2.31607 7.87102 2 8.66667 2C9.46232 2 10.2254 2.31607 10.788 2.87868C11.3506 3.44129 11.6667 4.20435 11.6667 5ZM3 16.4311V16.3333C3 14.8304 3.59702 13.3891 4.65973 12.3264C5.72243 11.2637 7.16377 10.6667 8.66667 10.6667C10.1696 10.6667 11.6109 11.2637 12.6736 12.3264C13.7363 13.3891 14.3333 14.8304 14.3333 16.3333V16.4302C12.6226 17.4605 10.6628 18.0034 8.66578 18C6.59378 18 4.65511 17.4267 3 16.4302V16.4311Z" stroke="#505050" stroke-width="1.5" stroke-linecap="round" stroke-linejoin="round"/>
</svg>
