<svg width="25" height="25" viewBox="0 0 25 25" fill="none" xmlns="http://www.w3.org/2000/svg">
<path d="M15.6249 19.925C16.5135 20.183 17.4341 20.3134 18.3593 20.3125C19.8472 20.3147 21.3158 19.9754 22.652 19.3208C22.6915 18.3872 22.4256 17.4661 21.8945 16.6972C21.3634 15.9283 20.5962 15.3535 19.709 15.0599C18.8218 14.7663 17.8632 14.7699 16.9782 15.0702C16.0933 15.3705 15.3304 15.9511 14.8052 16.724M15.6249 19.925V19.9219C15.6249 18.7625 15.327 17.6719 14.8052 16.724M15.6249 19.925V20.0354C13.6202 21.2428 11.3235 21.8789 8.98328 21.875C6.55515 21.875 4.28328 21.2031 2.34369 20.0354L2.34265 19.9219C2.34185 18.4474 2.83183 17.0145 3.73534 15.8492C4.63885 14.684 5.9045 13.8525 7.33274 13.486C8.76099 13.1195 10.2706 13.2388 11.6236 13.8251C12.9765 14.4114 14.0959 15.4312 14.8052 16.724M12.4999 6.64063C12.4999 7.57303 12.1295 8.46724 11.4702 9.12655C10.8109 9.78586 9.91672 10.1563 8.98432 10.1563C8.05192 10.1563 7.1577 9.78586 6.4984 9.12655C5.83909 8.46724 5.46869 7.57303 5.46869 6.64063C5.46869 5.70822 5.83909 4.81401 6.4984 4.1547C7.1577 3.4954 8.05192 3.125 8.98432 3.125C9.91672 3.125 10.8109 3.4954 11.4702 4.1547C12.1295 4.81401 12.4999 5.70822 12.4999 6.64063ZM21.0937 8.98438C21.0937 9.70958 20.8056 10.4051 20.2928 10.9179C19.78 11.4307 19.0845 11.7188 18.3593 11.7188C17.6341 11.7188 16.9386 11.4307 16.4258 10.9179C15.913 10.4051 15.6249 9.70958 15.6249 8.98438C15.6249 8.25917 15.913 7.56367 16.4258 7.05088C16.9386 6.53809 17.6341 6.25 18.3593 6.25C19.0845 6.25 19.78 6.53809 20.2928 7.05088C20.8056 7.56367 21.0937 8.25917 21.0937 8.98438Z" stroke="black" stroke-width="1.5" stroke-linecap="round" stroke-linejoin="round"/>
</svg>
