<svg width="155" height="117" viewBox="0 0 155 117" fill="none" xmlns="http://www.w3.org/2000/svg">
<path d="M155.005 -2.47559H-5.92102V119.863H155.005V-2.47559Z" fill="#F1FAEE"/>
<path opacity="0.09" d="M1.61011 95.0988V117H155.005V59.7651C137.024 60.1797 119.118 62.0161 102.624 65.1233C64.3198 72.1358 29.6048 82.1741 1.61011 95.0988Z" fill="#457B9D"/>
<path opacity="0.09" d="M6.19263 0.387695C32.7401 20.3171 89.2377 32.3972 143.466 29.6038C147.4 29.3946 151.237 29.0963 155.005 28.7243V0.387695H6.19263Z" fill="#457B9D"/>
<path d="M121.865 8.33381C121.597 8.33381 121.38 8.11685 121.38 7.84952C121.38 7.5822 121.597 7.36523 121.865 7.36523C122.133 7.36523 122.35 7.5822 122.35 7.84952C122.35 8.11685 122.133 8.33381 121.865 8.33381Z" fill="#A8DADC"/>
<path d="M121.865 14.6717C121.597 14.6717 121.38 14.4547 121.38 14.1874C121.38 13.9201 121.597 13.7031 121.865 13.7031C122.133 13.7031 122.35 13.9201 122.35 14.1874C122.35 14.4547 122.133 14.6717 121.865 14.6717Z" fill="#A8DADC"/>
<path d="M121.865 21.0106C121.597 21.0106 121.38 20.7936 121.38 20.5263C121.38 20.259 121.597 20.042 121.865 20.042C122.133 20.042 122.35 20.259 122.35 20.5263C122.35 20.7936 122.133 21.0106 121.865 21.0106Z" fill="#A8DADC"/>
<path d="M121.865 27.3485C121.597 27.3485 121.38 27.1315 121.38 26.8642C121.38 26.5968 121.597 26.3799 121.865 26.3799C122.133 26.3799 122.35 26.5968 122.35 26.8642C122.35 27.1315 122.133 27.3485 121.865 27.3485Z" fill="#A8DADC"/>
<path d="M115.576 8.33381C115.308 8.33381 115.091 8.11685 115.091 7.84952C115.091 7.5822 115.308 7.36523 115.576 7.36523C115.843 7.36523 116.061 7.5822 116.061 7.84952C116.061 8.11685 115.843 8.33381 115.576 8.33381Z" fill="#A8DADC"/>
<path d="M115.576 14.6717C115.308 14.6717 115.091 14.4547 115.091 14.1874C115.091 13.9201 115.308 13.7031 115.576 13.7031C115.843 13.7031 116.061 13.9201 116.061 14.1874C116.061 14.4547 115.843 14.6717 115.576 14.6717Z" fill="#A8DADC"/>
<path d="M115.578 21.0065C115.846 21.0041 116.061 20.7852 116.059 20.5178C116.056 20.2503 115.837 20.0355 115.569 20.038C115.302 20.0405 115.086 20.2593 115.089 20.5267C115.091 20.7942 115.311 21.009 115.578 21.0065Z" fill="#A8DADC"/>
<path d="M115.576 27.3485C115.308 27.3485 115.091 27.1315 115.091 26.8642C115.091 26.5968 115.308 26.3799 115.576 26.3799C115.843 26.3799 116.061 26.5968 116.061 26.8642C116.061 27.1315 115.843 27.3485 115.576 27.3485Z" fill="#A8DADC"/>
<path d="M109.282 8.33381C109.014 8.33381 108.797 8.11685 108.797 7.84952C108.797 7.5822 109.014 7.36523 109.282 7.36523C109.55 7.36523 109.767 7.5822 109.767 7.84952C109.767 8.11685 109.55 8.33381 109.282 8.33381Z" fill="#A8DADC"/>
<path d="M109.282 14.6717C109.014 14.6717 108.797 14.4547 108.797 14.1874C108.797 13.9201 109.014 13.7031 109.282 13.7031C109.55 13.7031 109.767 13.9201 109.767 14.1874C109.767 14.4547 109.55 14.6717 109.282 14.6717Z" fill="#A8DADC"/>
<path d="M109.282 21.0106C109.014 21.0106 108.797 20.7936 108.797 20.5263C108.797 20.259 109.014 20.042 109.282 20.042C109.55 20.042 109.767 20.259 109.767 20.5263C109.767 20.7936 109.55 21.0106 109.282 21.0106Z" fill="#A8DADC"/>
<path d="M109.282 27.3485C109.014 27.3485 108.797 27.1315 108.797 26.8642C108.797 26.5968 109.014 26.3799 109.282 26.3799C109.55 26.3799 109.767 26.5968 109.767 26.8642C109.767 27.1315 109.55 27.3485 109.282 27.3485Z" fill="#A8DADC"/>
<path d="M102.989 8.33381C102.721 8.33381 102.504 8.11685 102.504 7.84952C102.504 7.5822 102.721 7.36523 102.989 7.36523C103.256 7.36523 103.474 7.5822 103.474 7.84952C103.474 8.11685 103.256 8.33381 102.989 8.33381Z" fill="#A8DADC"/>
<path d="M102.989 14.6717C102.721 14.6717 102.504 14.4547 102.504 14.1874C102.504 13.9201 102.721 13.7031 102.989 13.7031C103.256 13.7031 103.474 13.9201 103.474 14.1874C103.474 14.4547 103.256 14.6717 102.989 14.6717Z" fill="#A8DADC"/>
<path d="M102.989 21.0106C102.721 21.0106 102.504 20.7936 102.504 20.5263C102.504 20.259 102.721 20.042 102.989 20.042C103.256 20.042 103.474 20.259 103.474 20.5263C103.474 20.7936 103.256 21.0106 102.989 21.0106Z" fill="#A8DADC"/>
<path d="M102.989 27.3485C102.721 27.3485 102.504 27.1315 102.504 26.8642C102.504 26.5968 102.721 26.3799 102.989 26.3799C103.256 26.3799 103.474 26.5968 103.474 26.8642C103.474 27.1315 103.256 27.3485 102.989 27.3485Z" fill="#A8DADC"/>
<path d="M41.5088 81.2673C41.7146 81.2673 41.8813 81.1008 41.8813 80.8954C41.8813 80.69 41.7146 80.5234 41.5088 80.5234C41.3031 80.5234 41.1364 80.69 41.1364 80.8954C41.1364 81.1008 41.3031 81.2673 41.5088 81.2673Z" fill="#A8DADC"/>
<path d="M36.6355 81.2673C36.8413 81.2673 37.008 81.1008 37.008 80.8954C37.008 80.69 36.8413 80.5234 36.6355 80.5234C36.4298 80.5234 36.2631 80.69 36.2631 80.8954C36.2631 81.1008 36.4298 81.2673 36.6355 81.2673Z" fill="#A8DADC"/>
<path d="M41.5088 76.4397C41.7146 76.4397 41.8813 76.2731 41.8813 76.0677C41.8813 75.8623 41.7146 75.6958 41.5088 75.6958C41.3031 75.6958 41.1364 75.8623 41.1364 76.0677C41.1364 76.2731 41.3031 76.4397 41.5088 76.4397Z" fill="#A8DADC"/>
<path d="M36.6355 76.4397C36.8413 76.4397 37.008 76.2731 37.008 76.0677C37.008 75.8623 36.8413 75.6958 36.6355 75.6958C36.4298 75.6958 36.2631 75.8623 36.2631 76.0677C36.2631 76.2731 36.4298 76.4397 36.6355 76.4397Z" fill="#A8DADC"/>
<path d="M41.5088 71.6125C41.7146 71.6125 41.8813 71.446 41.8813 71.2406C41.8813 71.0352 41.7146 70.8687 41.5088 70.8687C41.3031 70.8687 41.1364 71.0352 41.1364 71.2406C41.1364 71.446 41.3031 71.6125 41.5088 71.6125Z" fill="#A8DADC"/>
<path d="M36.6355 71.6125C36.8413 71.6125 37.008 71.446 37.008 71.2406C37.008 71.0352 36.8413 70.8687 36.6355 70.8687C36.4298 70.8687 36.2631 71.0352 36.2631 71.2406C36.2631 71.446 36.4298 71.6125 36.6355 71.6125Z" fill="#A8DADC"/>
<path d="M41.5088 66.7893C41.7146 66.7893 41.8813 66.6228 41.8813 66.4173C41.8813 66.2119 41.7146 66.0454 41.5088 66.0454C41.3031 66.0454 41.1364 66.2119 41.1364 66.4173C41.1364 66.6228 41.3031 66.7893 41.5088 66.7893Z" fill="#A8DADC"/>
<path d="M36.6355 66.7893C36.8413 66.7893 37.008 66.6228 37.008 66.4173C37.008 66.2119 36.8413 66.0454 36.6355 66.0454C36.4298 66.0454 36.2631 66.2119 36.2631 66.4173C36.2631 66.6228 36.4298 66.7893 36.6355 66.7893Z" fill="#A8DADC"/>
<path d="M41.1364 61.5897C41.1364 61.3844 41.3032 61.2178 41.5088 61.2178C41.7145 61.2178 41.8813 61.3844 41.8813 61.5897C41.8813 61.795 41.7145 61.9616 41.5088 61.9616C41.3032 61.9616 41.1364 61.795 41.1364 61.5897Z" fill="#A8DADC"/>
<path d="M36.2592 61.5897C36.2592 61.3844 36.426 61.2178 36.6316 61.2178C36.8373 61.2178 37.0041 61.3844 37.0041 61.5897C37.0041 61.795 36.8373 61.9616 36.6316 61.9616C36.426 61.9616 36.2592 61.795 36.2592 61.5897Z" fill="#A8DADC"/>
<path d="M41.5088 57.134C41.7146 57.134 41.8813 56.9675 41.8813 56.7621C41.8813 56.5567 41.7146 56.3901 41.5088 56.3901C41.3031 56.3901 41.1364 56.5567 41.1364 56.7621C41.1364 56.9675 41.3031 57.134 41.5088 57.134Z" fill="#A8DADC"/>
<path d="M36.6355 57.134C36.8413 57.134 37.008 56.9675 37.008 56.7621C37.008 56.5567 36.8413 56.3901 36.6355 56.3901C36.4298 56.3901 36.2631 56.5567 36.2631 56.7621C36.2631 56.9675 36.4298 57.134 36.6355 57.134Z" fill="#A8DADC"/>
<path d="M41.1364 51.9349C41.1364 51.7296 41.3032 51.563 41.5088 51.563C41.7145 51.563 41.8813 51.7296 41.8813 51.9349C41.8813 52.1403 41.7145 52.3069 41.5088 52.3069C41.3032 52.3069 41.1364 52.1403 41.1364 51.9349Z" fill="#A8DADC"/>
<path d="M36.2592 51.9349C36.2592 51.7296 36.426 51.563 36.6316 51.563C36.8373 51.563 37.0041 51.7296 37.0041 51.9349C37.0041 52.1403 36.8373 52.3069 36.6316 52.3069C36.426 52.3069 36.2592 52.1403 36.2592 51.9349Z" fill="#A8DADC"/>
<path d="M144.893 39.2546C140.412 34.0475 134.409 29.6928 127.561 29.0458C120.717 28.4027 113.178 32.4513 111.563 39.1229C112.793 37.4995 115.013 36.837 117.038 37.0772C119.064 37.3174 120.918 38.3325 122.567 39.5335C127.592 43.1948 131.069 48.6226 133.598 54.2946C136.128 59.9666 137.82 65.9718 140.008 71.7871C140.978 74.3596 142.088 76.9632 144.005 78.9313C146.379 81.3682 150.678 82.8134 153.472 80.1982C155.447 78.3463 156.281 76.0721 156.285 73.4453C156.293 69.6252 156.25 65.871 155.594 62.0936C154.904 58.1379 153.72 54.2636 152.075 50.5985C150.236 46.4995 147.823 42.6601 144.889 39.2546H144.893Z" fill="#50B2B5"/>
<path d="M128.155 41.7104C135.709 51.8882 139.861 62.8564 145.033 74.7815C147 78.8185 150.224 80.1474 153.697 79.9769C153.623 80.0505 153.55 80.1241 153.472 80.1977C150.678 82.8167 146.379 81.3678 144.005 78.9308C142.084 76.9588 140.974 74.3591 140.008 71.7866C137.82 65.9752 136.128 59.97 133.598 54.2941C131.069 48.6222 127.592 43.1943 122.567 39.5331C120.918 38.332 119.064 37.317 117.038 37.0768C115.013 36.8365 112.793 37.4952 111.563 39.1224C111.723 38.4638 111.944 37.8322 112.211 37.224C117.407 33.617 124.612 36.5382 128.155 41.7104Z" fill="#459A9D"/>
<path d="M126.37 35.3647C129.846 35.2988 133.183 36.6239 135.957 38.6579C139.089 40.9553 141.421 44.1361 143.236 47.53C145.262 51.3075 146.802 55.36 148.249 59.3854C149.774 63.62 151.105 67.9243 152.238 72.279C153.367 76.6144 154.302 81.004 155.04 85.4207C155.133 85.967 155.218 86.5171 155.303 87.0673C155.342 87.3152 154.954 87.3423 154.915 87.0944C154.233 82.7009 153.356 78.3385 152.281 74.0225C151.218 69.7453 149.964 65.5145 148.525 61.3458C147.132 57.3126 145.63 53.2756 143.768 49.4284C142.069 45.9183 139.931 42.5205 136.951 39.948C134.363 37.7125 131.154 36.0776 127.708 35.787C127.27 35.7483 126.831 35.7405 126.389 35.7483C126.141 35.7521 126.11 35.3647 126.362 35.3608L126.37 35.3647Z" fill="#1D3557"/>
<path d="M129.396 38.5491C131.62 38.1733 133.905 38.3476 136.051 39.0256L132.698 33.6171C132.566 33.404 132.884 33.1832 133.016 33.3963C134.227 35.3489 135.438 37.3054 136.652 39.2581C136.761 39.4324 136.586 39.6068 136.408 39.5409C134.177 38.7428 131.759 38.5375 129.423 38.9326C129.179 38.9752 129.152 38.5878 129.396 38.5452V38.5491Z" fill="#1D3557"/>
<path d="M138.445 49.2074C141.106 50.9741 143.566 53.0469 145.751 55.3753C146.232 55.8906 146.698 56.4175 147.152 56.956C147.004 53.9108 146.515 50.8889 145.677 47.956C145.425 47.0727 145.142 46.1971 144.827 45.3331C144.742 45.0968 145.107 44.969 145.192 45.2014C146.298 48.266 147.035 51.4623 147.373 54.7012C147.47 55.631 147.532 56.5647 147.563 57.4985C147.571 57.6999 147.33 57.7696 147.21 57.6224C145.196 55.1816 142.903 52.9771 140.385 51.0594C139.671 50.517 138.937 49.9939 138.189 49.498C137.979 49.3585 138.235 49.068 138.441 49.2036L138.445 49.2074Z" fill="#1D3557"/>
<path d="M144.781 65.0145C147.198 66.7308 149.328 68.8384 151.07 71.2328C151.458 71.7674 151.823 72.3253 152.172 72.8871C152.615 69.2917 152.743 65.6615 152.545 62.0429C152.529 61.795 152.917 61.764 152.933 62.0158C153.142 65.8475 152.995 69.6947 152.491 73.4953C152.471 73.6581 152.223 73.7084 152.141 73.569C150.64 71.0352 148.731 68.7571 146.492 66.8393C145.863 66.3008 145.208 65.7894 144.529 65.309C144.327 65.1656 144.579 64.8712 144.781 65.0145Z" fill="#1D3557"/>
<path d="M129.598 66.452C123.875 65.3789 116.324 66.8898 112.708 72.4921C112.786 67.7654 116.414 63.5734 120.899 61.7719C122.261 61.6595 123.619 61.737 124.958 62.047C125.726 62.2252 126.04 61.0396 125.268 60.8614C125.194 60.8459 125.117 60.8304 125.043 60.8149C128.647 60.5011 132.291 61.3573 135.666 62.8606C136.796 63.8873 137.789 65.065 138.565 66.3784C138.968 67.0603 140.028 66.4404 139.624 65.7585C139.356 65.3053 139.058 64.8636 138.743 64.4374C139.069 64.6273 139.391 64.821 139.71 65.0186C141.906 66.3978 143.954 68.0056 145.836 69.7878C146.965 71.7986 147.757 74.0379 148.521 76.1533C148.789 76.8933 149.976 76.5795 149.708 75.8395C149.317 74.7508 148.913 73.635 148.471 72.5308C150.671 75.053 152.56 77.8425 154.081 80.8218C155.56 83.7121 156.53 86.7418 157.48 89.8296C158.132 91.9527 158.027 94.0061 156.894 95.9936C156.879 96.0207 156.863 96.044 156.848 96.0672C150.17 83.991 143.45 69.8731 129.602 66.4482L129.598 66.452Z" fill="#459A9D"/>
<path d="M129.598 66.4522C143.446 69.8771 150.166 83.995 156.844 96.0712C155.214 98.8065 151.423 98.7019 148.917 97.3343C147.054 96.3192 145.607 94.7114 144.284 93.0454C145.747 93.3166 147.186 93.735 148.587 94.2309C149.332 94.4944 149.639 93.3089 148.898 93.0454C147.047 92.3868 145.153 91.8947 143.202 91.6429C141.793 89.7871 140.439 87.8926 139.065 86.0135C139.997 86.2228 140.916 86.4823 141.813 86.7652C142.569 87.0015 142.876 85.816 142.123 85.5796C140.78 85.1573 139.391 84.7931 137.979 84.5568C136.811 82.9993 135.612 81.4729 134.332 80.0084C132.566 77.9899 130.615 76.0876 128.469 74.4798C129.804 74.3519 131.146 74.3364 132.489 74.4371C133.28 74.4953 133.272 73.2671 132.489 73.209C130.634 73.0734 128.822 73.1896 127.026 73.4608C125.369 72.3683 123.599 71.4617 121.714 70.8185C121.621 70.7875 121.524 70.7566 121.427 70.7256C121.648 70.6519 121.865 70.5783 122.086 70.5047C122.401 70.4001 122.614 70.0902 122.521 69.7531C122.439 69.447 122.086 69.2146 121.768 69.3192C120.957 69.5865 120.131 69.8693 119.335 70.2103C118.435 70.0708 117.523 70.0437 116.627 70.2103C114.928 70.5202 113.298 71.6089 112.712 73.2284C112.696 72.9804 112.693 72.7363 112.696 72.4884C116.313 66.8861 123.863 65.3751 129.586 66.4483L129.598 66.4522Z" fill="#50B2B5"/>
<path d="M123.759 66.4983C126.556 65.5801 129.583 65.8165 132.337 66.7695C135.445 67.8466 138.126 69.838 140.447 72.1277C143.031 74.677 145.289 77.5711 147.466 80.4652C149.759 83.5104 151.912 86.6602 153.918 89.8991C155.917 93.1225 157.771 96.4389 159.471 99.8289C159.68 100.251 159.89 100.67 160.095 101.092C160.189 101.282 159.882 101.402 159.789 101.212C158.136 97.8298 156.336 94.5212 154.388 91.2977C152.456 88.1053 150.384 84.9942 148.18 81.9839C146.046 79.0666 143.819 76.1763 141.355 73.5341C139.1 71.1165 136.524 68.9043 133.47 67.5676C130.816 66.4054 127.813 65.8823 124.954 66.5061C124.589 66.5874 124.232 66.6882 123.879 66.8044C123.677 66.8703 123.557 66.5642 123.759 66.4983Z" fill="#1D3557"/>
<path d="M126.998 68.3194C128.702 67.4593 130.595 67.0331 132.5 67.0447C131.146 65.8669 129.792 64.6853 128.438 63.5075C128.279 63.368 128.481 63.1123 128.64 63.2518C130.106 64.5303 131.577 65.8088 133.044 67.0874C133.176 67.1997 133.079 67.3857 132.916 67.3779C130.91 67.2888 128.907 67.7266 127.115 68.6254C126.925 68.7223 126.808 68.4162 126.995 68.3194H126.998Z" fill="#1D3557"/>
<path d="M136.986 74.6808C139.582 75.444 142.088 76.5095 144.439 77.8461C144.959 78.1406 145.468 78.4544 145.968 78.7759C145.087 76.3506 143.935 74.026 142.526 71.8642C142.1 71.2133 141.653 70.5779 141.184 69.9542C141.056 69.7837 141.32 69.59 141.448 69.7566C143.109 71.9572 144.501 74.3592 145.588 76.8969C145.898 77.6253 146.182 78.3614 146.441 79.1091C146.496 79.268 146.321 79.3842 146.185 79.299C143.947 77.8267 141.541 76.6141 139.023 75.692C138.309 75.4285 137.583 75.1922 136.854 74.9791C136.652 74.921 136.784 74.6188 136.986 74.6769V74.6808Z" fill="#1D3557"/>
<path d="M146.065 85.8856C148.447 86.6682 150.698 87.8421 152.708 89.3492C153.158 89.6863 153.589 90.0427 154.011 90.4108C153.472 87.3927 152.665 84.425 151.598 81.5464C151.524 81.3488 151.831 81.2287 151.905 81.4263C153.034 84.4715 153.876 87.6213 154.419 90.8215C154.442 90.9571 154.256 91.0617 154.155 90.9687C152.308 89.295 150.193 87.9274 147.904 86.9355C147.26 86.6566 146.601 86.4086 145.933 86.1878C145.731 86.1219 145.863 85.8197 146.065 85.8856Z" fill="#1D3557"/>
<path d="M147.342 27.12C142.379 24.0787 134.786 22.8002 129.404 26.7442C131.166 22.3547 136.054 19.7356 140.889 19.6504C142.201 20.0301 143.442 20.588 144.583 21.3551C145.239 21.7968 145.956 20.8011 145.297 20.3594C145.235 20.3168 145.169 20.278 145.103 20.2354C148.579 21.2272 151.68 23.3271 154.295 25.9345C154.981 27.2944 155.486 28.7511 155.742 30.2544C155.874 31.0331 157.084 30.8316 156.953 30.0568C156.863 29.5376 156.747 29.0184 156.603 28.507C156.84 28.8015 157.069 29.0959 157.294 29.3943C158.854 31.4631 160.192 33.6986 161.31 36.0348C161.647 38.3168 161.585 40.6878 161.543 42.9388C161.527 43.7253 162.749 43.857 162.765 43.0667C162.788 41.9082 162.811 40.7227 162.792 39.5333C163.944 42.6715 164.713 45.953 165.07 49.2772C165.415 52.5045 165.24 55.6775 165.023 58.9048C164.876 61.1209 164.041 62.9999 162.272 64.4528C162.249 64.4722 162.226 64.4877 162.202 64.507C160.282 50.8463 159.052 35.2638 147.342 27.1278V27.12Z" fill="#459A9D"/>
<path d="M147.342 27.1198C159.052 35.2559 160.282 50.8422 162.202 64.4991C159.704 66.475 156.2 65.0221 154.345 62.8525C152.968 61.2408 152.188 59.2223 151.552 57.1921C152.82 57.967 154.015 58.8697 155.148 59.8344C155.75 60.3497 156.46 59.3463 155.862 58.8387C154.369 57.5641 152.774 56.4289 151.043 55.4991C150.391 53.2636 149.806 51.0126 149.189 48.7655C149.984 49.2924 150.752 49.862 151.49 50.447C152.11 50.939 152.824 49.9395 152.203 49.4513C151.102 48.5796 149.934 47.7427 148.7 47.0182C148.164 45.1508 147.594 43.295 146.919 41.4702C145.991 38.9558 144.847 36.484 143.419 34.2175C144.711 34.574 145.972 35.0389 147.19 35.6123C147.908 35.9494 148.339 34.7987 147.629 34.4655C145.949 33.6751 144.211 33.1405 142.437 32.7531C141.277 31.1413 139.95 29.6652 138.421 28.3906C138.344 28.3286 138.266 28.2666 138.189 28.2046C138.421 28.2124 138.654 28.224 138.883 28.2356C139.217 28.2511 139.523 28.038 139.558 27.6893C139.593 27.3755 139.345 27.0307 139.011 27.0152C138.158 26.9765 137.285 26.9455 136.419 26.9803C135.628 26.5271 134.786 26.1784 133.89 26.0118C132.194 25.698 130.281 26.1319 129.152 27.4375C129.226 27.2012 129.311 26.9687 129.404 26.744C134.786 22.8 142.379 24.0785 147.342 27.1198Z" fill="#50B2B5"/>
<path d="M141.867 25.0821C144.808 25.2216 147.551 26.5234 149.782 28.3947C152.3 30.5062 154.093 33.3228 155.439 36.2905C156.941 39.5914 158.016 43.1015 159.017 46.5806C160.068 50.2418 160.953 53.9496 161.671 57.6921C162.385 61.4153 162.932 65.1734 163.308 68.947C163.355 69.4158 163.397 69.8845 163.44 70.3533C163.46 70.5625 163.13 70.5664 163.11 70.3533C162.777 66.603 162.276 62.8721 161.609 59.1682C160.949 55.4954 160.123 51.8536 159.141 48.2543C158.19 44.7713 157.143 41.2767 155.785 37.9254C154.543 34.8647 152.925 31.8777 150.554 29.5415C148.494 27.5113 145.871 25.95 142.977 25.5161C142.608 25.4618 142.236 25.4269 141.867 25.4076C141.657 25.396 141.654 25.0705 141.867 25.0783V25.0821Z" fill="#1D3557"/>
<path d="M144.245 27.9374C146.147 27.7437 148.063 28.0188 149.841 28.7084C148.999 27.1238 148.153 25.5392 147.311 23.9546C147.21 23.7687 147.493 23.5982 147.594 23.788C148.51 25.5043 149.421 27.2245 150.337 28.9408C150.419 29.0958 150.263 29.2314 150.116 29.1656C148.277 28.3674 146.248 28.0614 144.253 28.2667C144.044 28.29 144.04 27.9606 144.253 27.9374H144.245Z" fill="#1D3557"/>
<path d="M151.295 37.4412C153.449 39.08 155.408 40.9668 157.123 43.055C157.504 43.5161 157.864 43.9888 158.221 44.4692C158.264 41.8889 158.02 39.3086 157.476 36.7864C157.313 36.0271 157.119 35.2716 156.906 34.5238C156.848 34.3224 157.162 34.2294 157.22 34.4347C157.985 37.0847 158.427 39.8239 158.536 42.5785C158.567 43.3689 158.567 44.1592 158.543 44.9496C158.54 45.1201 158.334 45.1665 158.237 45.0348C156.673 42.8613 154.857 40.8699 152.836 39.1149C152.262 38.6151 151.672 38.1347 151.067 37.6736C150.9 37.5458 151.129 37.3133 151.295 37.4412Z" fill="#1D3557"/>
<path opacity="0.29" d="M47.1001 93.4286C47.8024 97.0976 51.8261 99.1006 55.5005 99.8212C59.1749 100.542 63.1597 100.608 66.2444 102.723C68.553 104.308 70.0197 106.826 71.9869 108.813C75.9523 112.816 81.8229 114.466 87.4606 114.458C93.0983 114.451 98.6197 112.963 104.06 111.483C107.311 110.6 111.195 109.019 111.54 105.671C111.827 102.897 109.259 100.53 106.551 99.8406C103.846 99.1509 101.002 99.6391 98.2123 99.7437C95.4225 99.8483 92.3572 99.4376 90.4327 97.4191C88.1901 95.0636 88.2521 91.3791 86.898 88.423C83.856 81.798 75.5837 80.7751 69.2126 81.8057C66.4384 82.2551 63.6719 82.4798 60.8783 82.7704C58.17 83.0532 55.5703 83.8591 53.056 84.8858C49.7075 86.2534 46.3358 89.4613 47.0962 93.4286H47.1001Z" fill="#457B9D"/>
<path d="M103.807 99.4148C103.594 99.2482 103.52 99.1785 103.52 99.1785L102.923 94.6494L97.8552 96.0403L98.7826 99.0467C100.296 99.4264 102.286 99.9456 103.803 99.4187L103.807 99.4148Z" fill="#FFC9B9"/>
<path d="M100.416 106.249C103.637 107.531 106.915 108.666 110.24 109.65C110.722 109.794 111.218 109.933 111.723 109.898C112.223 109.864 112.743 109.616 112.96 109.162C113.224 108.616 112.976 107.93 112.534 107.512C112.091 107.093 111.498 106.88 110.923 106.679C110.788 106.679 110.59 106.563 110.462 106.516C110.295 106.458 110.132 106.4 109.965 106.342C109.627 106.226 109.294 106.105 108.956 105.989C108.297 105.757 107.633 105.528 106.973 105.296C105.646 104.831 104.319 104.366 102.993 103.901C102.325 103.669 101.662 103.436 100.994 103.2C100.393 102.991 99.7915 102.739 99.1706 102.58C98.8137 102.487 98.352 102.413 98.0338 102.657C97.6574 102.944 97.6497 103.548 97.7273 103.967C97.9407 105.09 99.0736 105.691 100.032 106.098C100.156 106.152 100.28 106.202 100.408 106.249H100.416Z" fill="#1D3557"/>
<path d="M103.807 99.4144C102.29 99.9413 100.3 99.4222 98.7864 99.0425L98.8291 99.1781C98.8291 99.1781 98.3868 100.352 98.0996 101.929C97.8474 103.312 98.6506 104.672 99.9737 105.145L111.28 109.201C112.289 109.565 113.286 108.639 113.003 107.605C112.611 106.16 104.331 99.8251 103.807 99.4183V99.4144Z" fill="#457B9D"/>
<path d="M106.415 101.185C105.371 101.173 104.358 101.681 103.769 102.549C103.609 102.781 103.963 103.041 104.122 102.804C104.618 102.076 105.476 101.607 106.364 101.615C106.481 101.615 106.593 101.549 106.605 101.421C106.616 101.313 106.531 101.181 106.411 101.181L106.415 101.185Z" fill="#1D3557"/>
<path d="M107.618 102.041C106.574 102.029 105.561 102.537 104.971 103.405C104.812 103.637 105.165 103.897 105.324 103.66C105.821 102.932 106.679 102.463 107.567 102.471C107.684 102.471 107.796 102.405 107.808 102.277C107.819 102.169 107.734 102.037 107.614 102.037L107.618 102.041Z" fill="#1D3557"/>
<path d="M108.824 102.897C107.781 102.886 106.768 103.393 106.178 104.261C106.019 104.494 106.372 104.753 106.531 104.517C107.028 103.789 107.885 103.32 108.774 103.327C108.89 103.327 109.003 103.262 109.014 103.134C109.026 103.025 108.941 102.894 108.82 102.894L108.824 102.897Z" fill="#1D3557"/>
<path d="M94.1382 102.355C93.9248 102.189 93.8511 102.119 93.8511 102.119L93.2535 97.5898L88.1862 98.9807L89.1135 101.987C90.6267 102.367 92.6172 102.886 94.1343 102.359L94.1382 102.355Z" fill="#FFC9B9"/>
<path d="M90.747 109.19C93.9674 110.472 97.2461 111.607 100.571 112.587C101.052 112.731 101.549 112.87 102.053 112.835C102.554 112.801 103.074 112.553 103.291 112.099C103.555 111.553 103.307 110.867 102.864 110.449C102.422 110.03 101.828 109.817 101.254 109.616C101.118 109.616 100.92 109.5 100.792 109.453C100.626 109.395 100.463 109.337 100.296 109.279C99.9582 109.163 99.6245 109.042 99.287 108.926C98.6274 108.694 97.9639 108.465 97.3043 108.233C95.9773 107.768 94.6503 107.303 93.3233 106.838C92.6559 106.606 91.9925 106.373 91.3251 106.137C90.7237 105.928 90.1223 105.676 89.5015 105.517C89.1445 105.424 88.6828 105.35 88.3646 105.594C87.9882 105.881 87.9805 106.485 88.0581 106.904C88.2715 108.027 89.4044 108.632 90.3628 109.035C90.487 109.089 90.6112 109.139 90.7392 109.19H90.747Z" fill="#1D3557"/>
<path d="M94.1381 102.355C92.621 102.882 90.6306 102.363 89.1173 101.983L89.16 102.119C89.16 102.119 88.7177 103.293 88.4306 104.87C88.1784 106.253 88.9815 107.613 90.3046 108.085L101.611 112.142C102.62 112.506 103.617 111.58 103.334 110.546C102.942 109.1 94.662 102.766 94.1381 102.359V102.355Z" fill="#457B9D"/>
<path d="M96.7457 104.125C95.7019 104.114 94.6892 104.621 94.0995 105.489C93.9404 105.722 94.2935 105.981 94.4525 105.745C94.9492 105.017 95.8067 104.548 96.6952 104.556C96.8116 104.556 96.9241 104.49 96.9358 104.362C96.9474 104.253 96.8621 104.122 96.7418 104.122L96.7457 104.125Z" fill="#1D3557"/>
<path d="M97.9523 104.982C96.9086 104.97 95.8959 105.478 95.3061 106.346C95.147 106.578 95.5001 106.838 95.6592 106.601C96.1558 105.873 97.0133 105.404 97.9019 105.412C98.0183 105.412 98.1308 105.346 98.1425 105.218C98.1541 105.11 98.0687 104.978 97.9484 104.978L97.9523 104.982Z" fill="#1D3557"/>
<path d="M99.1551 105.838C98.1114 105.827 97.0986 106.334 96.5089 107.202C96.3498 107.435 96.7029 107.694 96.862 107.458C97.3586 106.729 98.2161 106.261 99.1046 106.268C99.221 106.268 99.3336 106.203 99.3452 106.075C99.3568 105.966 99.2715 105.834 99.1512 105.834L99.1551 105.838Z" fill="#1D3557"/>
<path d="M103.699 56.8902C104.11 57.2583 104.51 57.6651 104.731 58.1687C104.952 58.6763 104.956 59.3078 104.61 59.7417C104.063 60.4274 103.004 60.2996 102.151 60.1059C101.177 59.885 100.199 59.6681 99.2249 59.4511C98.22 59.2264 97.1685 58.9785 96.3886 58.3005C95.729 57.7271 95.341 56.8631 95.3216 55.9914C95.3022 55.1042 95.7057 54.1395 96.4197 53.5893C97.0055 53.1399 97.6962 53.4305 98.3092 53.659C99.2405 54.0039 100.145 54.4223 101.002 54.9221C101.856 55.4218 102.667 55.9991 103.419 56.6423C103.516 56.7236 103.609 56.8088 103.703 56.8902H103.699Z" fill="#FFAB90"/>
<path d="M77.9622 40.1304C81.9121 42.4511 85.8659 44.7679 89.8158 47.0886C91.1002 47.8441 92.4039 48.6112 93.3428 49.6224C94.2857 50.6336 94.8405 51.9354 94.4719 53.2488C94.0257 54.8527 91.9538 56.3211 89.8818 56.2591C88.3608 56.2126 87.1735 55.4377 86.0949 54.7016C83.8134 53.1403 81.5203 51.5673 79.6927 49.6805C77.8614 47.7976 76.5033 45.5621 76.3093 43.1058L77.9584 40.1304H77.9622Z" fill="#94C0C2"/>
<path d="M87.1231 15.7339C85.928 14.529 84.3721 13.634 82.6804 13.4597C80.9925 13.2853 79.1844 13.913 78.1485 15.2535C77.0931 16.6172 76.8952 18.5621 75.638 19.7438C74.8077 20.5225 73.6515 20.8402 72.5301 21.0378C71.4088 21.2354 70.2525 21.3439 69.2127 21.8088C68.1728 22.2776 67.2532 23.2074 67.1834 24.3426C67.1058 25.6095 68.0797 26.9035 67.583 28.0736C67.1795 29.0266 66.0077 29.3753 65.3209 30.1463C64.7506 30.7894 64.5566 31.7076 64.6846 32.5561C64.8127 33.4046 65.2395 34.1872 65.7749 34.8575C67.2028 36.6474 69.4998 37.7128 71.7929 37.6547C74.086 37.5927 76.3209 36.4072 77.6518 34.5475C78.8857 32.8196 79.3241 30.6655 80.2204 28.7399C81.4931 26.0047 83.7358 23.7343 86.4557 22.4287C87.5537 21.9018 88.935 21.4291 89.6218 20.3521C89.8779 19.9491 89.7227 19.647 89.5287 19.2595C89.2299 18.659 88.9079 18.074 88.5393 17.5122C88.1241 16.8768 87.6546 16.2763 87.1192 15.7378L87.1231 15.7339Z" fill="#2A4E80"/>
<path d="M86.8203 16.7721C85.7144 15.6563 84.2672 14.8233 82.7035 14.6645C81.1398 14.5056 79.4637 15.0829 78.5014 16.3265C77.5236 17.5934 77.3374 19.3911 76.1734 20.4875C75.4051 21.212 74.3342 21.5026 73.2943 21.6847C72.2545 21.8668 71.1836 21.9675 70.2213 22.4014C69.2591 22.8354 68.4055 23.6993 68.3395 24.7493C68.2658 25.9271 69.1698 27.1242 68.712 28.209C68.3395 29.0924 67.2531 29.4139 66.6167 30.1307C66.0891 30.7273 65.9106 31.5797 66.027 32.3661C66.1473 33.1526 66.5391 33.8771 67.0358 34.497C68.3628 36.1552 70.4891 37.1432 72.6114 37.0889C74.7377 37.0347 76.8097 35.9344 78.0435 34.2064C79.1882 32.6064 79.5956 30.6072 80.422 28.8212C81.6016 26.2874 83.6813 24.1798 86.2033 22.971C87.2238 22.4828 88.5003 22.045 89.1405 21.0454C89.3772 20.6735 89.2337 20.3946 89.0552 20.0304C88.7797 19.4763 88.4809 18.9301 88.1395 18.4109C87.7554 17.822 87.3208 17.268 86.8241 16.7682L86.8203 16.7721Z" fill="#1D3557"/>
<path d="M64.6496 36.0388C52.6874 39.2157 49.8704 55.0539 49.0401 61.0707C48.2098 67.0875 49.1914 73.5769 52.8891 78.3965C56.5907 83.2162 63.3459 85.8972 69.0535 83.7973C71.0828 83.0496 72.9607 81.6858 73.9269 79.7564C75.0792 77.4628 74.8232 74.7586 74.7727 72.1938C74.699 68.0677 75.2422 63.9299 76.3829 59.9626C77.5198 56.0108 83.6697 49.6454 81.0934 43.3612C79.0835 38.4603 72.0256 34.0823 64.6457 36.0388H64.6496Z" fill="#A8DADC"/>
<path d="M80.4881 51.7574C73.4108 53.741 65.9339 50.5757 60.1565 46.7285C61.0295 54.5895 65.4062 65.5073 56.6567 70.7453C57.9681 70.7453 58.845 70.7453 60.1565 70.3075C58.0419 74.5305 53.4207 75.0032 50.045 73.0156C50.7085 74.9412 51.6436 76.7621 52.893 78.3893C56.5946 83.2089 63.3498 85.89 69.0574 83.7901C71.0867 83.0423 72.9646 81.6786 73.9307 79.7492C75.0831 77.4556 74.827 74.7513 74.7766 72.1866C74.7029 68.0604 75.2461 63.9227 76.3868 59.9554C77.0076 57.8051 79.1106 54.9343 80.4842 51.7535L80.4881 51.7574Z" fill="#94C0C2"/>
<path d="M94.852 31.6802C94.98 31.4323 94.5881 31.2385 94.4601 31.4904C93.265 33.7917 91.81 35.9497 90.1105 37.9101C88.6982 39.5412 86.9211 41.4706 84.5659 41.4047C83.3903 41.3698 82.2301 40.6802 81.8538 39.5334C81.7645 39.2661 81.3532 39.4094 81.4386 39.6768C81.7762 40.7112 82.6802 41.4473 83.7162 41.7224C84.7677 42.0052 85.9084 41.7728 86.8707 41.304C87.9843 40.7616 88.8961 39.8937 89.7264 38.9949C90.6848 37.9605 91.5733 36.864 92.392 35.7134C93.3038 34.431 94.1264 33.0827 94.852 31.6841V31.6802Z" fill="#1D3557"/>
<path d="M95.9773 28.1856C96.0239 25.0861 94.6698 22.0332 91.8878 20.251C88.7759 18.2557 84.6204 18.6354 81.8539 21.0491C78.9245 23.6061 76.965 28.2824 78.1484 32.1141C79.3823 36.1085 83.7629 38.3982 87.7788 37.573C90.4289 37.0306 93.3622 35.4537 94.6892 33.0517C95.5195 31.5446 95.9502 29.8593 95.9773 28.1894V28.1856Z" fill="#2A4E80"/>
<path d="M95.1663 28.8209C95.209 25.9307 93.948 23.0831 91.3561 21.4249C88.4538 19.5652 84.5815 19.9178 82.0051 22.1688C79.2775 24.5515 77.4461 28.9101 78.5519 32.4822C79.7043 36.2054 83.7861 38.3401 87.5304 37.573C90.002 37.0655 92.7335 35.5971 93.9713 33.3578C94.7473 31.9514 95.1469 30.3823 95.1702 28.8248L95.1663 28.8209Z" fill="#1D3557"/>
<path d="M79.9332 29.8091C77.5974 32.5056 75.0676 35.0549 72.3903 37.3988C71.8471 37.8715 71.5057 38.5263 71.5096 39.1074C71.5173 40.7036 72.1925 42.0519 73.3565 42.7609C73.9501 43.1212 74.9279 42.7919 75.5836 42.0325C77.0891 40.2813 78.579 38.6774 80.2591 36.9882C81.0157 34.2878 80.7364 31.9206 79.9332 29.8091Z" fill="#FFC9B9"/>
<path d="M80.263 36.9882C81.0196 34.2878 80.7403 31.9206 79.9371 29.8091C79.324 30.5181 78.6955 31.2155 78.0514 31.9051C76.8835 34.8844 76.1346 38.2977 76.6546 40.8198C77.8069 39.5258 78.9787 38.2783 80.263 36.9882Z" fill="#FFAB90"/>
<path d="M91.7248 35.4267C87.4683 39.1306 81.1477 40.905 80.2591 39.735C77.3219 35.8529 79.7625 30.9093 79.7974 30.8551C79.7625 30.9093 79.0718 30.4638 78.8041 30.1267C78.5403 29.7935 78.5325 29.0419 78.6373 28.6351C78.839 27.8525 79.3124 26.8103 80.2087 26.6553C81.2874 26.4693 82.4785 27.6084 82.0323 28.7397C85.2295 28.6816 86.6962 27.7014 88.4888 26.6708C91.2591 27.8835 92.6792 29.3828 93.9403 32.2033C94.1498 32.6721 92.1166 35.0897 91.7248 35.4306V35.4267Z" fill="#FFC9B9"/>
<path d="M89.7886 30.9362C89.2299 30.0916 88.4383 29.4252 87.5188 29.0029C87.2588 28.8828 87.1036 29.3012 87.3636 29.4213C88.2133 29.8126 88.9272 30.4441 89.4433 31.219C89.5092 31.3197 89.6722 31.3197 89.7576 31.25C89.8584 31.1647 89.8546 31.0369 89.7886 30.9362Z" fill="#1D3557"/>
<path d="M91.8411 34.9773C92.0157 34.3342 91.8721 33.6291 91.4375 33.1176C91.3599 33.0285 91.2125 33.0053 91.1233 33.0866C91.034 33.168 91.0107 33.3075 91.0922 33.4005C91.1388 33.4547 91.1815 33.5089 91.2203 33.5671C91.2203 33.5709 91.2358 33.5903 91.2358 33.5942C91.2397 33.6019 91.2474 33.6136 91.2513 33.6213C91.2668 33.6484 91.2823 33.6794 91.2979 33.7104C91.3289 33.7724 91.3561 33.8383 91.3793 33.9041C91.3871 33.9196 91.391 33.939 91.3987 33.9584C91.3987 33.9584 91.4026 33.9739 91.4065 33.9816C91.4065 33.9894 91.4143 34.0165 91.4181 34.0204C91.422 34.0397 91.4259 34.0552 91.4298 34.0746C91.4453 34.1405 91.4569 34.2063 91.4647 34.2722C91.4647 34.3071 91.4725 34.338 91.4725 34.3729C91.4725 34.3807 91.4725 34.3845 91.4725 34.3884C91.4725 34.3884 91.4725 34.3884 91.4725 34.3923C91.4725 34.4117 91.4725 34.431 91.4725 34.4465C91.4725 34.5124 91.4686 34.5783 91.4569 34.6441C91.4531 34.679 91.4453 34.7177 91.4375 34.7526C91.4375 34.7642 91.4337 34.7758 91.4298 34.7836C91.4298 34.7875 91.4181 34.8223 91.4181 34.8223C91.3871 34.9386 91.4298 35.0664 91.5501 35.109C91.6548 35.1478 91.8061 35.0935 91.8372 34.9773H91.8411Z" fill="#1D3557"/>
<path d="M82.5717 38.1309C82.2768 37.7357 81.9819 37.3405 81.6909 36.9454C81.621 36.8524 81.462 36.8369 81.3766 36.9144C81.2835 36.9996 81.2718 37.1274 81.3456 37.2282C81.6404 37.6234 81.9353 38.0185 82.2263 38.4137C82.2962 38.5067 82.4553 38.5222 82.5406 38.4447C82.6337 38.3595 82.6454 38.2316 82.5717 38.1309Z" fill="#FFAB90"/>
<path d="M87.8021 35.2876C87.8991 35.0164 87.4878 34.8343 87.3908 35.1055C87.189 35.6518 86.9446 36.2251 86.4518 36.5777C86.0405 36.8722 85.4702 36.9419 85.0783 36.5777C84.8649 36.3801 84.5816 36.7288 84.795 36.9264C85.2917 37.3836 86.0328 37.3564 86.5876 37.0271C87.2239 36.6513 87.5615 35.9539 87.806 35.2837L87.8021 35.2876Z" fill="#FFAB90"/>
<path d="M86.8902 33.1175C86.9096 33.0051 86.8242 32.8695 86.7039 32.8618C86.4595 32.8424 86.2267 32.7378 86.0831 32.5673C85.9939 32.4627 85.9512 32.3852 85.9085 32.2651C85.8736 32.1644 85.8542 32.0327 85.862 31.9358C85.8697 31.8157 85.8038 31.6995 85.6757 31.6801C85.5632 31.6646 85.4274 31.746 85.4196 31.8661C85.3964 32.2109 85.4933 32.5596 85.7184 32.8269C85.9512 33.0981 86.281 33.2763 86.638 33.3034C86.7583 33.3112 86.8747 33.2415 86.8941 33.1175H86.8902Z" fill="#1D3557"/>
<path d="M89.4161 36.7633C89.3967 36.6315 89.2959 36.5657 89.1678 36.5618C89.1989 36.5618 89.1756 36.5618 89.1562 36.5618C89.1406 36.5618 89.1251 36.5618 89.1096 36.554C89.098 36.554 89.0824 36.5502 89.0708 36.5463C89.063 36.5463 89.0669 36.5463 89.063 36.5463C89.0359 36.5385 89.0087 36.5269 88.9816 36.5153C88.966 36.5076 88.9505 36.4998 88.9389 36.4959C88.9311 36.4921 88.9272 36.4882 88.9234 36.4882C88.904 36.4727 88.8807 36.4611 88.8613 36.4456C88.8496 36.4339 88.838 36.4262 88.8264 36.4146C88.8264 36.4146 88.8147 36.4029 88.807 36.3952C88.7992 36.3875 88.7876 36.372 88.7876 36.372C88.7798 36.3603 88.772 36.3526 88.7643 36.341C88.7565 36.3293 88.7449 36.3138 88.7371 36.3022C88.7371 36.3022 88.7332 36.2945 88.7294 36.2867C88.71 36.2441 88.6906 36.1976 88.6789 36.1511C88.6789 36.1434 88.6789 36.1395 88.6789 36.1356C88.6789 36.1201 88.675 36.1046 88.6712 36.0891C88.6712 36.062 88.6712 36.0349 88.6673 36.0078C88.6673 36.0078 88.6673 36.0078 88.6673 36C88.6673 35.9845 88.6673 35.969 88.6712 35.9535C88.6712 35.9264 88.6789 35.8993 88.6867 35.8722C88.6944 35.8567 88.6983 35.8451 88.7022 35.8296C88.7138 35.8024 88.7294 35.7753 88.741 35.7482C88.7992 35.6436 88.7332 35.4925 88.6246 35.4499C88.5004 35.4034 88.3879 35.4537 88.3258 35.5661C88.159 35.8644 88.1745 36.2364 88.3375 36.5269C88.5121 36.8407 88.8535 37.0112 89.2066 37.019C89.323 37.019 89.4239 36.8834 89.4084 36.771L89.4161 36.7633Z" fill="#1D3557"/>
<path d="M83.7939 37.647C83.4176 37 82.8782 36.4808 82.2225 36.1205C82.1177 36.0624 81.9781 36.1437 81.9393 36.2445C81.8927 36.3646 81.9586 36.4692 82.0634 36.5273C82.0401 36.5118 82.0983 36.5467 82.0945 36.5467C82.11 36.5544 82.1294 36.566 82.1449 36.5777C82.1798 36.6009 82.2186 36.6203 82.2535 36.6435C82.3195 36.6861 82.3816 36.7288 82.4437 36.7753C82.5135 36.8256 82.5795 36.8799 82.6454 36.9341C82.6765 36.9573 82.7036 36.9845 82.7347 37.0116C82.7696 37.0426 82.7773 37.0542 82.8045 37.0775C82.9209 37.1898 83.0295 37.3138 83.1304 37.4416C83.1809 37.5075 83.2274 37.5734 83.274 37.6392C83.3283 37.7206 83.3477 37.7516 83.3943 37.8291C83.4525 37.9298 83.5689 37.9918 83.6853 37.9375C83.7862 37.8949 83.856 37.7516 83.7939 37.647Z" fill="#1D3557"/>
<path d="M80.5657 27.341C80.3368 27.1744 80.0807 27.527 80.3096 27.6935C80.5502 27.8679 80.6743 28.1623 80.6317 28.449C80.589 28.7164 80.3911 28.9488 80.1311 29.0496C80.0225 29.0922 79.9759 29.2355 80.0225 29.3401C80.0729 29.4525 80.201 29.4912 80.3135 29.4486C80.7093 29.2898 81.0042 28.9178 81.0662 28.4994C81.1361 28.0577 80.9266 27.6006 80.5696 27.341H80.5657Z" fill="#FFAB90"/>
<path d="M75.2344 43.427C74.2567 43.9268 73.112 43.5471 72.3477 42.8459C71.4436 42.0168 70.9935 40.8506 70.5628 39.7348C70.4581 39.4675 70.0274 39.5953 70.1321 39.8665C70.6249 41.1412 71.1565 42.4972 72.2662 43.365C73.178 44.0818 74.408 44.353 75.475 43.8106C75.735 43.6788 75.4944 43.2992 75.2383 43.427H75.2344Z" fill="#94C0C2"/>
<path d="M89.0126 30.5143C87.0377 30.677 85.0123 30.123 83.3982 28.98C83.0683 28.7437 82.723 28.4299 82.723 28.027C82.723 27.5737 83.1421 27.2405 83.5378 27.0119C85.2179 26.0433 87.189 25.5978 89.1251 25.7411C89.9632 25.8031 90.7936 25.9813 91.5851 26.2564C91.9847 26.3959 92.3728 26.5586 92.7491 26.7485C93.1138 26.9305 93.5018 27.1281 93.8278 27.38C94.402 27.8294 93.9636 28.4183 93.5251 28.7553C92.916 29.228 92.2408 29.6154 91.5269 29.906C90.813 30.1966 90.0602 30.3942 89.2959 30.4872C89.2027 30.4988 89.1096 30.5065 89.0126 30.5143Z" fill="#1D3557"/>
<path d="M70.947 78.5788C74.5167 68.8543 78.0165 63.4729 84.1587 55.1276C86.8204 51.509 90.5336 47.6967 94.9957 48.2507C97.5022 48.5645 100.28 52.3885 100.614 56.933C101.157 64.3252 102.31 84.8861 104.758 97.0669C102.313 97.5822 99.7798 97.59 97.3354 98.1014C92.916 90.9378 91.0264 77.7768 91.4454 71.2951C89.6179 76.4091 87.4257 99.5155 71.3001 98.8491C67.3075 98.6825 63.9784 94.9903 62.3333 91.3523C60.6765 87.6872 60.6454 84.4871 63.0006 77.8698L70.947 78.571V78.5788Z" fill="#213A4A"/>
<path d="M104.335 57.9713C103.823 57.5839 103.124 57.5451 102.566 57.8667C100.959 58.7849 99.4267 59.8387 97.9949 61.0204C97.5216 61.4078 97.0249 61.8766 96.9745 62.481C96.9163 63.1435 97.4168 63.6897 97.8824 64.143C98.5265 64.7746 99.2831 65.4526 100.199 65.4022C100.979 65.3596 101.642 64.7978 102.185 64.2167C103.373 62.942 104.292 61.4194 104.87 59.7883C105.103 59.1297 104.894 58.3975 104.335 57.9752V57.9713Z" fill="#FFAB90"/>
<path d="M97.2073 61.8145C96.6292 62.5312 96.051 63.2518 95.4729 63.9686C95.7329 64.6698 95.9424 65.3943 96.1985 66.0917C96.6912 66.4287 97.2655 66.882 97.7583 67.2191C97.9406 66.6108 97.572 65.805 96.9745 65.5764C96.9434 65.2316 96.7727 64.7938 96.7456 64.449C97.2073 63.8795 97.6263 63.1743 98.0881 62.6048L97.2034 61.8145H97.2073Z" fill="#FFAB90"/>
<path d="M98.705 62.3145C98.1268 63.0312 97.5487 63.7518 96.9706 64.4686C97.2305 65.1698 97.4401 65.8943 97.6962 66.5917C98.1889 66.9287 98.7632 67.382 99.2559 67.7191C99.4383 67.1108 99.0697 66.305 98.4722 66.0764C98.4411 65.7316 98.2704 65.2938 98.2432 64.949C98.705 64.3795 99.124 63.6743 99.5858 63.1048L98.7011 62.3145H98.705Z" fill="#FFAB90"/>
<path d="M99.8497 62.2061C99.2716 62.9228 98.6935 63.6434 98.1154 64.3602C98.3753 65.0614 98.5848 65.7859 98.8409 66.4833C99.3337 66.8204 99.9079 67.2736 100.401 67.6107C100.583 67.0024 100.214 66.1966 99.6169 65.968C99.5859 65.6232 99.4152 65.1854 99.388 64.8406C99.8497 64.2711 100.269 63.5659 100.731 62.9964L99.8459 62.2061H99.8497Z" fill="#FFAB90"/>
<path d="M101.049 62.1592C100.47 62.8759 99.8923 63.5965 99.3142 64.3133C99.5742 65.0145 99.7837 65.739 100.04 66.4364C100.533 66.7735 101.107 67.2268 101.6 67.5638C101.782 66.9556 101.413 66.1497 100.816 65.9211C100.785 65.5763 100.614 65.1385 100.587 64.7937C101.049 64.2242 101.468 63.5191 101.929 62.9495L101.045 62.1592H101.049Z" fill="#FFAB90"/>
<path d="M58.7985 80.3145C57.2038 80.6011 55.582 80.5895 53.9911 80.2796C53.7156 80.2253 53.6652 80.6593 53.9407 80.7135C55.5626 81.0312 57.2349 81.0389 58.8645 80.7445C59.14 80.6941 59.074 80.2641 58.7985 80.3145Z" fill="#213A4A"/>
<path d="M60.8394 79.0978C64.409 69.3733 67.9088 63.9919 74.051 55.6467C76.7127 52.0281 80.4259 48.2157 84.888 48.7698C87.3945 49.0836 90.1727 52.9075 90.5064 57.4521C91.0496 64.8442 92.2058 86.2769 94.6541 98.4577C92.2097 98.9691 89.676 98.9807 87.2316 99.4921C82.8122 92.3285 80.9187 78.2997 81.3378 71.818C79.5102 76.9321 77.318 100.038 61.1924 99.372C57.1999 99.2054 53.8708 95.5132 52.2256 91.8752C50.5688 88.2102 50.5378 85.01 52.893 78.3927L60.8394 79.0939V79.0978Z" fill="#345C75"/>
<path d="M67.4122 64.9608C64.5216 69.1722 62.3449 73.864 61.0062 78.7882C60.6338 80.1636 60.3233 81.5583 60.075 82.9608C60.0285 83.2398 60.463 83.2863 60.5096 83.0112C61.3787 78.0405 63.0821 73.2131 65.5382 68.8041C66.2249 67.576 66.966 66.3788 67.7614 65.2165C67.9205 64.9841 67.5674 64.7284 67.4084 64.9608H67.4122Z" fill="#213A4A"/>
<path d="M59.0119 80.5235L57.1223 83.3169C56.9632 83.5494 57.3163 83.8089 57.4754 83.5726C58.1039 82.6428 58.7364 81.713 59.365 80.7792C59.524 80.5468 59.171 80.2872 59.0119 80.5235Z" fill="#213A4A"/>
<path d="M81.7258 72.1866C81.8306 71.1715 81.9781 70.1564 82.1604 69.153C82.2109 68.874 81.7763 68.8275 81.7258 69.1026C81.0856 72.6437 80.9227 76.2662 81.2486 79.8499C81.3417 80.8844 81.4775 81.9149 81.6521 82.9416C81.6987 83.2167 82.1333 83.1508 82.0828 82.8758C81.4814 79.3501 81.3572 75.747 81.7258 72.1904V72.1866Z" fill="#213A4A"/>
<path d="M92.59 96.3039C90.9876 96.5867 89.3851 96.8695 87.7826 97.1524C87.5072 97.2027 87.5731 97.6328 87.8486 97.5824C89.4511 97.2996 91.0535 97.0168 92.656 96.7339C92.9315 96.6836 92.8655 96.2535 92.59 96.3039Z" fill="#213A4A"/>
<path d="M81.9509 60.0245C80.0264 60.0865 78.0087 60.1563 75.7466 60.2028C73.0461 54 69.9537 47.7624 67.2493 41.5596C66.7332 40.3741 66.1474 39.1111 65.026 38.4679C63.8116 37.7744 62.1974 38.0263 61.08 38.8709C59.9625 39.7155 58.7907 43.7564 59.2486 46.4412C60.7347 55.1391 64.8165 60.1253 70.1128 67.1881C73.9696 67.1726 77.9544 66.8511 81.9159 66.2505C81.4853 64.1778 81.5861 62.1012 81.947 60.0284L81.9509 60.0245Z" fill="#A8DADC"/>
<path d="M72.8405 64.6353C72.402 64.6353 73.7135 62.888 73.2789 62.0163C72.8405 62.888 71.529 63.3258 71.0906 64.2014C65.6236 57.5724 60.1643 50.25 59.6754 41.6064C59.2331 43.1329 59.0003 44.9848 59.2486 46.4416C60.7347 55.1394 64.8165 60.1256 70.1128 67.1885C73.9696 67.173 77.9544 66.8514 81.916 66.2509C81.8655 66.0068 81.8228 65.7666 81.7879 65.5225C78.7809 65.9719 75.6807 65.8208 72.8366 64.6392L72.8405 64.6353Z" fill="#94C0C2"/>
<path d="M74.6176 57.5916C72.6543 53.756 70.6909 49.9166 68.7237 46.081L67.0592 42.8266C66.9312 42.5786 66.5237 42.7336 66.6518 42.9854C68.6151 46.821 70.5784 50.6604 72.5456 54.496C73.1005 55.5808 73.6553 56.6656 74.2102 57.7504C74.3382 57.9984 74.7456 57.8434 74.6176 57.5916Z" fill="#94C0C2"/>
<path d="M96.9046 60.18C91.0962 59.7538 86.8552 59.8662 81.9508 60.025C81.59 62.0978 81.4852 64.1744 81.9198 66.2471C87.1113 65.4606 92.2602 64.2015 97.0288 62.5433C96.99 61.7219 96.9434 61.0013 96.9046 60.18Z" fill="#FFC9B9"/>
<path d="M92.8655 60.2612C94.9103 59.4321 97.0482 58.8083 99.2249 58.4054C99.8263 58.293 100.505 58.2156 101.002 58.5642C101.549 58.9478 101.646 59.68 101.697 60.3271C101.766 61.2259 101.801 62.2371 101.173 62.9073C100.641 63.4769 99.7798 63.6241 98.9844 63.6628C96.8426 63.7713 94.6736 63.3296 92.7607 62.3959L92.8655 60.2612Z" fill="#FFC9B9"/>
<path d="M100.342 58.3086C101.266 58.328 102.185 58.3473 103.109 58.3667C103.481 59.0137 103.9 59.6414 104.273 60.2884C104.215 60.885 104.195 61.6134 104.133 62.21C103.547 61.9582 103.167 61.1562 103.373 60.5557C103.128 60.3116 102.903 59.9009 102.659 59.6568C101.925 59.6452 101.114 59.5096 100.381 59.498L100.342 58.3125V58.3086Z" fill="#FFC9B9"/>
<path d="M99.7643 59.7764L102.531 59.8345C102.903 60.4815 103.322 61.1091 103.695 61.7561C103.637 62.3528 103.617 63.0811 103.555 63.6778C102.969 63.426 102.589 62.624 102.795 62.0235C102.55 61.7794 102.325 61.3687 102.081 61.1246C101.347 61.113 100.536 60.9774 99.8031 60.9658L99.7643 59.7802V59.7764Z" fill="#FFC9B9"/>
<path d="M98.9454 60.5864C99.8689 60.6058 100.788 60.6252 101.712 60.6445C102.084 61.2915 102.503 61.9192 102.876 62.5662C102.818 63.1628 102.798 63.8912 102.736 64.4878C102.15 64.236 101.77 63.434 101.976 62.8335C101.731 62.5894 101.506 62.1788 101.262 61.9347C100.529 61.9231 99.7176 61.7875 98.9842 61.7758L98.9454 60.5903V60.5864Z" fill="#FFC9B9"/>
<path d="M98.1385 61.4697C99.062 61.4891 99.9816 61.5085 100.905 61.5278C101.278 62.1748 101.697 62.8025 102.069 63.4495C102.011 64.0461 101.991 64.7745 101.929 65.3711C101.343 65.1193 100.963 64.3173 101.169 63.7168C100.924 63.4727 100.699 63.0621 100.455 62.818C99.7216 62.8064 98.9107 62.6708 98.1774 62.6591L98.1385 61.4736V61.4697Z" fill="#FFC9B9"/>
<path d="M2.08361 65.5416C5.26526 59.4551 10.1231 53.8528 16.6416 51.6755C23.164 49.4981 31.4208 51.7336 34.5132 57.8666C32.9457 56.561 30.637 56.4215 28.7164 57.115C26.7958 57.8085 25.2205 59.2187 23.8896 60.7607C19.8272 65.4641 17.6737 71.539 16.4981 77.6372C15.3224 83.7353 15.0392 89.9691 14.2282 96.1253C13.8674 98.849 13.3785 101.635 11.9584 103.99C10.2007 106.9 6.34004 109.286 3.02646 107.369C0.682901 106.013 -0.647961 103.986 -1.24937 101.429C-2.12239 97.7099 -2.9372 94.0448 -3.15449 90.217C-3.38341 86.2071 -3.10792 82.1662 -2.33967 78.2261C-1.48218 73.821 -0.00387001 69.5283 2.07973 65.5494L2.08361 65.5416Z" fill="#50B2B5"/>
<path d="M18.9463 64.1428C13.9022 75.7657 12.3502 87.3886 10.0222 100.174C9.025 104.552 6.18479 106.574 2.76257 107.198C2.85181 107.252 2.94106 107.31 3.0303 107.364C6.34388 109.282 10.2045 106.9 11.9622 103.986C13.3823 101.634 13.8751 98.8449 14.2321 96.1213C15.043 89.965 15.3262 83.7312 16.5019 77.6331C17.6776 71.5349 19.831 65.46 23.8934 60.7566C25.2243 59.2147 26.8035 57.8044 28.7202 57.1109C30.637 56.4174 32.9495 56.5569 34.5171 57.8625C34.2105 57.2581 33.8536 56.6886 33.4539 56.1617C27.5756 53.8294 21.2201 58.3042 18.9463 64.1428Z" fill="#459A9D"/>
<path d="M19.2413 57.5568C15.8384 58.2813 12.8935 60.3269 10.6508 62.9382C8.12487 65.8827 6.57673 69.5129 5.57567 73.2283C4.46209 77.3661 3.88396 81.6627 3.38731 85.9089C2.86738 90.3799 2.54921 94.8741 2.43281 99.3721C2.31641 103.851 2.40177 108.337 2.6889 112.808C2.72382 113.362 2.76262 113.916 2.8053 114.47C2.8247 114.718 3.20883 114.656 3.18943 114.412C2.85574 109.98 2.71994 105.532 2.7859 101.085C2.85186 96.6756 3.10794 92.2744 3.56191 87.8887C4.00036 83.6463 4.54745 79.373 5.48643 75.2042C6.34392 71.3997 7.65539 67.6067 9.96791 64.4259C11.9817 61.6597 14.7365 59.3428 18.0268 58.2774C18.4459 58.1418 18.8727 58.0333 19.3034 57.9404C19.5478 57.89 19.4896 57.5064 19.2451 57.5568H19.2413Z" fill="#1D3557"/>
<path d="M17.018 61.3417C14.7676 61.4812 12.5792 62.167 10.643 63.3138C11.3221 61.303 12.0011 59.2961 12.6801 57.2853C12.7616 57.049 12.4007 56.9057 12.3192 57.142C11.582 59.3193 10.8487 61.4967 10.1115 63.6741C10.0455 63.8678 10.255 63.9995 10.4141 63.8949C12.4046 62.6086 14.7132 61.8648 17.0762 61.7214C17.3245 61.7059 17.2624 61.3224 17.018 61.3379V61.3417Z" fill="#1D3557"/>
<path d="M10.6275 73.7744C8.43529 76.099 6.51465 78.6715 4.91218 81.4378C4.5591 82.0461 4.22541 82.6698 3.90725 83.2936C3.36016 80.2949 3.14675 77.2419 3.29808 74.1967C3.34464 73.2785 3.42224 72.3642 3.527 71.4499C3.55804 71.2019 3.17003 71.1593 3.14287 71.4072C2.76263 74.6423 2.77039 77.9199 3.17779 81.1511C3.2942 82.0771 3.44552 82.9991 3.62788 83.9174C3.66668 84.1149 3.91501 84.1266 4.00037 83.96C5.40495 81.1279 7.13934 78.4585 9.15698 76.0215C9.73123 75.328 10.3249 74.6578 10.9418 74.003C11.1125 73.8209 10.7982 73.5962 10.6275 73.7744Z" fill="#1D3557"/>
<path d="M8.04718 90.6081C6.08386 92.8242 4.48528 95.3619 3.33678 98.0894C3.08069 98.7015 2.85177 99.3214 2.63836 99.9491C1.38898 96.5474 0.442246 93.0412 -0.190205 89.4691C-0.232886 89.225 -0.617013 89.2831 -0.574332 89.5272C0.0930392 93.3046 1.10962 97.0162 2.46376 100.608C2.52196 100.759 2.77029 100.755 2.82073 100.6C3.70926 97.7949 5.04789 95.141 6.79004 92.7661C7.2828 92.0958 7.80273 91.4527 8.3537 90.8328C8.52055 90.6469 8.20626 90.4183 8.03942 90.6042L8.04718 90.6081Z" fill="#1D3557"/>
<path d="M23.1601 88.5663C28.4913 86.2223 36.1854 85.986 40.9812 90.6235C39.8327 86.0364 35.3473 82.7781 30.5671 82.0381C29.2168 82.2357 27.9093 82.6192 26.6754 83.2275C25.9653 83.5762 25.3911 82.4914 26.1011 82.1427C26.171 82.1078 26.2408 82.0807 26.3107 82.0458C22.7294 82.5572 19.377 84.2193 16.432 86.4432C15.5668 87.6984 14.8684 89.0699 14.4105 90.5267C14.1738 91.2822 13.002 90.918 13.2387 90.1664C13.3978 89.6627 13.584 89.1668 13.7936 88.6786C13.5181 88.9382 13.2504 89.1978 12.9865 89.4651C11.159 91.3054 9.52938 93.3355 8.10539 95.4974C7.4613 97.7096 7.20134 100.069 6.93749 102.305C6.84437 103.083 5.61827 103.048 5.71139 102.266C5.84719 101.115 5.983 99.9374 6.16536 98.7634C4.59781 101.716 3.39111 104.862 2.58406 108.108C1.80416 111.258 1.5442 114.427 1.31915 117.651C1.16395 119.867 1.7382 121.839 3.29023 123.52C3.30963 123.543 3.33291 123.563 3.35231 123.582C7.11209 110.309 10.449 95.0364 23.1562 88.5624L23.1601 88.5663Z" fill="#459A9D"/>
<path d="M23.1601 88.5663C10.4528 95.0402 7.11599 110.313 3.3562 123.586C5.56396 125.884 9.23062 124.919 11.3608 123.02C12.9438 121.61 13.9915 119.716 14.8994 117.794C13.5336 118.391 12.2299 119.123 10.9767 119.925C10.3093 120.351 9.74279 119.262 10.4024 118.84C12.0553 117.782 13.7897 116.868 15.6289 116.186C16.5756 114.059 17.4641 111.909 18.3798 109.766C17.5184 110.181 16.6842 110.642 15.8733 111.119C15.1904 111.522 14.62 110.437 15.299 110.034C16.5096 109.321 17.7823 108.647 19.1015 108.097C19.8853 106.318 20.704 104.556 21.6197 102.839C22.8807 100.476 24.3474 98.1823 26.074 96.1289C24.7431 96.3071 23.4317 96.5977 22.1474 97.0006C21.3908 97.237 21.1192 96.0398 21.868 95.8073C23.6412 95.2533 25.4377 94.9589 27.2458 94.8155C28.6116 93.3782 30.1287 92.0958 31.8165 91.0381C31.9019 90.9838 31.9872 90.9335 32.0726 90.8831C31.8398 90.8599 31.6109 90.8405 31.3819 90.8172C31.0521 90.7863 30.7766 90.5344 30.7883 90.1857C30.7999 89.868 31.0909 89.562 31.4207 89.593C32.2743 89.6705 33.1396 89.7596 33.9932 89.9107C34.8391 89.5697 35.7198 89.3373 36.6317 89.2946C38.3544 89.2133 40.1897 89.9029 41.1325 91.348C41.0899 91.1039 41.0394 90.8637 40.9773 90.6274C36.1816 85.9899 28.4874 86.2301 23.1562 88.5701L23.1601 88.5663Z" fill="#50B2B5"/>
<path d="M28.8599 87.2875C25.9266 87.0241 23.0321 87.9423 20.5682 89.4959C17.7862 91.2471 15.6289 93.7963 13.8906 96.551C11.9545 99.6194 10.4141 102.947 8.94741 106.264C7.40702 109.751 6.02571 113.303 4.80737 116.914C3.59291 120.51 2.54141 124.155 1.65288 127.844C1.54424 128.301 1.43559 128.758 1.33083 129.219C1.28427 129.424 1.6102 129.471 1.65676 129.266C2.49873 125.597 3.49979 121.966 4.66381 118.387C5.82007 114.838 7.12765 111.339 8.59432 107.907C10.0105 104.582 11.5199 101.266 13.3241 98.1278C14.9693 95.2647 16.9791 92.5256 19.6448 90.5303C21.965 88.7985 24.7742 87.6052 27.6998 87.5665C28.0723 87.5626 28.4447 87.5781 28.8172 87.613C29.0268 87.6323 29.0772 87.3069 28.8638 87.2875H28.8599Z" fill="#1D3557"/>
<path d="M26.1166 89.7944C24.262 89.345 22.3219 89.3566 20.4673 89.8022C21.5188 88.3454 22.5703 86.8926 23.6218 85.4358C23.7459 85.2654 23.4898 85.06 23.3657 85.2305C22.2249 86.8073 21.0881 88.3842 19.9473 89.9649C19.8465 90.1044 19.9823 90.2632 20.1375 90.2206C22.0697 89.6782 24.1223 89.6511 26.0701 90.1237C26.2757 90.1741 26.3223 89.8487 26.1166 89.7983V89.7944Z" fill="#1D3557"/>
<path d="M17.8366 98.2524C15.4814 99.5852 13.2853 101.189 11.2987 103.026C10.8602 103.432 10.4373 103.851 10.0221 104.277C10.3287 101.716 10.9223 99.1939 11.8031 96.7686C12.0708 96.0363 12.3618 95.3157 12.6761 94.6067C12.7615 94.413 12.4627 94.2813 12.3735 94.475C11.256 96.9972 10.4451 99.6511 9.96395 102.363C9.82814 103.142 9.7195 103.924 9.63414 104.711C9.61474 104.881 9.81262 104.955 9.92514 104.839C11.7721 102.898 13.8401 101.174 16.0828 99.7053C16.7191 99.2869 17.371 98.8917 18.0306 98.5198C18.213 98.4151 18.0151 98.1556 17.8327 98.2563L17.8366 98.2524Z" fill="#1D3557"/>
<path d="M11.5393 111.223C9.39753 112.529 7.46914 114.179 5.85891 116.101C5.49806 116.531 5.15661 116.976 4.83069 117.434C4.67161 114.369 4.78025 111.297 5.16437 108.255C5.19153 108.046 4.86561 108 4.83845 108.209C4.43104 111.432 4.32628 114.687 4.52416 117.929C4.53192 118.065 4.73757 118.127 4.81517 118.011C6.23527 115.961 7.9813 114.152 9.9873 112.664C10.5499 112.246 11.1358 111.855 11.7372 111.49C11.9196 111.382 11.7217 111.118 11.5393 111.227V111.223Z" fill="#1D3557"/>
<path d="M38.2885 22.2115C39.6 25.6558 40.9114 29.0961 42.219 32.5404C42.413 31.2658 42.607 29.9872 42.7972 28.7126C43.6585 31.2541 44.5238 33.7996 45.3852 36.3411C45.7033 35.0277 46.0254 33.7143 46.3435 32.4009C46.9799 35.7057 47.6162 39.0105 48.2564 42.3153C47.7637 38.6657 47.3291 35.2524 46.8324 31.6028C46.8674 31.7617 46.9023 31.9205 46.9372 32.0755C46.9023 31.2154 46.8635 30.3553 46.8286 29.4952C46.4716 30.3785 46.1728 31.0062 45.8159 31.8895C45.1446 29.7238 44.516 27.3682 43.8448 25.2025C43.3054 26.0393 43.0455 26.4965 42.5062 27.3333C41.9241 25.156 41.443 22.9786 40.8571 20.8013L38.2808 22.2154L38.2885 22.2115Z" fill="#FFD797"/>
<path d="M53.2655 16.5201C53.1685 15.0091 52.3809 13.4904 51.0073 12.9402C49.6183 12.3862 47.6511 12.7697 46.7819 13.9824C45.7809 10.3134 41.7223 7.76027 37.9781 8.44602C35.2193 8.94968 32.7788 11.1464 31.8281 13.7771C30.8698 14.0909 30.0394 14.796 29.6204 15.7103C29.5622 15.8343 29.5195 15.9622 29.4768 16.0939C28.1692 15.9932 26.8112 16.4271 25.88 17.353C24.4521 18.7672 24.1572 21.177 25.1971 22.8933C26.008 24.2299 27.7075 25.0358 29.2557 25.2721C30.8038 25.5084 32.4567 24.8188 33.3724 23.548C35.2853 25.4503 38.0557 26.2794 40.6863 25.675C42.8786 25.1714 44.8147 23.6836 45.9128 21.731C46.3745 21.7504 46.8246 21.6923 47.2592 21.514C47.4144 21.4521 47.5579 21.3707 47.6976 21.2777C49.4941 21.5683 52.2295 19.8946 52.8426 18.7362C53.184 18.093 53.3198 17.3066 53.2694 16.5162L53.2655 16.5201Z" fill="#1D3557"/>
<path d="M53.2656 16.5201C53.1686 15.0091 52.3809 13.4904 51.0074 12.9402C49.6183 12.3862 47.6511 12.7697 46.782 13.9824C45.781 10.3134 41.7224 7.76027 37.9781 8.44602C35.2194 8.94968 32.7788 11.1464 31.8282 13.7771C30.8699 14.0909 30.0395 14.796 29.6205 15.7103C29.5623 15.8343 29.5196 15.9622 29.4769 16.0939C28.1693 15.9932 26.8113 16.4271 25.8801 17.353C24.557 18.6664 24.2078 20.836 24.9954 22.5136C25.1079 21.1305 25.8374 19.8365 26.9665 18.9376C28.1305 18.1628 29.6825 18.9376 30.8466 19.7125C30.4586 17.3879 31.6226 14.2885 34.3386 15.0633C34.7266 15.0633 33.1746 16.6131 34.3386 17.3879C34.3386 15.0633 37.0547 13.901 38.9947 13.5136C42.4868 12.7387 46.3668 14.2885 46.7548 18.1628C47.1429 17.0005 46.3668 15.0633 47.5309 14.6759C49.8589 13.5136 51.0229 15.4508 51.7989 17.3879C52.1287 18.0427 52.2956 18.7323 52.3227 19.3987C52.5517 19.174 52.7302 18.9493 52.8388 18.74C53.1802 18.0969 53.316 17.3104 53.2656 16.5201Z" fill="#2A4E80"/>
</svg>
