<svg width="15" height="3" viewBox="0 0 15 3" fill="none" xmlns="http://www.w3.org/2000/svg">
<path d="M2.25 1.5C2.25 1.69891 2.17098 1.88968 2.03033 2.03033C1.88968 2.17098 1.69891 2.25 1.5 2.25C1.30109 2.25 1.11032 2.17098 0.96967 2.03033C0.829018 1.88968 0.75 1.69891 0.75 1.5C0.75 1.30109 0.829018 1.11032 0.96967 0.96967C1.11032 0.829018 1.30109 0.75 1.5 0.75C1.69891 0.75 1.88968 0.829018 2.03033 0.96967C2.17098 1.11032 2.25 1.30109 2.25 1.5ZM8.25 1.5C8.25 1.69891 8.17098 1.88968 8.03033 2.03033C7.88968 2.17098 7.69891 2.25 7.5 2.25C7.30109 2.25 7.11032 2.17098 6.96967 2.03033C6.82902 1.88968 6.75 1.69891 6.75 1.5C6.75 1.30109 6.82902 1.11032 6.96967 0.96967C7.11032 0.829018 7.30109 0.75 7.5 0.75C7.69891 0.75 7.88968 0.829018 8.03033 0.96967C8.17098 1.11032 8.25 1.30109 8.25 1.5ZM14.25 1.5C14.25 1.69891 14.171 1.88968 14.0303 2.03033C13.8897 2.17098 13.6989 2.25 13.5 2.25C13.3011 2.25 13.1103 2.17098 12.9697 2.03033C12.829 1.88968 12.75 1.69891 12.75 1.5C12.75 1.30109 12.829 1.11032 12.9697 0.96967C13.1103 0.829018 13.3011 0.75 13.5 0.75C13.6989 0.75 13.8897 0.829018 14.0303 0.96967C14.171 1.11032 14.25 1.30109 14.25 1.5Z" stroke="black" stroke-width="1.5" stroke-linecap="round" stroke-linejoin="round"/>
</svg>
