<svg width="19" height="19" viewBox="0 0 19 19" fill="none" xmlns="http://www.w3.org/2000/svg">
<path d="M7.28168 12.5421L6.57955 15L5.87741 12.5421C5.69594 11.9072 5.35569 11.329 4.88877 10.8621C4.42185 10.3952 3.84367 10.0549 3.20877 9.87346L0.75 9.17046L3.20791 8.46832C3.8428 8.28685 4.42099 7.9466 4.88791 7.47968C5.35482 7.01276 5.69507 6.43458 5.87655 5.79968L6.57955 3.34091L7.28168 5.79882C7.46316 6.43371 7.80341 7.0119 8.27032 7.47881C8.73724 7.94573 9.31543 8.28598 9.95032 8.46746L12.4091 9.17046L9.95118 9.87259C9.31629 10.0541 8.7381 10.3943 8.27119 10.8612C7.80427 11.3281 7.46402 11.9063 7.28255 12.5412L7.28168 12.5421ZM14.576 6.33341L14.3523 7.22727L14.1286 6.33341C14.0006 5.82092 13.7357 5.35285 13.3622 4.97925C12.9888 4.60565 12.5208 4.34056 12.0084 4.21232L11.1136 3.98864L12.0084 3.76495C12.5208 3.63671 12.9888 3.37162 13.3622 2.99802C13.7357 2.62442 14.0006 2.15636 14.1286 1.64386L14.3523 0.75L14.576 1.64386C14.7041 2.15646 14.9691 2.6246 15.3427 2.99821C15.7163 3.37182 16.1844 3.63685 16.697 3.76495L17.5909 3.98864L16.697 4.21232C16.1844 4.34042 15.7163 4.60545 15.3427 4.97906C14.9691 5.35267 14.7041 5.82081 14.576 6.33341ZM13.3971 16.5692L13.0568 17.5909L12.7165 16.5692C12.6212 16.283 12.4604 16.023 12.2471 15.8097C12.0338 15.5964 11.7738 15.4357 11.4876 15.3403L10.4659 15L11.4876 14.6597C11.7738 14.5643 12.0338 14.4036 12.2471 14.1903C12.4604 13.977 12.6212 13.717 12.7165 13.4308L13.0568 12.4091L13.3971 13.4308C13.4925 13.717 13.6532 13.977 13.8665 14.1903C14.0798 14.4036 14.3399 14.5643 14.626 14.6597L15.6477 15L14.626 15.3403C14.3399 15.4357 14.0798 15.5964 13.8665 15.8097C13.6532 16.023 13.4925 16.283 13.3971 16.5692Z" stroke="#535353" stroke-width="1.5" stroke-linecap="round" stroke-linejoin="round"/>
</svg>
