<svg width="22" height="27" viewBox="0 0 22 27" fill="none" xmlns="http://www.w3.org/2000/svg">
<path d="M18.3302 25.8101C16.9087 27.229 15.3567 27.005 13.8626 26.3328C12.2816 25.6458 10.8311 25.6159 9.16298 26.3328C7.07425 27.2589 5.97186 26.9901 4.72442 25.8101C-2.35406 18.2971 -1.3097 6.8558 6.72613 6.43758C8.68432 6.54214 10.0478 7.54287 11.1937 7.63249C12.9053 7.27402 14.5444 6.24341 16.372 6.37784C18.5623 6.55707 20.2159 7.45326 21.3038 9.06639C16.7782 11.8595 17.8515 17.9983 22 19.716C21.1732 21.9565 20.0998 24.182 18.3157 25.825L18.3302 25.8101ZM11.0486 6.34796C10.8311 3.01715 13.4565 0.268855 16.4736 0C16.8942 3.85359 13.0794 6.72137 11.0486 6.34796Z" fill="white"/>
</svg>
