<svg width="16" height="18" viewBox="0 0 16 18" fill="none" xmlns="http://www.w3.org/2000/svg">
<path fill-rule="evenodd" clip-rule="evenodd" d="M2.04057 6.23311C2.04057 4.57999 2.66844 2.99457 3.78605 1.82564C4.90367 0.656701 6.41948 0 8.00003 0C9.58058 0 11.0964 0.656701 12.214 1.82564C13.3316 2.99457 13.9595 4.57999 13.9595 6.23311V6.92568C13.9595 8.88611 14.6658 10.672 15.8294 12.023C15.9019 12.107 15.9536 12.2083 15.98 12.3181C16.0064 12.4278 16.0067 12.5427 15.9808 12.6526C15.9549 12.7624 15.9037 12.864 15.8316 12.9484C15.7595 13.0328 15.6687 13.0974 15.5672 13.1366C14.2041 13.663 12.7773 14.0508 11.302 14.2844C11.3352 14.7592 11.2745 15.236 11.1236 15.6852C10.9727 16.1343 10.7349 16.546 10.4251 16.8947C10.1152 17.2434 9.73991 17.5215 9.32267 17.7117C8.90543 17.9018 8.45517 18 8.00003 18C7.54489 18 7.09464 17.9018 6.67739 17.7117C6.26015 17.5215 5.88488 17.2434 5.57501 16.8947C5.26514 16.546 5.02734 16.1343 4.87645 15.6852C4.72556 15.236 4.66483 14.7592 4.69805 14.2844C3.24275 14.0538 1.81366 13.6689 0.432836 13.1357C0.331422 13.0965 0.240717 13.032 0.168643 12.9477C0.0965687 12.8635 0.0453173 12.762 0.0193647 12.6523C-0.00658788 12.5425 -0.00645227 12.4278 0.0197598 12.3181C0.0459719 12.2084 0.0974631 12.1071 0.169736 12.023C1.37647 10.6255 2.04329 8.80871 2.04057 6.92568V6.23311ZM6.01531 14.4516C6.00402 14.7316 6.04699 15.011 6.14164 15.2732C6.23629 15.5353 6.38066 15.7747 6.56607 15.977C6.75148 16.1793 6.9741 16.3403 7.22053 16.4502C7.46696 16.5602 7.73211 16.6169 8.00003 16.6169C8.26795 16.6169 8.5331 16.5602 8.77953 16.4502C9.02596 16.3403 9.24858 16.1793 9.43399 15.977C9.6194 15.7747 9.76378 15.5353 9.85843 15.2732C9.95308 15.011 9.99605 14.7316 9.98476 14.4516C8.66428 14.576 7.33578 14.576 6.01531 14.4516Z" fill="#21BC87"/>
</svg>
