<svg width="17" height="18" viewBox="0 0 17 18" fill="none" xmlns="http://www.w3.org/2000/svg">
<path fill-rule="evenodd" clip-rule="evenodd" d="M5.46152 9.23242C5.36203 9.13281 5.30615 8.99778 5.30615 8.857C5.30615 8.71622 5.36203 8.5812 5.46152 8.48159L10.774 3.16909C10.8227 3.11689 10.8813 3.07503 10.9465 3.04599C11.0116 3.01695 11.082 3.00134 11.1533 3.00008C11.2246 2.99882 11.2955 3.01195 11.3616 3.03866C11.4278 3.06538 11.4879 3.10515 11.5383 3.1556C11.5888 3.20605 11.6286 3.26614 11.6553 3.33229C11.682 3.39844 11.6951 3.46929 11.6939 3.54062C11.6926 3.61195 11.677 3.6823 11.6479 3.74747C11.6189 3.81263 11.577 3.87128 11.5249 3.91992L6.58777 8.857L11.5249 13.7941C11.577 13.8427 11.6189 13.9014 11.6479 13.9665C11.677 14.0317 11.6926 14.1021 11.6939 14.1734C11.6951 14.2447 11.682 14.3156 11.6553 14.3817C11.6286 14.4479 11.5888 14.508 11.5383 14.5584C11.4879 14.6089 11.4278 14.6486 11.3616 14.6753C11.2955 14.7021 11.2246 14.7152 11.1533 14.7139C11.082 14.7127 11.0116 14.6971 10.9465 14.668C10.8813 14.639 10.8227 14.5971 10.774 14.5449L5.46152 9.23242Z" fill="black"/>
</svg>
