<svg width="44" height="44" viewBox="0 0 44 44" fill="none" xmlns="http://www.w3.org/2000/svg">
<g clip-path="url(#clip0_1400_3840)">
<path d="M23 9.99609H15C12.243 9.99609 10 12.2391 10 14.9961V27.8501C10 28.6431 10.435 29.3691 11.134 29.7441C11.452 29.9151 11.801 29.9991 12.149 29.9991C12.565 29.9991 12.98 29.8781 13.34 29.6391L17.303 26.9961H23C25.757 26.9961 28 24.7531 28 21.9961V14.9961C28 12.2391 25.757 9.99609 23 9.99609ZM34 18.9961V31.8501C34 32.6431 33.565 33.3691 32.866 33.7441C32.548 33.9151 32.199 33.9991 31.851 34.0001C31.435 34.0001 31.02 33.8791 30.661 33.6401L26.697 30.9961H21C19.55 30.9961 18.253 30.3651 17.339 29.3761L17.908 28.9961H23C26.859 28.9961 30 25.8551 30 21.9961V14.9961C30 14.6881 29.973 14.3881 29.935 14.0901C32.246 14.5301 34 16.5591 34 18.9961Z" fill="#96989C"/>
</g>
<defs>
<clipPath id="clip0_1400_3840">
<rect width="24" height="24" fill="white" transform="translate(10 10)"/>
</clipPath>
</defs>
</svg>
