<svg width="32" height="32" viewBox="0 0 32 32" fill="none" xmlns="http://www.w3.org/2000/svg">
<mask id="mask0_1404_9131" style="mask-type:luminance" maskUnits="userSpaceOnUse" x="0" y="0" width="32" height="32">
<path d="M32 0H0V32H32V0Z" fill="white"/>
</mask>
<g mask="url(#mask0_1404_9131)">
<path d="M28.7467 14.3207L26.9334 12.2141C26.5867 11.8141 26.3067 11.0674 26.3067 10.5341V8.2674C26.3067 6.85406 25.1467 5.69406 23.7334 5.69406H21.4667C20.9467 5.69406 20.1867 5.41406 19.7867 5.0674L17.68 3.25406C16.76 2.4674 15.2534 2.4674 14.32 3.25406L12.2267 5.08073C11.8267 5.41406 11.0667 5.69406 10.5467 5.69406H8.24001C6.82667 5.69406 5.66667 6.85406 5.66667 8.2674V10.5474C5.66667 11.0674 5.38667 11.8141 5.05334 12.2141L3.25334 14.334C2.48001 15.254 2.48001 16.7473 3.25334 17.6673L5.05334 19.7873C5.38667 20.1873 5.66667 20.934 5.66667 21.454V23.734C5.66667 25.1473 6.82667 26.3073 8.24001 26.3073H10.5467C11.0667 26.3073 11.8267 26.5873 12.2267 26.934L14.3334 28.7473C15.2534 29.534 16.76 29.534 17.6934 28.7473L19.8 26.934C20.2 26.5873 20.9467 26.3073 21.48 26.3073H23.7467C25.16 26.3073 26.32 25.1473 26.32 23.734V21.4673C26.32 20.9473 26.6 20.1873 26.9467 19.7873L28.76 17.6807C29.5334 16.7607 29.5334 15.2407 28.7467 14.3207ZM21.5467 13.4807L15.1067 19.9207C14.92 20.1073 14.6667 20.214 14.4 20.214C14.1334 20.214 13.88 20.1073 13.6934 19.9207L10.4667 16.694C10.08 16.3073 10.08 15.6673 10.4667 15.2807C10.8533 14.894 11.4933 14.894 11.88 15.2807L14.4 17.8007L20.1334 12.0674C20.52 11.6807 21.16 11.6807 21.5467 12.0674C21.9334 12.4541 21.9334 13.0941 21.5467 13.4807Z" fill="#2BD383"/>
</g>
</svg>
