<svg width="23" height="23" viewBox="0 0 23 23" fill="none" xmlns="http://www.w3.org/2000/svg">
<g clip-path="url(#clip0_1510_3973)">
<mask id="mask0_1510_3973" style="mask-type:luminance" maskUnits="userSpaceOnUse" x="0" y="0" width="23" height="23">
<path d="M23 0H0V23H23V0Z" fill="white"/>
</mask>
<g mask="url(#mask0_1510_3973)">
<path d="M21.0546 17.5661C21.0546 17.9111 20.9779 18.2657 20.815 18.6107C20.6521 18.9557 20.4413 19.2815 20.1634 19.5882C19.6938 20.1057 19.1763 20.4794 18.5917 20.719C18.0167 20.9586 17.3938 21.0832 16.7229 21.0832C15.7454 21.0832 14.7009 20.8532 13.5988 20.3836C12.4967 19.914 11.3946 19.2815 10.3021 18.4861C9.20002 17.6811 8.15544 16.7898 7.15877 15.8028C6.17169 14.8061 5.28044 13.7615 4.48502 12.669C3.69919 11.5765 3.06669 10.484 2.60669 9.40109C2.14669 8.30859 1.91669 7.264 1.91669 6.26734C1.91669 5.61567 2.03169 4.99275 2.26169 4.41775C2.49169 3.83317 2.85585 3.2965 3.36377 2.81734C3.9771 2.21359 4.64794 1.9165 5.3571 1.9165C5.62544 1.9165 5.89377 1.974 6.13335 2.089C6.38252 2.204 6.60294 2.3765 6.77544 2.62567L8.99877 5.75942C9.17127 5.999 9.29585 6.21942 9.3821 6.43025C9.46835 6.6315 9.51627 6.83275 9.51627 7.01484C9.51627 7.24484 9.44919 7.47484 9.31502 7.69525C9.19044 7.91567 9.00835 8.14567 8.77835 8.37567L8.05002 9.13275C7.9446 9.23817 7.89669 9.36275 7.89669 9.51609C7.89669 9.59275 7.90627 9.65984 7.92544 9.7365C7.95419 9.81317 7.98294 9.87067 8.0021 9.92817C8.1746 10.2444 8.47169 10.6565 8.89335 11.1548C9.3246 11.6532 9.7846 12.1611 10.2829 12.669C10.8004 13.1769 11.2988 13.6465 11.8067 14.0778C12.305 14.4994 12.7171 14.7869 13.0429 14.9594C13.0909 14.9786 13.1484 15.0073 13.2154 15.0361C13.2921 15.0648 13.3688 15.0744 13.455 15.0744C13.6179 15.0744 13.7425 15.0169 13.8479 14.9115L14.5763 14.1928C14.8159 13.9532 15.0459 13.7711 15.2663 13.6561C15.4867 13.5219 15.7071 13.4548 15.9467 13.4548C16.1288 13.4548 16.3204 13.4932 16.5313 13.5794C16.7421 13.6657 16.9625 13.7903 17.2021 13.9532L20.3742 16.2053C20.6234 16.3778 20.7959 16.579 20.9013 16.8186C20.9971 17.0582 21.0546 17.2978 21.0546 17.5661Z" stroke="#96989C" stroke-width="1.5" stroke-miterlimit="10"/>
</g>
</g>
<defs>
<clipPath id="clip0_1510_3973">
<rect width="23" height="23" fill="white"/>
</clipPath>
</defs>
</svg>
