<svg width="36" height="36" viewBox="0 0 36 36" fill="none" xmlns="http://www.w3.org/2000/svg">
<path fill-rule="evenodd" clip-rule="evenodd" d="M18 3.375C9.9225 3.375 3.375 9.9225 3.375 18C3.375 26.0775 9.9225 32.625 18 32.625C26.0775 32.625 32.625 26.0775 32.625 18C32.625 9.9225 26.0775 3.375 18 3.375ZM15.42 13.83C15.317 13.7195 15.1928 13.6308 15.0548 13.5693C14.9168 13.5078 14.7678 13.4748 14.6168 13.4721C14.4657 13.4694 14.3157 13.4972 14.1756 13.5538C14.0355 13.6104 13.9083 13.6946 13.8014 13.8014C13.6946 13.9083 13.6104 14.0355 13.5538 14.1756C13.4972 14.3157 13.4694 14.4657 13.4721 14.6168C13.4748 14.7678 13.5078 14.9168 13.5693 15.0548C13.6308 15.1928 13.7195 15.317 13.83 15.42L16.41 18L13.83 20.58C13.7195 20.683 13.6308 20.8072 13.5693 20.9452C13.5078 21.0832 13.4748 21.2322 13.4721 21.3832C13.4694 21.5343 13.4972 21.6843 13.5538 21.8244C13.6104 21.9645 13.6946 22.0917 13.8014 22.1986C13.9083 22.3054 14.0355 22.3896 14.1756 22.4462C14.3157 22.5028 14.4657 22.5306 14.6168 22.5279C14.7678 22.5252 14.9168 22.4922 15.0548 22.4307C15.1928 22.3692 15.317 22.2805 15.42 22.17L18 19.59L20.58 22.17C20.683 22.2805 20.8072 22.3692 20.9452 22.4307C21.0832 22.4922 21.2322 22.5252 21.3832 22.5279C21.5343 22.5306 21.6843 22.5028 21.8244 22.4462C21.9645 22.3896 22.0917 22.3054 22.1986 22.1986C22.3054 22.0917 22.3896 21.9645 22.4462 21.8244C22.5028 21.6843 22.5306 21.5343 22.5279 21.3832C22.5252 21.2322 22.4922 21.0832 22.4307 20.9452C22.3692 20.8072 22.2805 20.683 22.17 20.58L19.59 18L22.17 15.42C22.2805 15.317 22.3692 15.1928 22.4307 15.0548C22.4922 14.9168 22.5252 14.7678 22.5279 14.6168C22.5306 14.4657 22.5028 14.3157 22.4462 14.1756C22.3896 14.0355 22.3054 13.9083 22.1986 13.8014C22.0917 13.6946 21.9645 13.6104 21.8244 13.5538C21.6843 13.4972 21.5343 13.4694 21.3832 13.4721C21.2322 13.4748 21.0832 13.5078 20.9452 13.5693C20.8072 13.6308 20.683 13.7195 20.58 13.83L18 16.41L15.42 13.83Z" fill="white"/>
</svg>
