<svg width="44" height="44" viewBox="0 0 44 44" fill="none" xmlns="http://www.w3.org/2000/svg">
<g clip-path="url(#clip0_1400_3839)">
<path d="M10 29C10.0016 30.3256 10.5289 31.5964 11.4662 32.5338C12.4036 33.4711 13.6744 33.9984 15 34H29C30.3256 33.9984 31.5964 33.4711 32.5338 32.5338C33.4711 31.5964 33.9984 30.3256 34 29V20H10V29ZM27 24.5C27.2967 24.5 27.5867 24.588 27.8334 24.7528C28.08 24.9176 28.2723 25.1519 28.3858 25.426C28.4993 25.7001 28.5291 26.0017 28.4712 26.2926C28.4133 26.5836 28.2704 26.8509 28.0607 27.0607C27.8509 27.2704 27.5836 27.4133 27.2926 27.4712C27.0017 27.5291 26.7001 27.4994 26.426 27.3858C26.1519 27.2723 25.9176 27.08 25.7528 26.8334C25.588 26.5867 25.5 26.2967 25.5 26C25.5 25.6022 25.658 25.2206 25.9393 24.9393C26.2206 24.658 26.6022 24.5 27 24.5ZM22 24.5C22.2967 24.5 22.5867 24.588 22.8334 24.7528C23.08 24.9176 23.2723 25.1519 23.3858 25.426C23.4994 25.7001 23.5291 26.0017 23.4712 26.2926C23.4133 26.5836 23.2704 26.8509 23.0607 27.0607C22.8509 27.2704 22.5836 27.4133 22.2926 27.4712C22.0017 27.5291 21.7001 27.4994 21.426 27.3858C21.1519 27.2723 20.9176 27.08 20.7528 26.8334C20.588 26.5867 20.5 26.2967 20.5 26C20.5 25.6022 20.658 25.2206 20.9393 24.9393C21.2206 24.658 21.6022 24.5 22 24.5ZM17 24.5C17.2967 24.5 17.5867 24.588 17.8334 24.7528C18.08 24.9176 18.2723 25.1519 18.3858 25.426C18.4994 25.7001 18.5291 26.0017 18.4712 26.2926C18.4133 26.5836 18.2704 26.8509 18.0607 27.0607C17.8509 27.2704 17.5836 27.4133 17.2926 27.4712C17.0017 27.5291 16.7001 27.4994 16.426 27.3858C16.1519 27.2723 15.9176 27.08 15.7528 26.8334C15.588 26.5867 15.5 26.2967 15.5 26C15.5 25.6022 15.658 25.2206 15.9393 24.9393C16.2206 24.658 16.6022 24.5 17 24.5Z" fill="#96989C"/>
<path d="M29 12H28V11C28 10.7348 27.8946 10.4804 27.7071 10.2929C27.5196 10.1054 27.2652 10 27 10C26.7348 10 26.4804 10.1054 26.2929 10.2929C26.1054 10.4804 26 10.7348 26 11V12H18V11C18 10.7348 17.8946 10.4804 17.7071 10.2929C17.5196 10.1054 17.2652 10 17 10C16.7348 10 16.4804 10.1054 16.2929 10.2929C16.1054 10.4804 16 10.7348 16 11V12H15C13.6744 12.0016 12.4036 12.5289 11.4662 13.4662C10.5289 14.4036 10.0016 15.6744 10 17L10 18H34V17C33.9984 15.6744 33.4711 14.4036 32.5338 13.4662C31.5964 12.5289 30.3256 12.0016 29 12Z" fill="#96989C"/>
</g>
<defs>
<clipPath id="clip0_1400_3839">
<rect width="24" height="24" fill="white" transform="translate(10 10)"/>
</clipPath>
</defs>
</svg>
