<svg width="26" height="26" viewBox="0 0 26 26" fill="none" xmlns="http://www.w3.org/2000/svg">
<mask id="mask0_1516_7420" style="mask-type:luminance" maskUnits="userSpaceOnUse" x="0" y="0" width="26" height="26">
<path d="M26 0H0V26H26V0Z" fill="white"/>
</mask>
<g mask="url(#mask0_1516_7420)">
<path d="M22.8476 23.291C22.8476 23.5943 22.6092 23.8327 22.3059 23.8327H3.69425C3.39092 23.8327 3.15259 23.5943 3.15259 23.291C3.15259 18.806 7.57259 15.166 13.0001 15.166C14.1159 15.166 15.1992 15.3177 16.1959 15.6102C15.5567 16.3685 15.1667 17.3543 15.1667 18.416C15.1667 19.2285 15.3942 19.9977 15.7951 20.6477C16.0117 21.016 16.2934 21.3518 16.6184 21.6335C17.3767 22.3268 18.3842 22.7493 19.5001 22.7493C20.7134 22.7493 21.8076 22.251 22.5876 21.4493C22.7609 22.0343 22.8476 22.6518 22.8476 23.291Z" fill="#E63D4F"/>
<path d="M22.4099 17.7819C22.3349 17.489 22.2149 17.196 22.05 16.9331C21.9375 16.7378 21.7875 16.55 21.6225 16.3772C21.0826 15.8364 20.3776 15.5434 19.6577 15.5059C18.8403 15.4533 18.0079 15.7538 17.3779 16.3772C16.7855 16.9707 16.4855 17.7594 16.5005 18.5481C16.508 19.2993 16.808 20.0504 17.3779 20.6288C17.7754 21.027 18.2629 21.2899 18.7803 21.4101C19.0653 21.4852 19.3652 21.5152 19.6652 21.4927C20.3776 21.4626 21.0751 21.1772 21.6225 20.6288C22.3949 19.8551 22.6574 18.7659 22.4099 17.7819ZM20.7001 19.7049C20.4826 19.9227 20.1227 19.9227 19.9052 19.7049L19.4927 19.2918L19.0953 19.6899C18.8778 19.9077 18.5178 19.9077 18.3004 19.6899C18.0829 19.4645 18.0829 19.1115 18.3004 18.8936L18.6978 18.4955L18.3153 18.1199C18.0979 17.8946 18.0979 17.5415 18.3153 17.3162C18.5403 17.0984 18.8928 17.0984 19.1178 17.3162L19.4927 17.6993L19.8902 17.3012C20.1077 17.0833 20.4601 17.0833 20.6851 17.3012C20.9026 17.519 20.9026 17.8796 20.6851 18.0974L20.2876 18.4955L20.7001 18.9087C20.9176 19.1265 20.9176 19.4871 20.7001 19.7049Z" fill="#E63D4F"/>
<path d="M13.0002 12.9993C15.9917 12.9993 18.4168 10.5742 18.4168 7.58268C18.4168 4.59114 15.9917 2.16602 13.0002 2.16602C10.0086 2.16602 7.5835 4.59114 7.5835 7.58268C7.5835 10.5742 10.0086 12.9993 13.0002 12.9993Z" fill="#E63D4F"/>
</g>
</svg>
