<svg width="18" height="18" viewBox="0 0 18 18" fill="none" xmlns="http://www.w3.org/2000/svg">
<path fill-rule="evenodd" clip-rule="evenodd" d="M0 9C0 4.02923 4.02923 0 9 0C13.9708 0 18 4.02923 18 9C18 13.9708 13.9708 18 9 18C4.02923 18 0 13.9708 0 9ZM10.5028 5.38431C9.68123 4.66708 8.31877 4.66708 7.49815 5.38431C7.35996 5.50525 7.17938 5.56633 6.99614 5.55413C6.8129 5.54192 6.64202 5.45743 6.52108 5.31923C6.40014 5.18103 6.33905 5.00045 6.35126 4.81721C6.36346 4.63398 6.44796 4.46309 6.58615 4.34215C7.92831 3.168 10.0717 3.168 11.4138 4.34215C12.8105 5.56431 12.8105 7.58954 11.4138 8.81169C11.1803 9.01536 10.9204 9.18673 10.6412 9.32123C10.0172 9.624 9.69231 10.0357 9.69231 10.3846V11.0769C9.69231 11.2605 9.61937 11.4366 9.48954 11.5665C9.3597 11.6963 9.18361 11.7692 9 11.7692C8.81639 11.7692 8.6403 11.6963 8.51046 11.5665C8.38063 11.4366 8.30769 11.2605 8.30769 11.0769V10.3846C8.30769 9.204 9.28615 8.43969 10.0385 8.07508C10.2065 7.99385 10.3625 7.89138 10.5028 7.76954C11.2689 7.09846 11.2689 6.05538 10.5028 5.38431ZM9 14.5385C9.18361 14.5385 9.3597 14.4655 9.48954 14.3357C9.61937 14.2059 9.69231 14.0298 9.69231 13.8462C9.69231 13.6625 9.61937 13.4865 9.48954 13.3566C9.3597 13.2268 9.18361 13.1538 9 13.1538C8.81639 13.1538 8.6403 13.2268 8.51046 13.3566C8.38063 13.4865 8.30769 13.6625 8.30769 13.8462C8.30769 14.0298 8.38063 14.2059 8.51046 14.3357C8.6403 14.4655 8.81639 14.5385 9 14.5385Z" fill="#21BC87"/>
</svg>
