<svg width="40" height="40" viewBox="0 0 40 40" fill="none" xmlns="http://www.w3.org/2000/svg">
<mask id="mask0_1509_2605" style="mask-type:luminance" maskUnits="userSpaceOnUse" x="0" y="0" width="40" height="40">
<path d="M40 0H0V40H40V0Z" fill="white"/>
</mask>
<g mask="url(#mask0_1509_2605)">
<path opacity="0.4" d="M19.9503 36.6668C29.1552 36.6668 36.617 29.2048 36.617 20.0002C36.617 10.7954 29.1552 3.3335 19.9503 3.3335C10.7456 3.3335 3.28369 10.7954 3.28369 20.0002C3.28369 29.2048 10.7456 36.6668 19.9503 36.6668Z" fill="white"/>
<path d="M24.9499 17.0505L20.1166 14.2672C18.9166 13.5672 17.4666 13.5672 16.2665 14.2672C15.0665 14.9672 14.3499 16.2005 14.3499 17.6005V23.1838C14.3499 24.5672 15.0665 25.8172 16.2665 26.5172C16.8666 26.8672 17.5333 27.0338 18.1833 27.0338C18.8499 27.0338 19.4999 26.8672 20.0999 26.5172L24.9333 23.7338C26.1333 23.0338 26.8499 21.8005 26.8499 20.4005C26.8833 19.0005 26.1666 17.7505 24.9499 17.0505Z" fill="white"/>
</g>
</svg>
