<svg width="43" height="43" viewBox="0 0 43 43" fill="none" xmlns="http://www.w3.org/2000/svg">
<mask id="mask0_1509_2742" style="mask-type:luminance" maskUnits="userSpaceOnUse" x="0" y="0" width="43" height="43">
<path d="M0 43L43 43L43 3.75918e-06L3.75918e-06 0L0 43Z" fill="white"/>
</mask>
<g mask="url(#mask0_1509_2742)">
<path d="M39.4167 28.0569L39.4167 14.942C39.4167 12.2545 36.4963 10.5703 34.1672 11.9141L28.4876 15.1928L22.808 18.4716L21.9301 18.9732L21.9301 24.0257L22.808 24.5274L28.4876 27.8061L34.1672 31.0849C36.4963 32.4286 39.4167 30.7444 39.4167 28.0569Z" fill="white"/>
<path d="M21.9302 28.0569L21.9302 14.942C21.9302 12.2545 19.0098 10.5703 16.6985 11.9141L11.001 15.1928L5.32143 18.4716C3.01018 19.8153 3.01018 23.1836 5.32143 24.5274L11.001 27.8061L16.6985 31.0849C19.0098 32.4286 21.9302 30.7444 21.9302 28.0569Z" fill="white"/>
</g>
</svg>
