<svg width="21" height="22" viewBox="0 0 21 22" fill="none" xmlns="http://www.w3.org/2000/svg">
<path opacity="0.987" fill-rule="evenodd" clip-rule="evenodd" d="M9.2624 0.0944154C10.3892 -0.0314718 11.0559 -0.0314718 12.2666 0.0944154C14.4097 0.411613 16.3964 1.40222 17.9393 2.92299C16.8967 3.90854 15.8677 4.90848 14.8527 5.92253C12.909 4.27512 10.7394 3.89486 8.34389 4.78177C6.58665 5.58994 5.363 6.89958 4.67295 8.7107C3.54531 7.87119 2.43236 7.01212 1.3346 6.1339C1.25831 6.09374 1.17118 6.07904 1.08594 6.09193C2.82971 2.72976 5.55468 0.730068 9.26085 0.0928612" fill="#F44336"/>
<path opacity="0.997" fill-rule="evenodd" clip-rule="evenodd" d="M1.08209 6.09187C1.17016 6.0784 1.25357 6.09239 1.33231 6.13383C2.43007 7.01206 3.54302 7.87112 4.67066 8.71064C4.49321 9.41632 4.38135 10.1369 4.33651 10.8632C4.37485 11.5656 4.48623 12.2552 4.67066 12.9317L1.16602 15.7215C-0.360175 12.5323 -0.388149 9.32246 1.08209 6.09187Z" fill="#FFC107"/>
<path opacity="0.999" fill-rule="evenodd" clip-rule="evenodd" d="M17.7713 19.1003C16.6801 18.1379 15.5377 17.2352 14.3491 16.396C15.5406 15.5547 16.2638 14.4005 16.5187 12.9334H10.6797V8.87856C14.047 8.85058 17.4129 8.87908 20.7771 8.96404C21.4153 12.4298 20.6782 15.5547 18.5655 18.3388C18.3143 18.6058 18.0482 18.86 17.7713 19.1003Z" fill="#448AFF"/>
<path opacity="0.993" fill-rule="evenodd" clip-rule="evenodd" d="M4.67066 12.9333C5.94507 16.1007 8.2815 17.5793 11.6799 17.3689C12.6339 17.2585 13.5486 16.9252 14.35 16.396C15.5395 17.2373 16.6802 18.1388 17.7723 19.1003C16.0419 20.6551 13.8357 21.5777 11.5136 21.7175C10.9861 21.7597 10.456 21.7597 9.9284 21.7175C5.97253 21.2512 3.05174 19.2526 1.16602 15.7215L4.67066 12.9333Z" fill="#43A047"/>
</svg>
