<svg width="44" height="44" viewBox="0 0 44 44" fill="none" xmlns="http://www.w3.org/2000/svg">
<path d="M22 24.9851C20.3432 24.9851 19 26.3283 19 27.9851V33.9851H25V27.9851C25 26.3283 23.6568 24.9851 22 24.9851Z" fill="#96989C"/>
<path d="M27 27.985V33.985H31C32.6568 33.985 34 32.6418 34 30.985V21.864C34.0002 21.3445 33.7983 20.8453 33.437 20.472L24.939 11.285C23.4396 9.6627 20.9089 9.56309 19.2865 11.0625C19.2095 11.1338 19.1352 11.208 19.064 11.285L10.581 20.469C10.2087 20.8439 9.99986 21.3508 10 21.879V30.985C10 32.6418 11.3432 33.985 13 33.985H17V27.985C17.0187 25.2582 19.2203 23.0315 21.8784 22.9673C24.6255 22.901 26.9791 25.1657 27 27.985Z" fill="#96989C"/>
<path d="M22 24.9851C20.3432 24.9851 19 26.3283 19 27.9851V33.9851H25V27.9851C25 26.3283 23.6568 24.9851 22 24.9851Z" fill="#96989C"/>
</svg>
