<svg width="14" height="14" viewBox="0 0 14 14" fill="none" xmlns="http://www.w3.org/2000/svg">
<g clip-path="url(#clip0_1438_10846)">
<path fill-rule="evenodd" clip-rule="evenodd" d="M5.25005 2.625C5.34511 2.62502 5.43758 2.656 5.51347 2.71326C5.58935 2.77051 5.64452 2.85093 5.67063 2.94233L6.14488 4.6025C6.247 4.96004 6.43856 5.28564 6.70149 5.54857C6.96441 5.81149 7.29001 6.00305 7.64755 6.10517L9.30772 6.57942C9.39906 6.60558 9.47941 6.66078 9.5366 6.73666C9.5938 6.81254 9.62474 6.90498 9.62474 7C9.62474 7.09502 9.5938 7.18746 9.5366 7.26334C9.47941 7.33922 9.39906 7.39442 9.30772 7.42058L7.64755 7.89483C7.29001 7.99695 6.96441 8.18851 6.70149 8.45143C6.43856 8.71436 6.247 9.03996 6.14488 9.3975L5.67063 11.0577C5.64447 11.149 5.58927 11.2294 5.51339 11.2866C5.43751 11.3437 5.34507 11.3747 5.25005 11.3747C5.15503 11.3747 5.06259 11.3437 4.98671 11.2866C4.91083 11.2294 4.85564 11.149 4.82947 11.0577L4.35522 9.3975C4.25311 9.03996 4.06154 8.71436 3.79862 8.45143C3.53569 8.18851 3.21009 7.99695 2.85255 7.89483L1.19238 7.42058C1.10104 7.39442 1.02069 7.33922 0.963497 7.26334C0.906302 7.18746 0.875366 7.09502 0.875366 7C0.875366 6.90498 0.906302 6.81254 0.963497 6.73666C1.02069 6.66078 1.10104 6.60558 1.19238 6.57942L2.85255 6.10517C3.21009 6.00305 3.53569 5.81149 3.79862 5.54857C4.06154 5.28564 4.25311 4.96004 4.35522 4.6025L4.82947 2.94233C4.85558 2.85093 4.91075 2.77051 4.98663 2.71326C5.06252 2.656 5.15499 2.62502 5.25005 2.625ZM10.5001 0.875C10.5977 0.874946 10.6925 0.907529 10.7694 0.967567C10.8464 1.02761 10.901 1.11165 10.9247 1.20633L11.0752 1.81067C11.2129 2.359 11.6411 2.78717 12.1894 2.92483L12.7937 3.07533C12.8886 3.09883 12.9728 3.15342 13.0331 3.23038C13.0933 3.30735 13.126 3.40227 13.126 3.5C13.126 3.59773 13.0933 3.69265 13.0331 3.76962C12.9728 3.84658 12.8886 3.90117 12.7937 3.92467L12.1894 4.07517C11.6411 4.21283 11.2129 4.641 11.0752 5.18933L10.9247 5.79367C10.9012 5.88853 10.8466 5.9728 10.7697 6.03303C10.6927 6.09326 10.5978 6.12598 10.5001 6.12598C10.4023 6.12598 10.3074 6.09326 10.2304 6.03303C10.1535 5.9728 10.0989 5.88853 10.0754 5.79367L9.92488 5.18933C9.85757 4.92008 9.71835 4.67419 9.52211 4.47794C9.32586 4.2817 9.07997 4.14248 8.81072 4.07517L8.20638 3.92467C8.11152 3.90117 8.02725 3.84658 7.96702 3.76962C7.9068 3.69265 7.87407 3.59773 7.87407 3.5C7.87407 3.40227 7.9068 3.30735 7.96702 3.23038C8.02725 3.15342 8.11152 3.09883 8.20638 3.07533L8.81072 2.92483C9.07997 2.85752 9.32586 2.7183 9.52211 2.52206C9.71835 2.32581 9.85757 2.07992 9.92488 1.81067L10.0754 1.20633C10.0991 1.11165 10.1537 1.02761 10.2307 0.967567C10.3076 0.907529 10.4025 0.874946 10.5001 0.875ZM9.62505 8.75C9.71694 8.74995 9.8065 8.77882 9.88105 8.83254C9.9556 8.88625 10.0113 8.96207 10.0404 9.04925L10.2702 9.73933C10.3577 10.0001 10.5619 10.2054 10.8232 10.2923L11.5133 10.5227C11.6002 10.5519 11.6757 10.6077 11.7293 10.6821C11.7828 10.7565 11.8116 10.8458 11.8116 10.9375C11.8116 11.0292 11.7828 11.1185 11.7293 11.1929C11.6757 11.2673 11.6002 11.3231 11.5133 11.3523L10.8232 11.5827C10.5625 11.6702 10.3571 11.8743 10.2702 12.1357L10.0398 12.8257C10.0106 12.9126 9.9549 12.9882 9.88048 13.0417C9.80606 13.0952 9.71671 13.124 9.62505 13.124C9.53339 13.124 9.44404 13.0952 9.36962 13.0417C9.2952 12.9882 9.23947 12.9126 9.2103 12.8257L8.97988 12.1357C8.93692 12.0069 8.86458 11.8899 8.7686 11.7939C8.67263 11.698 8.55564 11.6256 8.42688 11.5827L7.7368 11.3523C7.6499 11.3231 7.57437 11.2673 7.52085 11.1929C7.46733 11.1185 7.43854 11.0292 7.43854 10.9375C7.43854 10.8458 7.46733 10.7565 7.52085 10.6821C7.57437 10.6077 7.6499 10.5519 7.7368 10.5227L8.42688 10.2923C8.68763 10.2048 8.89297 10.0007 8.97988 9.73933L9.2103 9.04925C9.2393 8.96217 9.29496 8.88641 9.3694 8.83271C9.44383 8.779 9.53327 8.75007 9.62505 8.75Z" fill="white"/>
</g>
<defs>
<clipPath id="clip0_1438_10846">
<rect width="14" height="14" fill="white"/>
</clipPath>
</defs>
</svg>
