<svg width="20" height="20" viewBox="0 0 20 20" fill="none" xmlns="http://www.w3.org/2000/svg">
<path fill-rule="evenodd" clip-rule="evenodd" d="M7.49955 3.75C7.63535 3.75003 7.76745 3.79429 7.87586 3.87608C7.98427 3.95788 8.06308 4.07275 8.10038 4.20333L8.77788 6.575C8.92376 7.08577 9.19742 7.55092 9.57303 7.92652C9.94863 8.30213 10.4138 8.57579 10.9245 8.72167L13.2962 9.39917C13.4267 9.43655 13.5415 9.5154 13.6232 9.6238C13.7049 9.7322 13.7491 9.86426 13.7491 10C13.7491 10.1357 13.7049 10.2678 13.6232 10.3762C13.5415 10.4846 13.4267 10.5635 13.2962 10.6008L10.9245 11.2783C10.4138 11.4242 9.94863 11.6979 9.57303 12.0735C9.19742 12.4491 8.92376 12.9142 8.77788 13.425L8.10038 15.7967C8.063 15.9272 7.98415 16.0419 7.87575 16.1236C7.76735 16.2054 7.63529 16.2496 7.49955 16.2496C7.3638 16.2496 7.23175 16.2054 7.12335 16.1236C7.01495 16.0419 6.9361 15.9272 6.89872 15.7967L6.22122 13.425C6.07534 12.9142 5.80168 12.4491 5.42607 12.0735C5.05047 11.6979 4.58531 11.4242 4.07455 11.2783L1.70288 10.6008C1.57239 10.5635 1.45761 10.4846 1.3759 10.3762C1.29419 10.2678 1.25 10.1357 1.25 10C1.25 9.86426 1.29419 9.7322 1.3759 9.6238C1.45761 9.5154 1.57239 9.43655 1.70288 9.39917L4.07455 8.72167C4.58531 8.57579 5.05047 8.30213 5.42607 7.92652C5.80168 7.55092 6.07534 7.08577 6.22122 6.575L6.89872 4.20333C6.93602 4.07275 7.01483 3.95788 7.12324 3.87608C7.23165 3.79429 7.36375 3.75003 7.49955 3.75ZM14.9996 1.25C15.139 1.24992 15.2744 1.29647 15.3844 1.38224C15.4943 1.46801 15.5724 1.58807 15.6062 1.72333L15.8212 2.58667C16.0179 3.37 16.6296 3.98167 17.4129 4.17833L18.2762 4.39333C18.4117 4.4269 18.5321 4.50488 18.6182 4.61483C18.7042 4.72479 18.7509 4.86038 18.7509 5C18.7509 5.13962 18.7042 5.27521 18.6182 5.38517C18.5321 5.49512 18.4117 5.5731 18.2762 5.60667L17.4129 5.82167C16.6296 6.01833 16.0179 6.63 15.8212 7.41333L15.6062 8.27667C15.5726 8.41219 15.4947 8.53257 15.3847 8.61861C15.2748 8.70465 15.1392 8.7514 14.9996 8.7514C14.8599 8.7514 14.7243 8.70465 14.6144 8.61861C14.5044 8.53257 14.4265 8.41219 14.3929 8.27667L14.1779 7.41333C14.0817 7.02869 13.8828 6.67742 13.6025 6.39706C13.3221 6.11671 12.9709 5.91782 12.5862 5.82167L11.7229 5.60667C11.5874 5.5731 11.467 5.49512 11.3809 5.38517C11.2949 5.27521 11.2482 5.13962 11.2482 5C11.2482 4.86038 11.2949 4.72479 11.3809 4.61483C11.467 4.50488 11.5874 4.4269 11.7229 4.39333L12.5862 4.17833C12.9709 4.08218 13.3221 3.88329 13.6025 3.60294C13.8828 3.32258 14.0817 2.97131 14.1779 2.58667L14.3929 1.72333C14.4267 1.58807 14.5048 1.46801 14.6147 1.38224C14.7247 1.29647 14.8601 1.24992 14.9996 1.25ZM13.7495 12.5C13.8808 12.4999 14.0088 12.5412 14.1153 12.6179C14.2218 12.6946 14.3014 12.803 14.3429 12.9275L14.6712 13.9133C14.7962 14.2858 15.0879 14.5792 15.4612 14.7033L16.4471 15.0325C16.5712 15.0742 16.6791 15.1538 16.7556 15.2601C16.832 15.3664 16.8731 15.4941 16.8731 15.625C16.8731 15.7559 16.832 15.8836 16.7556 15.9899C16.6791 16.0962 16.5712 16.1758 16.4471 16.2175L15.4612 16.5467C15.0887 16.6717 14.7954 16.9633 14.6712 17.3367L14.3421 18.3225C14.3004 18.4466 14.2208 18.5546 14.1144 18.631C14.0081 18.7075 13.8805 18.7486 13.7495 18.7486C13.6186 18.7486 13.491 18.7075 13.3847 18.631C13.2783 18.5546 13.1987 18.4466 13.157 18.3225L12.8279 17.3367C12.7665 17.1527 12.6632 16.9856 12.5261 16.8485C12.3889 16.7114 12.2218 16.6081 12.0379 16.5467L11.052 16.2175C10.9279 16.1758 10.82 16.0962 10.7435 15.9899C10.6671 15.8836 10.626 15.7559 10.626 15.625C10.626 15.4941 10.6671 15.3664 10.7435 15.2601C10.82 15.1538 10.9279 15.0742 11.052 15.0325L12.0379 14.7033C12.4104 14.5783 12.7037 14.2867 12.8279 13.9133L13.157 12.9275C13.1985 12.8031 13.278 12.6949 13.3843 12.6182C13.4907 12.5414 13.6184 12.5001 13.7495 12.5Z" fill="black"/>
</svg>
