<svg width="49" height="49" viewBox="0 0 49 49" fill="none" xmlns="http://www.w3.org/2000/svg">
<mask id="mask0_1385_2209" style="mask-type:alpha" maskUnits="userSpaceOnUse" x="0" y="0" width="49" height="49">
<circle cx="24.5" cy="24.5" r="24.5" fill="white"/>
</mask>
<g mask="url(#mask0_1385_2209)">
<path d="M24.6599 27.1267C29.1062 27.1267 32.7107 23.5223 32.7107 19.0759C32.7107 14.6296 29.1062 11.0251 24.6599 11.0251C20.2136 11.0251 16.6091 14.6296 16.6091 19.0759C16.6091 23.5223 20.2136 27.1267 24.6599 27.1267Z" fill="#626262"/>
<path d="M24.6598 31.1519C16.5929 31.1519 10.0234 36.562 10.0234 43.228C10.0234 43.6789 10.3777 44.0331 10.8285 44.0331L24.6598 52.7281L38.491 44.0331C38.9419 44.0331 39.2961 43.6789 39.2961 43.228C39.2961 36.562 32.7266 31.1519 24.6598 31.1519Z" fill="#626262"/>
</g>
</svg>
