<svg width="36" height="36" viewBox="0 0 36 36" fill="none" xmlns="http://www.w3.org/2000/svg">
<g clip-path="url(#clip0_1865_2077)">
<mask id="mask0_1865_2077" style="mask-type:luminance" maskUnits="userSpaceOnUse" x="0" y="0" width="36" height="36">
<path d="M36 0H0V36H36V0Z" fill="white"/>
</mask>
<g mask="url(#mask0_1865_2077)">
<path d="M26.4299 8.58L10.5148 24.495C9.41982 23.01 8.81982 21.195 8.81982 19.23V12.165C8.81982 9.405 10.0498 6.93 11.9998 5.25V11.46C11.9998 12.045 12.4798 12.525 13.0498 12.525C13.6348 12.525 14.1148 12.045 14.1148 11.46V3.855C14.8048 3.51 15.5399 3.27 16.3049 3.135V8.625C16.3049 9.225 16.7849 9.69 17.3699 9.69C17.9549 9.69 18.4349 9.225 18.4349 8.625V3C22.0199 3.165 25.1099 5.415 26.4299 8.58Z" fill="white"/>
<path d="M27.18 13.3193V19.2294C27.18 24.2844 23.055 28.4094 18 28.4094C17.73 28.4094 17.46 28.3944 17.19 28.3644C17.07 28.3644 16.95 28.3494 16.845 28.3344C16.65 28.3044 16.455 28.2744 16.275 28.2444C16.2 28.2444 16.14 28.2144 16.05 28.1994C15.84 28.1544 15.63 28.0944 15.435 28.0344C15.105 27.9444 14.79 27.8244 14.49 27.7044C14.295 27.6294 14.115 27.5544 13.935 27.4494C13.89 27.4344 13.86 27.4044 13.815 27.3894C13.665 27.3144 13.515 27.2394 13.365 27.1344L27.18 13.3193Z" fill="white"/>
<path d="M32.625 16.5V19.5C32.625 27.57 26.07 34.125 18 34.125C14.82 34.125 11.775 33.105 9.27002 31.23L10.89 29.61C12.96 31.08 15.42 31.875 18 31.875C24.825 31.875 30.375 26.325 30.375 19.5V16.5C30.375 15.885 30.885 15.375 31.5 15.375C32.115 15.375 32.625 15.885 32.625 16.5Z" fill="white"/>
<path d="M32.6549 3.34434C32.2049 2.89434 31.4699 2.89434 31.0199 3.34434L3.34482 31.0344C2.89482 31.4844 2.89482 32.2194 3.34482 32.6694C3.56982 32.8794 3.85482 32.9994 4.15482 32.9994C4.45482 32.9994 4.73982 32.8794 4.96482 32.6544L32.6549 4.96434C33.1199 4.51434 33.1199 3.79434 32.6549 3.34434Z" fill="white"/>
</g>
</g>
<defs>
<clipPath id="clip0_1865_2077">
<rect width="36" height="36" fill="white"/>
</clipPath>
</defs>
</svg>
