<svg width="32" height="32" viewBox="0 0 32 32" fill="none" xmlns="http://www.w3.org/2000/svg">
<g clip-path="url(#clip0_1976_2092)">
<mask id="mask0_1976_2092" style="mask-type:luminance" maskUnits="userSpaceOnUse" x="0" y="0" width="32" height="32">
<path d="M32 0H0V32H32V0Z" fill="white"/>
</mask>
<g mask="url(#mask0_1976_2092)">
<path d="M28.3334 24.6267L26.1334 25.1467C25.6401 25.2667 25.2534 25.6401 25.1467 26.1334L24.6801 28.0934C24.4267 29.1601 23.0667 29.4934 22.3601 28.6534L18.3734 24.0667C18.0534 23.6934 18.2267 23.1067 18.7067 22.9867C21.0667 22.4134 23.1867 21.0934 24.7467 19.2134C25.0001 18.9067 25.4534 18.8667 25.7334 19.1467L28.6934 22.1067C29.7067 23.1201 29.3467 24.3867 28.3334 24.6267Z" fill="#21BC87"/>
<path d="M3.59997 24.6267L5.79997 25.1467C6.29331 25.2667 6.67997 25.6401 6.78664 26.1334L7.25331 28.0934C7.50664 29.1601 8.86664 29.4934 9.57331 28.6534L13.5599 24.0667C13.8799 23.6934 13.7066 23.1067 13.2266 22.9867C10.8666 22.4134 8.74664 21.0934 7.18664 19.2134C6.93331 18.9067 6.47997 18.8667 6.19997 19.1467L3.23997 22.1067C2.22664 23.1201 2.58664 24.3867 3.59997 24.6267Z" fill="#21BC87"/>
<path d="M16.0001 2.66663C10.8401 2.66663 6.66675 6.83996 6.66675 12C6.66675 13.9333 7.24008 15.7066 8.22675 17.1866C9.66675 19.32 11.9467 20.8266 14.6001 21.2133C15.0534 21.2933 15.5201 21.3333 16.0001 21.3333C16.4801 21.3333 16.9467 21.2933 17.4001 21.2133C20.0534 20.8266 22.3334 19.32 23.7734 17.1866C24.7601 15.7066 25.3334 13.9333 25.3334 12C25.3334 6.83996 21.1601 2.66663 16.0001 2.66663ZM20.0801 11.7066L18.9734 12.8133C18.7867 13 18.6801 13.36 18.7467 13.6266L19.0667 15C19.3201 16.08 18.7467 16.5066 17.7867 15.9333L16.4534 15.1466C16.2134 15 15.8134 15 15.5734 15.1466L14.2401 15.9333C13.2801 16.4933 12.7067 16.08 12.9601 15L13.2801 13.6266C13.3334 13.3733 13.2401 13 13.0534 12.8133L11.9201 11.7066C11.2667 11.0533 11.4801 10.4 12.3867 10.2533L13.8134 10.0133C14.0534 9.97329 14.3334 9.75996 14.4401 9.54663L15.2267 7.97329C15.6534 7.11996 16.3467 7.11996 16.7734 7.97329L17.5601 9.54663C17.6667 9.75996 17.9467 9.97329 18.2001 10.0133L19.6267 10.2533C20.5201 10.4 20.7334 11.0533 20.0801 11.7066Z" fill="#21BC87"/>
</g>
</g>
<defs>
<clipPath id="clip0_1976_2092">
<rect width="32" height="32" fill="white"/>
</clipPath>
</defs>
</svg>
