<svg width="24" height="12" viewBox="0 0 24 12" fill="none" xmlns="http://www.w3.org/2000/svg">
<path d="M17.5609 11.5158C15.7409 11.5158 14.0616 10.66 12.9675 9.15415C12.7075 8.79665 12.7833 8.28748 13.1408 8.01664C13.4983 7.74581 14.0076 7.83248 14.2784 8.18998C15.0692 9.26248 16.2609 9.87998 17.5609 9.87998C19.8251 9.87998 21.6775 8.03831 21.6775 5.76331C21.6775 3.48834 19.8359 1.64669 17.5609 1.64669C16.0226 1.64669 14.5708 2.46999 13.78 3.78081L10.9091 8.55831C9.8258 10.3675 7.84336 11.4834 5.74169 11.4834C2.57835 11.4834 0 8.90498 0 5.74165C0 2.57832 2.57835 0 5.74169 0C7.56169 0 9.24084 0.855822 10.335 2.36166C10.595 2.71916 10.5191 3.22838 10.1616 3.49921C9.7933 3.75925 9.29502 3.68331 9.02419 3.32584C8.23336 2.25334 7.04169 1.63584 5.74169 1.63584C3.47752 1.63584 1.625 3.4775 1.625 5.75248C1.625 8.02748 3.46669 9.86925 5.74169 9.86925C7.28002 9.86925 8.73168 9.04581 9.52247 7.73498L12.3933 2.95754C13.4766 1.14838 15.4592 0.0325328 17.5609 0.0325328C20.7242 0.0325328 23.3025 2.61085 23.3025 5.77415C23.3025 8.93748 20.7242 11.5158 17.5609 11.5158Z" fill="#737373"/>
</svg>
