<svg width="32" height="32" viewBox="0 0 32 32" fill="none" xmlns="http://www.w3.org/2000/svg">
<path d="M0 16C0 7.16344 7.16344 0 16 0C24.8366 0 32 7.16344 32 16C32 24.8366 24.8366 32 16 32C7.16344 32 0 24.8366 0 16Z" fill="white" fill-opacity="0.15"/>
<path d="M16 0.5C24.5604 0.5 31.5 7.43959 31.5 16C31.5 24.5604 24.5604 31.5 16 31.5C7.43959 31.5 0.5 24.5604 0.5 16C0.5 7.43959 7.43959 0.5 16 0.5Z" stroke="black" stroke-opacity="0.2"/>
<g clip-path="url(#clip0_1385_2116)">
<mask id="mask0_1385_2116" style="mask-type:luminance" maskUnits="userSpaceOnUse" x="7" y="7" width="18" height="19">
<path d="M25 7.5H7V25.5H25V7.5Z" fill="white"/>
</mask>
<g mask="url(#mask0_1385_2116)">
<path d="M22.0741 20.6701C22.3985 20.6701 22.6626 20.4094 22.6667 20.0851C22.6667 19.6651 22.4192 19.3351 21.9992 19.0876L21.4142 18.8401C21.0842 18.7576 20.8292 18.5101 20.8292 18.1726L20.3267 13.4251C20.1617 12.2551 19.4117 11.3401 18.3242 10.8451L17.2442 10.4251C16.9142 10.2601 16.6592 9.92257 16.5767 9.59257L16.5247 9.40819C16.4579 9.17123 16.2417 9.00757 15.9955 9.00757C15.7492 9.00757 15.5331 9.17123 15.4662 9.40819L15.4142 9.59257C15.3317 9.92257 15.0842 10.2601 14.7467 10.4251L13.6667 10.8451C12.5867 11.3476 11.8367 12.2626 11.6642 13.4251L11.1617 18.1726C11.1617 18.5026 10.9142 18.7576 10.5767 18.8401L9.99172 19.0876C9.57172 19.3351 9.32422 19.6726 9.32422 20.0851C9.32422 20.4082 9.58613 20.6701 9.90922 20.6701H22.0741Z" fill="#21BC87"/>
<path opacity="0.6" d="M12.6699 20.6702C12.6699 22.5002 14.1699 24.0002 15.9999 24.0002C17.8299 24.0002 19.3299 22.5002 19.3299 20.6702" fill="#21BC87"/>
</g>
</g>
<defs>
<clipPath id="clip0_1385_2116">
<rect width="18" height="18" fill="white" transform="translate(7 7)"/>
</clipPath>
</defs>
</svg>
