<svg width="20" height="20" viewBox="0 0 20 20" fill="none" xmlns="http://www.w3.org/2000/svg">
<path d="M11.9134 0.882094L7.22343 0.142094C3.31343 -0.467906 1.50343 0.852093 0.883429 4.76209L0.143429 9.45205C-0.256571 12.0121 0.163429 13.6721 1.61343 14.6821C2.37343 15.2221 3.41343 15.5821 4.76343 15.7921L9.45344 16.5321C13.3634 17.1421 15.1734 15.8221 15.7934 11.9121L16.5234 7.22209C16.6434 6.45209 16.6934 5.76209 16.6534 5.15209C16.5234 2.65209 15.0534 1.37209 11.9134 0.882094ZM6.26343 7.35209C5.09343 7.35209 4.14343 6.40209 4.14343 5.24209C4.14343 4.07209 5.09343 3.12209 6.26343 3.12209C7.42343 3.12209 8.37344 4.07209 8.37344 5.24209C8.37344 6.40209 7.42343 7.35209 6.26343 7.35209Z" fill="#21BC87"/>
<path d="M18.5233 11.4724L17.0233 15.9824C15.7733 19.7424 13.7733 20.7424 10.0133 19.4924L5.50333 17.9924C4.09333 17.5224 3.07333 16.9424 2.41333 16.2125C3.04333 16.4625 3.77333 16.6524 4.60333 16.7824L9.30334 17.5224C9.94334 17.6224 10.5433 17.6724 11.1033 17.6724C14.4033 17.6724 16.1733 15.8925 16.7833 12.0624L17.5133 7.3725C17.6133 6.7925 17.6533 6.2825 17.6533 5.8125C19.1733 7.0625 19.3933 8.84245 18.5233 11.4724Z" fill="#21BC87"/>
</svg>
