<svg width="30" height="30" viewBox="0 0 30 30" fill="none" xmlns="http://www.w3.org/2000/svg">
<mask id="mask0_1509_2587" style="mask-type:luminance" maskUnits="userSpaceOnUse" x="0" y="0" width="30" height="30">
<path d="M30 0H0V30H30V0Z" fill="white"/>
</mask>
<g mask="url(#mask0_1509_2587)">
<path opacity="0.4" d="M14.9626 27.5C21.8663 27.5 27.4626 21.9035 27.4626 15C27.4626 8.09644 21.8663 2.5 14.9626 2.5C8.0591 2.5 2.46265 8.09644 2.46265 15C2.46265 21.9035 8.0591 27.5 14.9626 27.5Z" fill="#2BD383"/>
<path d="M18.7123 12.7879L15.0873 10.7004C14.1873 10.1754 13.0998 10.1754 12.1997 10.7004C11.2997 11.2254 10.7622 12.1504 10.7622 13.2004V17.3879C10.7622 18.4254 11.2997 19.3629 12.1997 19.8879C12.6498 20.1504 13.1498 20.2754 13.6373 20.2754C14.1373 20.2754 14.6248 20.1504 15.0748 19.8879L18.6998 17.8004C19.5998 17.2754 20.1373 16.3504 20.1373 15.3004C20.1623 14.2504 19.6248 13.3129 18.7123 12.7879Z" fill="#2BD383"/>
</g>
</svg>
