<svg width="34" height="34" viewBox="0 0 34 34" fill="none" xmlns="http://www.w3.org/2000/svg">
<mask id="mask0_1512_4915" style="mask-type:luminance" maskUnits="userSpaceOnUse" x="0" y="0" width="34" height="34">
<path d="M34 0H0V34H34V0Z" fill="white"/>
</mask>
<g mask="url(#mask0_1512_4915)">
<path d="M31.1667 25.9662C31.1667 26.4762 31.0534 27.0003 30.8125 27.5103C30.5717 28.0203 30.26 28.502 29.8492 28.9553C29.155 29.7203 28.39 30.2728 27.5259 30.627C26.6759 30.9812 25.7409 31.1653 24.7492 31.1653C23.3042 31.1653 21.76 30.8253 20.1309 30.1312C18.5017 29.437 16.8584 28.502 15.2434 27.3262C14.4217 26.717 13.6141 26.0937 12.835 25.4137L17.4534 20.7953C17.4675 20.7953 17.4675 20.7953 17.4817 20.8095C18.2184 21.4328 18.8275 21.8578 19.3092 22.1128C19.38 22.1412 19.465 22.1837 19.5642 22.2262C19.6775 22.2687 19.7909 22.2828 19.9184 22.2828C20.1592 22.2828 20.3434 22.1978 20.4992 22.042L21.5759 20.9795C21.93 20.6253 22.27 20.3562 22.5959 20.1862C22.9217 19.9878 23.2475 19.8887 23.6017 19.8887C23.8709 19.8887 24.1542 19.9453 24.4659 20.0728C24.7775 20.2003 25.1034 20.3845 25.4575 20.6253L30.1609 23.9545C30.5292 24.2095 30.7842 24.507 30.94 24.8612C31.0817 25.2153 31.1667 25.5695 31.1667 25.9662Z" fill="white"/>
<path opacity="0.4" d="M15.2433 18.7563L10.6249 23.3747C10.6108 23.3747 10.6108 23.3747 10.5966 23.3605C9.13742 21.8872 7.81992 20.343 6.62992 18.728C5.48242 17.1413 4.56159 15.5405 3.88159 13.968C3.86742 13.9397 3.86742 13.9255 3.85325 13.8972C3.17325 12.2822 2.83325 10.738 2.83325 9.26467C2.83325 8.30134 3.00325 7.38051 3.34325 6.53051C3.62659 5.80801 4.05159 5.12801 4.63242 4.51884C4.73159 4.40551 4.84492 4.27801 4.97242 4.16467C5.19909 3.93801 5.42575 3.73967 5.66659 3.58384C5.68075 3.58384 5.68075 3.58384 5.68075 3.58384C6.38909 3.07384 7.13992 2.83301 7.93325 2.83301C8.32992 2.83301 8.72658 2.91801 9.08075 3.08801C9.42075 3.24384 9.71825 3.47051 9.95909 3.79634C9.98742 3.82467 10.0016 3.85301 10.0299 3.88134L13.3166 8.51384C13.5716 8.86801 13.7558 9.19384 13.8833 9.50551C14.0108 9.80301 14.0816 10.1005 14.0816 10.3697C14.0816 10.7097 13.9824 11.0497 13.7841 11.3755C13.5999 11.7013 13.3308 12.0413 12.9908 12.3813L11.9141 13.5005C11.7583 13.6563 11.6874 13.8405 11.6874 14.0672C11.6874 14.1805 11.7016 14.2797 11.7299 14.393C11.7724 14.5063 11.8149 14.5913 11.8433 14.6763C12.0983 15.1438 12.5374 15.753 13.1608 16.4897C13.7983 17.2263 14.4783 17.9772 15.2149 18.728C15.2291 18.7422 15.2291 18.7422 15.2433 18.7563Z" fill="white"/>
<path d="M30.8405 3.16055C30.4155 2.73555 29.7214 2.73555 29.2964 3.16055L3.15884 29.3123C2.73384 29.7373 2.73384 30.4314 3.15884 30.8564C3.37134 31.0548 3.6405 31.1681 3.92384 31.1681C4.20717 31.1681 4.47634 31.0548 4.68884 30.8423L30.8405 4.69055C31.2797 4.26555 31.2797 3.58555 30.8405 3.16055Z" fill="white"/>
</g>
</svg>
