<svg width="32" height="32" viewBox="0 0 32 32" fill="none" xmlns="http://www.w3.org/2000/svg">
<rect width="32" height="32" rx="16" fill="#21BC87" fill-opacity="0.2"/>
<g clip-path="url(#clip0_1391_1807)">
<mask id="mask0_1391_1807" style="mask-type:luminance" maskUnits="userSpaceOnUse" x="8" y="7" width="16" height="18">
<path d="M24 7H8V25H24V7Z" fill="white"/>
</mask>
<g mask="url(#mask0_1391_1807)">
<path d="M16.9733 19.1725C16.9733 18.715 17.2267 18.34 17.6267 18.2125L18.2667 18.025C18.6067 17.9125 18.8533 17.635 18.9467 17.26L19.12 16.5475L19.16 16.42C19.2867 16.045 19.6067 15.7975 19.9733 15.7975C20.3467 15.7975 20.6467 16.0525 20.7733 16.4275L20.98 17.2675C21 17.3425 21.0267 17.41 21.06 17.4775C22.1067 16.12 21.66 14.4775 19.6933 13.375L13.9866 10.165C10.1466 8.01249 8.57331 9.78249 10.4933 14.095L11.0733 15.4C11.24 15.7825 11.24 16.225 11.0733 16.6075L10.4933 17.905C8.57331 22.2175 10.14 23.9875 13.98 21.8275L17.3133 19.9525C17.1067 19.7725 16.9733 19.495 16.9733 19.1725ZM13.94 16.555C13.6666 16.555 13.44 16.3 13.44 15.9925C13.44 15.685 13.6666 15.43 13.94 15.43H17.54C17.8133 15.43 18.04 15.685 18.04 15.9925C18.04 16.3 17.8133 16.555 17.54 16.555H13.94Z" fill="#2BD383"/>
<path d="M22.3067 19.1875C22.3067 19.24 22.28 19.36 22.1533 19.405L21.5 19.6075C20.9333 19.78 20.5067 20.26 20.3533 20.8975L20.18 21.6175C20.14 21.7825 20.0267 21.7975 19.9733 21.7975C19.92 21.7975 19.8067 21.7825 19.7667 21.6175L19.5933 20.89C19.44 20.26 19.0067 19.78 18.4467 19.6075L17.8 19.4125C17.66 19.3675 17.6467 19.2325 17.6467 19.18C17.6467 19.12 17.66 18.985 17.8 18.94L18.4533 18.745C19.0133 18.565 19.44 18.085 19.5933 17.455L19.78 16.69C19.8267 16.5625 19.9333 16.54 19.9733 16.54C20.0133 16.54 20.1267 16.555 20.1667 16.675L20.3533 17.4475C20.5067 18.0775 20.94 18.5575 21.5 18.7375L22.1667 18.9475C22.3 19.0075 22.3067 19.1425 22.3067 19.1875Z" fill="#2BD383"/>
</g>
</g>
<defs>
<clipPath id="clip0_1391_1807">
<rect width="16" height="18" fill="white" transform="translate(8 7)"/>
</clipPath>
</defs>
</svg>
