<svg width="24" height="24" viewBox="0 0 24 24" fill="none" xmlns="http://www.w3.org/2000/svg">
<path fill-rule="evenodd" clip-rule="evenodd" d="M12.97 20.03C12.8295 19.8894 12.7506 19.6987 12.7506 19.5C12.7506 19.3012 12.8295 19.1106 12.97 18.97L19.19 12.75L2.99999 12.75C2.80108 12.75 2.61031 12.671 2.46966 12.5303C2.32901 12.3897 2.24999 12.1989 2.24999 12C2.24999 11.8011 2.32901 11.6103 2.46966 11.4697C2.61031 11.329 2.80108 11.25 2.99999 11.25L19.19 11.25L12.97 5.02999C12.8963 4.96133 12.8372 4.87853 12.7962 4.78653C12.7552 4.69453 12.7332 4.59522 12.7314 4.49451C12.7296 4.39381 12.7481 4.29378 12.7859 4.20039C12.8236 4.10701 12.8797 4.02217 12.951 3.95095C13.0222 3.87973 13.107 3.82359 13.2004 3.78587C13.2938 3.74815 13.3938 3.72962 13.4945 3.7314C13.5952 3.73318 13.6945 3.75522 13.7865 3.79621C13.8785 3.8372 13.9613 3.8963 14.03 3.96999L21.53 11.47C21.6704 11.6106 21.7493 11.8012 21.7493 12C21.7493 12.1987 21.6704 12.3894 21.53 12.53L14.03 20.03C13.8894 20.1704 13.6987 20.2493 13.5 20.2493C13.3012 20.2493 13.1106 20.1704 12.97 20.03Z" fill="#21BC87"/>
</svg>
