<svg width="5" height="11" viewBox="0 0 5 11" fill="none" xmlns="http://www.w3.org/2000/svg">
<path d="M0.434719 11C0.324222 11 0.213725 10.9556 0.12649 10.8604C-0.0421634 10.6764 -0.0421634 10.3719 0.12649 10.1879L3.91829 6.05118C4.19744 5.74664 4.19744 5.25176 3.91829 4.94721L0.12649 0.810528C-0.0421634 0.626533 -0.0421634 0.32199 0.12649 0.137996C0.295144 -0.0459986 0.574295 -0.0459986 0.742948 0.137996L4.53475 4.27468C4.83135 4.59826 5 5.03604 5 5.4992C5 5.96236 4.83716 6.40014 4.53475 6.72371L0.742948 10.8604C0.655714 10.9492 0.545217 11 0.434719 11Z" fill="#828282"/>
</svg>
