<svg width="34" height="34" viewBox="0 0 34 34" fill="none" xmlns="http://www.w3.org/2000/svg">
<g clip-path="url(#clip0_1515_6092)">
<mask id="mask0_1515_6092" style="mask-type:luminance" maskUnits="userSpaceOnUse" x="0" y="0" width="34" height="34">
<path d="M34 0H0V34H34V0Z" fill="white"/>
</mask>
<g mask="url(#mask0_1515_6092)">
<path d="M22.7658 30.1463C21.9583 29.9197 21.4058 29.2113 21.4058 28.3472C21.4058 27.483 21.9442 26.7747 22.7942 26.5338L24.1542 26.1797C24.8767 25.9672 25.4008 25.443 25.5992 24.7347L25.9675 23.3888L26.0525 23.148C26.3217 22.4397 27.0017 21.9722 27.7808 21.9722C28.5742 21.9722 29.2117 22.4538 29.4808 23.1622L29.92 24.7488C30.0475 25.2163 30.345 25.613 30.7275 25.8822C30.8975 25.3013 30.9967 24.7063 30.9967 24.083V9.91634C30.9967 6.02051 27.4975 2.83301 23.2192 2.83301H10.7525C6.47414 2.83301 2.97498 6.02051 2.97498 9.91634V24.083C2.97498 27.993 6.45998 31.1663 10.7525 31.1663H23.205C23.8 31.1663 24.395 31.0955 24.9475 30.9822C24.7208 30.7838 24.4517 30.628 24.14 30.543L22.7658 30.1463ZM20.5275 19.1247C20.5275 21.0797 18.9408 22.6663 16.9858 22.6663H12.7358C10.7808 22.6663 9.19414 21.0797 9.19414 19.1247V14.8747C9.19414 12.9197 10.7808 11.333 12.7358 11.333H16.9858C18.9408 11.333 20.5275 12.9197 20.5275 14.8747V15.583L23.6725 13.4722C24.14 13.1605 24.7775 13.5005 24.7775 14.0672V19.918C24.7775 20.4847 24.14 20.8247 23.6725 20.513L20.5275 18.4163V19.1247Z" fill="white"/>
<path d="M32.7392 28.3758C32.7392 28.475 32.6825 28.7017 32.4133 28.7867L31.025 29.1692C29.8208 29.495 28.9142 30.4017 28.5883 31.6058L28.22 32.9658C28.135 33.2775 27.8942 33.3058 27.7808 33.3058C27.6675 33.3058 27.4267 33.2775 27.3417 32.9658L26.9733 31.5917C26.6475 30.4017 25.7267 29.495 24.5367 29.1692L23.1625 28.8008C22.865 28.7158 22.8367 28.4608 22.8367 28.3617C22.8367 28.2483 22.865 27.9933 23.1625 27.9083L24.5508 27.54C25.7408 27.2 26.6475 26.2933 26.9733 25.1033L27.37 23.6583C27.4692 23.4175 27.6958 23.375 27.7808 23.375C27.8658 23.375 28.1067 23.4033 28.1917 23.63L28.5883 25.0892C28.9142 26.2792 29.835 27.1858 31.025 27.5258L32.4417 27.9225C32.725 28.0358 32.7392 28.2908 32.7392 28.3758Z" fill="white"/>
</g>
</g>
<defs>
<clipPath id="clip0_1515_6092">
<rect width="34" height="34" fill="white"/>
</clipPath>
</defs>
</svg>
