<svg width="19" height="18" viewBox="0 0 19 18" fill="none" xmlns="http://www.w3.org/2000/svg">
<path d="M5.8574 14.873V5.55966C5.8574 5.19299 5.9674 4.83549 6.16907 4.53299L8.67158 0.811326C9.06574 0.215493 10.0466 -0.206174 10.8807 0.105492C11.7791 0.407992 12.3749 1.41633 12.1824 2.31466L11.7057 5.31216C11.6691 5.58716 11.7424 5.83466 11.8982 6.02716C12.0541 6.20133 12.2832 6.31133 12.5307 6.31133H16.2982C17.0224 6.31133 17.6457 6.60466 18.0124 7.11798C18.3607 7.61298 18.4249 8.25465 18.1957 8.90548L15.9407 15.7713C15.6566 16.908 14.4191 17.8338 13.1907 17.8338H9.61574C9.00157 17.8338 8.13991 17.623 7.74574 17.2288L6.5724 16.3213C6.12323 15.9822 5.8574 15.4413 5.8574 14.873Z" fill="#21BC87"/>
<path d="M2.9425 3.77246H1.99833C0.5775 3.77246 0 4.32246 0 5.67913V14.9008C0 16.2575 0.5775 16.8075 1.99833 16.8075H2.9425C4.36333 16.8075 4.94083 16.2575 4.94083 14.9008V5.67913C4.94083 4.32246 4.36333 3.77246 2.9425 3.77246Z" fill="#21BC87"/>
</svg>
