<svg width="20" height="17" viewBox="0 0 20 17" fill="none" xmlns="http://www.w3.org/2000/svg">
<path fill-rule="evenodd" clip-rule="evenodd" d="M10.72 0.21934C10.8606 0.0788896 11.0512 0 11.25 0C11.4488 0 11.6394 0.0788896 11.78 0.21934L19.28 7.71934C19.4205 7.85997 19.4993 8.05059 19.4993 8.24934C19.4993 8.44809 19.4205 8.63871 19.28 8.77934L11.78 16.2793C11.7113 16.353 11.6285 16.4121 11.5365 16.4531C11.4445 16.4941 11.3452 16.5162 11.2445 16.5179C11.1438 16.5197 11.0438 16.5012 10.9504 16.4635C10.857 16.4257 10.7722 16.3696 10.701 16.2984C10.6297 16.2272 10.5736 16.1423 10.5359 16.0489C10.4982 15.9555 10.4796 15.8555 10.4814 15.7548C10.4832 15.6541 10.5052 15.5548 10.5462 15.4628C10.5872 15.3708 10.6463 15.288 10.72 15.2193L16.94 8.99934H0.75C0.551088 8.99934 0.360322 8.92032 0.21967 8.77967C0.0790175 8.63902 0 8.44825 0 8.24934C0 8.05043 0.0790175 7.85966 0.21967 7.71901C0.360322 7.57836 0.551088 7.49934 0.75 7.49934H16.94L10.72 1.27934C10.5795 1.13871 10.5007 0.948091 10.5007 0.74934C10.5007 0.550589 10.5795 0.359965 10.72 0.21934Z" fill="white"/>
</svg>
