<svg width="18" height="18" viewBox="0 0 18 18" fill="none" xmlns="http://www.w3.org/2000/svg">
<path d="M2.75 3.78125C2.75 2.7784 3.14838 1.81662 3.8575 1.1075C4.56662 0.39838 5.5284 0 6.53125 0C7.5341 0 8.49588 0.39838 9.205 1.1075C9.91412 1.81662 10.3125 2.7784 10.3125 3.78125C10.3125 4.7841 9.91412 5.74588 9.205 6.455C8.49588 7.16412 7.5341 7.5625 6.53125 7.5625C5.5284 7.5625 4.56662 7.16412 3.8575 6.455C3.14838 5.74588 2.75 4.7841 2.75 3.78125ZM0 15.4687C0 13.7366 0.688112 12.0753 1.91296 10.8505C3.13781 9.62561 4.79906 8.9375 6.53125 8.9375C8.26345 8.9375 9.92469 9.62561 11.1495 10.8505C12.3744 12.0753 13.0625 13.7366 13.0625 15.4687V15.4715L13.0616 15.5806C13.0596 15.6972 13.0281 15.8113 12.9699 15.9124C12.9117 16.0134 12.8287 16.0979 12.7288 16.1581C10.8581 17.2846 8.71499 17.8783 6.53125 17.875C4.26525 17.875 2.14408 17.248 0.334583 16.1581C0.23453 16.098 0.151403 16.0135 0.0930295 15.9125C0.0346558 15.8115 0.00295645 15.6972 0.0009166 15.5806L0 15.4687ZM15.125 4.8125C15.125 4.63016 15.0526 4.4553 14.9236 4.32636C14.7947 4.19743 14.6198 4.125 14.4375 4.125C14.2552 4.125 14.0803 4.19743 13.9514 4.32636C13.8224 4.4553 13.75 4.63016 13.75 4.8125V6.875H11.6875C11.5052 6.875 11.3303 6.94743 11.2014 7.07636C11.0724 7.2053 11 7.38016 11 7.5625C11 7.74484 11.0724 7.9197 11.2014 8.04864C11.3303 8.17757 11.5052 8.25 11.6875 8.25H13.75V10.3125C13.75 10.4948 13.8224 10.6697 13.9514 10.7986C14.0803 10.9276 14.2552 11 14.4375 11C14.6198 11 14.7947 10.9276 14.9236 10.7986C15.0526 10.6697 15.125 10.4948 15.125 10.3125V8.25H17.1875C17.3698 8.25 17.5447 8.17757 17.6736 8.04864C17.8026 7.9197 17.875 7.74484 17.875 7.5625C17.875 7.38016 17.8026 7.2053 17.6736 7.07636C17.5447 6.94743 17.3698 6.875 17.1875 6.875H15.125V4.8125Z" fill="#21BC87"/>
</svg>
