<svg width="20" height="20" viewBox="0 0 20 20" fill="none" xmlns="http://www.w3.org/2000/svg">
<path fill-rule="evenodd" clip-rule="evenodd" d="M16.6916 9.19209C16.5744 9.30914 16.4156 9.37488 16.2499 9.37488C16.0843 9.37488 15.9255 9.30914 15.8083 9.19209L10.6249 4.00876L10.6249 17.5004C10.6249 17.6662 10.5591 17.8252 10.4419 17.9424C10.3247 18.0596 10.1657 18.1254 9.99994 18.1254C9.83418 18.1254 9.67521 18.0596 9.558 17.9424C9.44079 17.8252 9.37494 17.6662 9.37494 17.5004L9.37494 4.00876L4.19161 9.19209C4.13439 9.2535 4.06539 9.30275 3.98872 9.33691C3.91206 9.37107 3.82929 9.38944 3.74538 9.39092C3.66146 9.3924 3.5781 9.37696 3.50028 9.34553C3.42245 9.3141 3.35176 9.26731 3.29241 9.20796C3.23306 9.14861 3.18627 9.07792 3.15484 9.00009C3.1234 8.92227 3.10797 8.83891 3.10945 8.75499C3.11093 8.67107 3.1293 8.58831 3.16346 8.51165C3.19762 8.43498 3.24687 8.36598 3.30827 8.30876L9.55827 2.05876C9.67546 1.94172 9.83432 1.87598 9.99994 1.87598C10.1656 1.87598 10.3244 1.94172 10.4416 2.05876L16.6916 8.30876C16.8086 8.42595 16.8744 8.5848 16.8744 8.75043C16.8744 8.91605 16.8086 9.07491 16.6916 9.19209Z" fill="white"/>
</svg>
