<svg width="20" height="20" viewBox="0 0 20 20" fill="none" xmlns="http://www.w3.org/2000/svg">
<path d="M9.58333 18.1248C4.875 18.1248 1.04167 14.2915 1.04167 9.58317C1.04167 4.87484 4.875 1.0415 9.58333 1.0415C14.2917 1.0415 18.125 4.87484 18.125 9.58317C18.125 14.2915 14.2917 18.1248 9.58333 18.1248ZM9.58333 2.2915C5.55833 2.2915 2.29167 5.5665 2.29167 9.58317C2.29167 13.5998 5.55833 16.8748 9.58333 16.8748C13.6083 16.8748 16.875 13.5998 16.875 9.58317C16.875 5.5665 13.6083 2.2915 9.58333 2.2915Z" fill="#21BC87"/>
<path d="M18.3333 18.958C18.1749 18.958 18.0166 18.8997 17.8916 18.7747L16.2249 17.108C15.9833 16.8664 15.9833 16.4664 16.2249 16.2247C16.4666 15.983 16.8666 15.983 17.1082 16.2247L18.7749 17.8914C19.0166 18.133 19.0166 18.533 18.7749 18.7747C18.6499 18.8997 18.4916 18.958 18.3333 18.958Z" fill="#21BC87"/>
</svg>
