<svg width="36" height="36" viewBox="0 0 36 36" fill="none" xmlns="http://www.w3.org/2000/svg">
<g clip-path="url(#clip0_1865_2086)">
<mask id="mask0_1865_2086" style="mask-type:luminance" maskUnits="userSpaceOnUse" x="0" y="0" width="36" height="36">
<path d="M36 0H0V36H36V0Z" fill="white"/>
</mask>
<g mask="url(#mask0_1865_2086)">
<path d="M26.9999 25.1254C26.7599 25.1254 26.5349 25.0504 26.3249 24.9004C25.8299 24.5254 25.7249 23.8204 26.0999 23.3254C27.9899 20.8054 28.3949 17.4604 27.1799 14.5655C26.9399 13.9955 27.2099 13.3355 27.7799 13.0955C28.3499 12.8555 29.0099 13.1255 29.2499 13.6955C30.7799 17.3254 30.2549 21.5404 27.8999 24.6904C27.6749 24.9754 27.3449 25.1254 26.9999 25.1254Z" fill="white"/>
<path d="M29.745 28.8748C29.505 28.8748 29.28 28.7998 29.07 28.6498C28.575 28.2748 28.47 27.5698 28.845 27.0748C32.055 22.7998 32.76 17.0698 30.69 12.1348C30.45 11.5648 30.72 10.9048 31.29 10.6648C31.86 10.4248 32.52 10.6948 32.76 11.2648C35.145 16.9348 34.335 23.5048 30.645 28.4248C30.435 28.7248 30.09 28.8748 29.745 28.8748Z" fill="white"/>
<path d="M21.06 19.4391C22.005 18.4941 23.625 19.1691 23.625 20.5041V24.8991C23.625 27.4791 22.695 29.4141 21.03 30.3441C20.355 30.7191 19.605 30.8991 18.825 30.8991C17.625 30.8991 16.335 30.4941 15.015 29.6691L14.055 29.0691C13.245 28.5591 13.11 27.4191 13.785 26.7441L21.06 19.4391Z" fill="white"/>
<path d="M32.655 3.34434C32.205 2.89434 31.47 2.89434 31.02 3.34434L23.595 10.7693C23.505 8.36934 22.605 6.56934 21.015 5.68434C19.335 4.75434 17.19 4.99434 15 6.35934L10.635 9.08934C10.335 9.26934 9.99 9.37434 9.645 9.37434H8.25H7.5C3.87 9.37434 1.875 11.3693 1.875 14.9993V20.9994C1.875 24.6294 3.87 26.6244 7.5 26.6244H7.74L3.33 31.0344C2.88 31.4844 2.88 32.2194 3.33 32.6694C3.57 32.8794 3.855 32.9994 4.155 32.9994C4.455 32.9994 4.74 32.8794 4.965 32.6544L32.655 4.96434C33.12 4.51434 33.12 3.79434 32.655 3.34434Z" fill="white"/>
</g>
</g>
<defs>
<clipPath id="clip0_1865_2086">
<rect width="36" height="36" fill="white"/>
</clipPath>
</defs>
</svg>
