<svg width="34" height="34" viewBox="0 0 34 34" fill="none" xmlns="http://www.w3.org/2000/svg">
<g clip-path="url(#clip0_1512_4931)">
<mask id="mask0_1512_4931" style="mask-type:luminance" maskUnits="userSpaceOnUse" x="0" y="0" width="34" height="34">
<path d="M34 0H0V34H34V0Z" fill="white"/>
</mask>
<g mask="url(#mask0_1512_4931)">
<path d="M25.4999 23.7293C25.2732 23.7293 25.0607 23.6584 24.8624 23.5168C24.3949 23.1626 24.2957 22.4968 24.6499 22.0293C26.8741 19.0684 26.8741 14.9318 24.6499 11.9709C24.2957 11.5034 24.3949 10.8376 24.8624 10.4834C25.3299 10.1292 25.9957 10.2284 26.3499 10.6959C29.1266 14.4076 29.1266 19.5926 26.3499 23.3043C26.1374 23.5876 25.8257 23.7293 25.4999 23.7293Z" fill="white"/>
<path d="M28.0927 27.2716C27.866 27.2716 27.6535 27.2008 27.4552 27.0591C26.9877 26.7049 26.8885 26.0391 27.2427 25.5716C31.0252 20.5283 31.0252 13.4732 27.2427 8.42988C26.8885 7.96238 26.9877 7.29655 27.4552 6.94238C27.9227 6.58821 28.5885 6.68738 28.9427 7.15488C33.2918 12.949 33.2918 21.0524 28.9427 26.8466C28.7443 27.1299 28.4185 27.2716 28.0927 27.2716Z" fill="white"/>
<path d="M19.8616 5.35445C18.2749 4.47611 16.2491 4.70278 14.1808 5.99195L10.0441 8.58445C9.76075 8.75445 9.43492 8.85361 9.10908 8.85361H7.79158H7.08325C3.65492 8.85361 1.77075 10.7378 1.77075 14.1661V19.8328C1.77075 23.2611 3.65492 25.1453 7.08325 25.1453H7.79158H9.10908C9.43492 25.1453 9.76075 25.2444 10.0441 25.4144L14.1808 28.0069C15.4274 28.7861 16.6458 29.1686 17.7791 29.1686C18.5158 29.1686 19.2241 28.9986 19.8616 28.6444C21.4341 27.7661 22.3124 25.9386 22.3124 23.5019V10.4969C22.3124 8.06028 21.4341 6.23278 19.8616 5.35445Z" fill="white"/>
</g>
</g>
<defs>
<clipPath id="clip0_1512_4931">
<rect width="34" height="34" fill="white"/>
</clipPath>
</defs>
</svg>
