<svg width="14" height="14" viewBox="0 0 14 14" fill="none" xmlns="http://www.w3.org/2000/svg">
<g clip-path="url(#clip0_1385_2278)">
<path fill-rule="evenodd" clip-rule="evenodd" d="M5.25 2.625C5.34506 2.62502 5.43753 2.656 5.51342 2.71326C5.5893 2.77051 5.64447 2.85093 5.67058 2.94233L6.14483 4.6025C6.24695 4.96004 6.43851 5.28564 6.70144 5.54857C6.96436 5.81149 7.28997 6.00305 7.6475 6.10517L9.30767 6.57942C9.39901 6.60558 9.47936 6.66078 9.53655 6.73666C9.59375 6.81254 9.62469 6.90498 9.62469 7C9.62469 7.09502 9.59375 7.18746 9.53655 7.26334C9.47936 7.33922 9.39901 7.39442 9.30767 7.42058L7.6475 7.89483C7.28997 7.99695 6.96436 8.18851 6.70144 8.45143C6.43851 8.71436 6.24695 9.03996 6.14483 9.3975L5.67058 11.0577C5.64442 11.149 5.58922 11.2294 5.51334 11.2866C5.43746 11.3437 5.34502 11.3747 5.25 11.3747C5.15498 11.3747 5.06254 11.3437 4.98666 11.2866C4.91078 11.2294 4.85559 11.149 4.82942 11.0577L4.35517 9.3975C4.25306 9.03996 4.06149 8.71436 3.79857 8.45143C3.53564 8.18851 3.21004 7.99695 2.8525 7.89483L1.19233 7.42058C1.10099 7.39442 1.02064 7.33922 0.963448 7.26334C0.906253 7.18746 0.875317 7.09502 0.875317 7C0.875317 6.90498 0.906253 6.81254 0.963448 6.73666C1.02064 6.66078 1.10099 6.60558 1.19233 6.57942L2.8525 6.10517C3.21004 6.00305 3.53564 5.81149 3.79857 5.54857C4.06149 5.28564 4.25306 4.96004 4.35517 4.6025L4.82942 2.94233C4.85553 2.85093 4.9107 2.77051 4.98659 2.71326C5.06247 2.656 5.15494 2.62502 5.25 2.625ZM10.5 0.875C10.5976 0.874946 10.6924 0.907529 10.7694 0.967567C10.8463 1.02761 10.901 1.11165 10.9247 1.20633L11.0752 1.81067C11.2128 2.359 11.641 2.78717 12.1893 2.92483L12.7937 3.07533C12.8885 3.09883 12.9728 3.15342 13.033 3.23038C13.0933 3.30735 13.126 3.40227 13.126 3.5C13.126 3.59773 13.0933 3.69265 13.033 3.76962C12.9728 3.84658 12.8885 3.90117 12.7937 3.92467L12.1893 4.07517C11.641 4.21283 11.2128 4.641 11.0752 5.18933L10.9247 5.79367C10.9012 5.88853 10.8466 5.9728 10.7696 6.03303C10.6927 6.09326 10.5977 6.12598 10.5 6.12598C10.4023 6.12598 10.3074 6.09326 10.2304 6.03303C10.1534 5.9728 10.0988 5.88853 10.0753 5.79367L9.92483 5.18933C9.85752 4.92008 9.7183 4.67419 9.52206 4.47794C9.32581 4.2817 9.07992 4.14248 8.81067 4.07517L8.20633 3.92467C8.11147 3.90117 8.0272 3.84658 7.96697 3.76962C7.90675 3.69265 7.87402 3.59773 7.87402 3.5C7.87402 3.40227 7.90675 3.30735 7.96697 3.23038C8.0272 3.15342 8.11147 3.09883 8.20633 3.07533L8.81067 2.92483C9.07992 2.85752 9.32581 2.7183 9.52206 2.52206C9.7183 2.32581 9.85752 2.07992 9.92483 1.81067L10.0753 1.20633C10.099 1.11165 10.1537 1.02761 10.2306 0.967567C10.3076 0.907529 10.4024 0.874946 10.5 0.875ZM9.625 8.75C9.71689 8.74995 9.80645 8.77882 9.881 8.83254C9.95555 8.88625 10.0113 8.96207 10.0403 9.04925L10.2702 9.73933C10.3577 10.0001 10.5618 10.2054 10.8232 10.2923L11.5133 10.5227C11.6001 10.5519 11.6757 10.6077 11.7292 10.6821C11.7827 10.7565 11.8115 10.8458 11.8115 10.9375C11.8115 11.0292 11.7827 11.1185 11.7292 11.1929C11.6757 11.2673 11.6001 11.3231 11.5133 11.3523L10.8232 11.5827C10.5624 11.6702 10.3571 11.8743 10.2702 12.1357L10.0398 12.8257C10.0106 12.9126 9.95485 12.9882 9.88043 13.0417C9.80601 13.0952 9.71666 13.124 9.625 13.124C9.53334 13.124 9.44399 13.0952 9.36957 13.0417C9.29515 12.9882 9.23942 12.9126 9.21025 12.8257L8.97983 12.1357C8.93687 12.0069 8.86453 11.8899 8.76855 11.7939C8.67258 11.698 8.55559 11.6256 8.42683 11.5827L7.73675 11.3523C7.64985 11.3231 7.57432 11.2673 7.5208 11.1929C7.46728 11.1185 7.43849 11.0292 7.43849 10.9375C7.43849 10.8458 7.46728 10.7565 7.5208 10.6821C7.57432 10.6077 7.64985 10.5519 7.73675 10.5227L8.42683 10.2923C8.68758 10.2048 8.89292 10.0007 8.97983 9.73933L9.21025 9.04925C9.23925 8.96217 9.29491 8.88641 9.36935 8.83271C9.44378 8.779 9.53322 8.75007 9.625 8.75Z" fill="white"/>
</g>
<defs>
<clipPath id="clip0_1385_2278">
<rect width="14" height="14" fill="white"/>
</clipPath>
</defs>
</svg>
