<svg width="39" height="39" viewBox="0 0 39 39" fill="none" xmlns="http://www.w3.org/2000/svg">
<path d="M26.4202 27.7905L11.9659 27.4753C11.2186 27.4591 10.5974 28.0581 10.581 28.8108C10.5646 29.5635 11.1591 30.1891 11.9063 30.2054L26.3607 30.5206C27.1079 30.5369 27.7291 29.9378 27.7456 29.1851C27.762 28.4324 27.1675 27.8068 26.4202 27.7905Z" fill="#FFB300"/>
<path d="M28.976 14.1897C27.9796 14.168 27.1514 14.9665 27.1296 15.9703C27.1148 16.6448 27.4727 17.2359 28.0084 17.5628C26.9086 20.0336 25.2449 21.5275 23.7238 21.3561C22.0321 21.18 20.6937 19.1313 20.0051 15.7376C20.988 15.5097 21.7356 14.6382 21.7588 13.5771C21.7861 12.3223 20.7956 11.28 19.5499 11.2528C18.3042 11.2256 17.2691 12.2238 17.2418 13.4786C17.2187 14.5397 17.9276 15.4429 18.8996 15.7135C18.0633 19.0739 16.6373 21.0624 14.9395 21.1645C13.4186 21.2696 11.8141 19.7045 10.8244 17.1881C11.3743 16.8849 11.7575 16.31 11.7722 15.6355C11.7941 14.6317 11.0016 13.7978 10.0051 13.776C9.00865 13.7543 8.18053 14.5529 8.15865 15.5567C8.13829 16.4902 8.82611 17.2685 9.72372 17.3917L11.2646 26.5498L27.161 26.8964L29.0996 17.8142C30.0017 17.7303 30.7228 16.9827 30.7431 16.0491C30.765 15.0453 29.9725 14.2114 28.976 14.1897Z" fill="#FFB300"/>
</svg>
