<svg width="286" height="221" viewBox="0 0 286 221" fill="none" xmlns="http://www.w3.org/2000/svg">
<g clip-path="url(#clip0_1566_1985)">
<path d="M242.365 170.549C253.314 159.596 253.314 141.838 242.365 130.885C231.415 119.932 213.662 119.932 202.713 130.885C191.764 141.838 191.764 159.596 202.713 170.549C213.662 181.502 231.415 181.502 242.365 170.549Z" fill="#A5F2F0"/>
<path d="M222.446 184.146C215.633 184.201 209.817 181.879 204.611 177.839C204.367 177.65 204.135 177.436 203.915 177.216C203.652 176.947 203.365 176.629 203.658 176.256C203.964 175.865 204.324 176.103 204.63 176.323C204.954 176.549 205.265 176.8 205.583 177.032C209.774 180.174 214.442 182.197 219.678 182.533C225.385 182.893 230.951 182.032 236.297 179.935C239.126 178.829 241.826 177.497 244.185 175.535C244.857 174.973 245.535 174.416 246.024 173.671C246.152 173.475 246.28 173.267 246.561 173.408C246.793 173.524 246.867 173.732 246.842 173.976C246.781 174.6 246.433 175.083 246.036 175.529C244.282 177.497 242.193 179.012 239.834 180.18C235.215 182.472 230.34 183.761 225.183 183.994C224.224 184.036 223.271 184.177 222.452 184.14L222.446 184.146Z" fill="#C2F9F6"/>
<path d="M66.6743 139.2C69.19 123.916 58.8433 109.485 43.5641 106.969C28.2849 104.452 13.8593 114.802 11.3435 130.086C8.82775 145.37 19.1746 159.8 34.4537 162.317C49.7329 164.834 64.1585 154.483 66.6743 139.2Z" fill="#EBBBFF"/>
<path d="M269.134 34.6127C272.762 19.5541 263.499 4.40468 248.445 0.77552C233.391 -2.85364 218.247 6.41177 214.619 21.4704C210.991 36.529 220.253 51.6785 235.307 55.3076C250.361 58.9368 265.506 49.6714 269.134 34.6127Z" fill="#F8C342"/>
<path d="M49.74 120.053C50.131 119.539 50.4671 119.05 50.8581 118.61C51.133 118.299 50.9559 118.03 50.8764 117.755C50.7359 117.272 50.5526 116.795 50.4182 116.312C50.3693 116.135 50.3388 115.891 50.5771 115.799C50.8459 115.695 50.9986 115.86 51.0842 116.104C51.243 116.551 51.4019 116.991 51.5852 117.492C52.0678 117.168 52.2756 116.85 52.1228 116.282C51.964 115.689 51.9334 115.059 51.854 114.448C51.8296 114.24 51.8846 114.026 52.1045 113.965C52.3978 113.88 52.5261 114.124 52.5689 114.338C52.6727 114.833 52.7277 115.34 52.8194 115.903C53.357 115.616 53.5403 115.285 53.3815 114.687C53.2532 114.204 53.2959 113.678 53.2776 113.171C53.2715 112.945 53.2776 112.688 53.6075 112.682C53.9008 112.676 53.968 112.884 54.0169 113.122C54.1207 113.648 54.2368 114.167 54.3651 114.784C55.0067 114.515 55.6115 114.265 56.2164 114.002C56.4975 113.88 56.7968 113.788 56.9374 114.136C57.0534 114.43 56.7785 114.589 56.5524 114.705C55.6848 115.151 54.8111 115.585 53.8091 116.086C54.4201 116.245 54.7989 115.903 55.2205 115.909C55.4466 115.909 55.7093 115.884 55.7887 116.159C55.8681 116.422 55.6665 116.569 55.4527 116.679C54.8478 116.991 54.2063 117.229 53.5281 117.29C53.1371 117.327 52.8988 117.473 52.7705 117.926C53.1432 117.944 53.4914 117.95 53.8397 117.981C54.0719 117.999 54.3101 118.085 54.2979 118.372C54.2857 118.635 54.0474 118.659 53.8519 118.647C52.3245 118.525 51.3713 119.289 50.7787 120.755C51.3652 121.263 52.019 121.831 52.5627 122.516C54.805 125.352 56.027 128.591 56.3447 132.166C56.9862 139.427 52.856 148.185 44.5467 151.32C40.337 152.909 36.0663 153.129 31.7466 151.791C26.0706 150.025 22.4964 146.284 21.6166 140.35C20.6573 133.902 22.2887 128.09 26.7305 123.237C29.5349 120.169 33.0969 118.519 37.2821 118.286C39.9827 118.134 42.6954 117.816 45.3776 118.476C46.8623 118.843 48.292 119.362 49.7644 120.059L49.74 120.053ZM48.9335 121.147C47.8032 120.731 46.9356 120.108 45.8908 119.808C43.5508 119.136 41.1741 119.032 38.7607 119.118C35.8769 119.221 33.2863 120.126 30.879 121.666C24.7081 125.614 22.307 134.586 23.5106 140.38C24.2255 143.815 25.7101 146.724 28.7956 148.625C32.7975 151.094 37.1172 152.005 41.7178 150.978C48.072 149.554 52.1717 145.6 54.2918 139.476C56.4058 133.382 55.1044 127.973 51.1697 123.053C50.8031 122.595 50.3754 122.186 49.8317 121.837C48.6464 123.439 47.4977 124.997 46.3063 126.611C47.6443 127.442 48.3164 128.725 49.1351 129.917C51.8051 133.792 51.2675 140.209 46.8317 143.534C44.5589 145.239 42.0172 146.358 39.1945 145.979C34.3494 145.325 30.9462 142.495 29.095 138.033C27.5981 134.427 27.873 130.852 30.7446 127.955C33.5612 125.119 37.0988 124.08 41.0763 124.539C42.6099 124.716 44.0212 125.248 45.3898 125.957C46.569 124.361 47.7054 122.821 48.9335 121.165V121.147ZM40.5386 132.588C41.9806 130.608 43.398 128.652 44.8766 126.623C44.3634 126.421 43.9785 126.238 43.5813 126.128C39.1945 124.924 35.2903 125.895 31.9483 128.921C30.1398 130.559 29.4066 132.765 29.6815 135.149C30.1398 139.164 32.437 141.975 35.9074 143.894C38.5224 145.343 41.168 145.41 43.8502 144.102C46.4041 142.855 48.628 141.23 49.5445 138.382C50.6504 134.941 49.9783 131.799 47.6505 129.043C47.125 128.42 46.8379 127.521 45.8297 127.264C45.1149 128.212 44.3878 129.177 43.6608 130.143C42.9154 131.133 42.17 132.129 41.4368 133.107C42.6832 134.721 42.7748 136.157 41.7301 137.288C40.6731 138.431 38.7546 138.712 37.5509 137.893C36.2618 137.019 35.8708 135.534 36.5489 134.079C37.2577 132.563 38.6263 132.032 40.5448 132.576L40.5386 132.588ZM39.9765 133.26C38.9012 132.954 38.0397 133.376 37.5876 134.372C37.0805 135.491 37.4471 136.75 38.4491 137.337C39.1456 137.746 40.5264 137.459 41.0946 136.78C41.7301 136.016 41.6262 134.806 40.838 133.938C40.2515 134.385 40.0071 135.277 39.0723 135.405C38.9379 134.47 39.7077 134 39.9704 133.26H39.9765Z" fill="#A60036"/>
<path d="M275.119 29.8007C274.459 41.8469 269.265 51.2834 258.958 57.7802C258.286 58.2019 257.577 58.5625 256.801 58.752C256.337 58.862 255.708 59.2287 255.451 58.5931C255.219 58.0247 255.867 57.8046 256.258 57.5785C257.956 56.6129 259.575 55.5189 261.09 54.2843C268.068 48.6004 272.247 41.3274 273.438 32.3921C273.958 28.4928 273.426 24.673 272.357 20.9082C272.204 20.3642 272.058 19.8203 271.917 19.2702C271.831 18.9463 271.825 18.6285 272.216 18.5062C272.595 18.3901 272.797 18.6529 272.937 18.9463C273.377 19.863 273.732 20.8226 273.982 21.8127C274.636 24.4224 275.143 27.0565 275.119 29.8007Z" fill="#F9D37D"/>
<path d="M36.3961 167.981C29.5836 168.036 23.7671 165.713 18.5616 161.674C18.3172 161.484 18.085 161.27 17.865 161.05C17.6023 160.781 17.3152 160.463 17.6084 160.091C17.9139 159.699 18.2744 159.938 18.5799 160.158C18.9037 160.384 19.2153 160.635 19.533 160.867C23.7243 164.008 28.3922 166.031 33.6283 166.367C39.3349 166.728 44.9009 165.866 50.247 163.77C53.0758 162.664 55.7764 161.331 58.1348 159.369C58.8068 158.807 59.485 158.251 59.9738 157.505C60.1021 157.31 60.2304 157.102 60.5115 157.243C60.7437 157.359 60.817 157.566 60.7925 157.811C60.7314 158.434 60.3832 158.917 59.986 159.363C58.2325 161.331 56.143 162.847 53.7846 164.014C49.1656 166.306 44.2899 167.596 39.1333 167.828C38.174 167.871 37.2209 168.011 36.4022 167.975L36.3961 167.981Z" fill="#F4DCFF"/>
<path d="M250.973 153.472C250.068 153.521 249.195 153.337 248.321 153.135C246.127 152.628 244.802 150.96 244.789 148.717C244.771 145.875 247.264 143.057 250.099 142.813C251.785 142.666 253.392 143.057 254.706 144.17C256.331 145.551 256.649 147.397 256.117 149.365C255.579 151.388 254.308 152.799 252.243 153.41C252.14 153.441 252.023 153.472 251.913 153.478C251.596 153.484 251.278 153.478 250.96 153.478L250.973 153.472ZM255.72 147.898C255.702 147.708 255.695 147.427 255.64 147.158C255.17 144.811 252.201 142.825 249.879 143.479C247.789 144.066 246.189 145.331 245.681 147.604C245.223 149.676 246.152 151.95 248.706 152.463C249.164 152.555 249.61 152.683 250.068 152.763C251.174 152.952 252.268 152.958 253.251 152.323C254.816 151.308 255.653 149.872 255.72 147.904V147.898Z" fill="#317A8B"/>
<path d="M18.0911 120.535C16.7225 120.609 15.3905 120.328 14.0708 120.022C10.7471 119.252 8.73695 116.728 8.71862 113.318C8.69418 109.009 12.4639 104.737 16.7713 104.364C19.3252 104.144 21.7692 104.731 23.7549 106.417C26.2232 108.514 26.6937 111.307 25.8994 114.295C25.0807 117.364 23.1561 119.503 20.0279 120.425C19.869 120.474 19.6979 120.523 19.533 120.529C19.0503 120.542 18.5737 120.529 18.0911 120.529V120.535ZM25.2823 112.089C25.2518 111.808 25.2456 111.38 25.1662 110.965C24.4575 107.408 19.9484 104.401 16.4292 105.385C13.2643 106.271 10.8326 108.19 10.0689 111.637C9.37237 114.772 10.7776 118.219 14.6512 119.001C15.3417 119.142 16.026 119.338 16.7164 119.454C18.3904 119.735 20.0523 119.753 21.5431 118.788C23.9137 117.253 25.1846 115.078 25.2823 112.089Z" fill="#B66CD8"/>
<path d="M208.619 142.929C208.131 143.265 207.911 142.862 207.666 142.635C205.106 140.264 202.876 137.587 200.567 134.99C193.204 126.696 186.117 118.164 178.968 109.687C178.913 109.62 178.858 109.559 178.803 109.492C178.449 109.052 178.119 108.532 178.626 108.068C179.176 107.566 179.671 107.951 180.068 108.41C182.622 111.362 185.176 114.32 187.736 117.266C193.809 124.245 199.766 131.323 205.589 138.516C206.511 139.659 207.355 140.869 208.216 142.055C208.405 142.318 208.65 142.574 208.619 142.935V142.929Z" fill="#A5F2F0"/>
<path d="M109.152 95.6424C109.029 96.1313 108.638 96.2902 108.321 96.5041C102.7 100.257 96.8586 103.655 91.0788 107.151C81.4069 113.012 71.7046 118.812 62.0144 124.643C61.9166 124.704 61.8189 124.759 61.7211 124.814C61.3668 125.009 60.9635 125.248 60.6764 124.789C60.3709 124.3 60.7375 124.013 61.1285 123.775C63.7924 122.167 66.4501 120.56 69.114 118.952C81.1686 111.68 93.1927 104.364 105.345 97.262C106.298 96.7058 107.276 96.1985 108.241 95.6729C108.51 95.5262 108.791 95.3673 109.152 95.6363V95.6424Z" fill="#EBBBFF"/>
<path d="M190.534 67.6262C190.247 67.6384 190.082 67.6017 190.021 67.4062C189.966 67.2289 190.021 67.0578 190.162 66.9478C190.43 66.7461 190.705 66.5444 190.992 66.3672C199.754 60.8177 208.631 55.47 217.717 50.4706C218.138 50.2383 218.529 49.9572 218.939 49.7066C219.385 49.4316 219.91 49.1321 220.265 49.7372C220.601 50.3117 220.069 50.5867 219.647 50.8312C214.362 53.9359 209.059 57.0162 203.799 60.1577C199.699 62.6023 195.666 65.1571 191.365 67.2473C191.06 67.3939 190.754 67.5284 190.534 67.6323V67.6262Z" fill="#F8C342"/>
<path d="M214.986 6.68619C218.639 6.74731 221.45 9.49148 221.322 12.9996C221.212 15.9944 218.786 18.9463 214.912 18.9463C211.583 18.9463 209.145 16.4588 209.212 13.2807C209.291 9.53426 211.833 6.63119 214.986 6.68619ZM215.242 17.779C218.102 17.779 220.485 15.6215 220.491 13.0118C220.503 10.066 218.059 7.76186 214.912 7.74963C212.249 7.74963 210.067 10.0415 210.208 13.0791C210.336 15.8721 211.931 17.6995 215.242 17.7729V17.779Z" fill="#B55700"/>
<path d="M281.534 4.27817C282.743 4.1926 283.898 4.10093 285.047 4.02147C285.42 3.99703 285.829 4.00314 285.969 4.43707C286.11 4.87712 285.749 5.09714 285.45 5.31105C284.625 5.91 283.819 6.52728 282.969 7.08956C282.493 7.40737 282.365 7.71907 282.572 8.28135C283.061 9.63815 283.501 11.0072 283.898 12.3945C284.075 13.0118 284.485 13.8186 283.678 14.2158C282.933 14.5825 282.633 13.7452 282.255 13.2991C281.363 12.2479 280.556 11.1172 279.456 9.98652C278.876 10.616 278.332 11.2211 277.764 11.8017C277.44 12.1317 277.098 12.6512 276.566 12.309C276.065 11.9912 276.408 11.4961 276.536 11.0805C276.786 10.2738 277.025 9.4548 277.312 8.66027C277.477 8.20801 277.367 7.91464 276.988 7.65184C275.968 6.94288 274.96 6.20947 273.945 5.48829C273.615 5.25604 273.249 5.0238 273.371 4.54708C273.512 4.0337 273.964 4.11315 274.355 4.1376C275.54 4.21094 276.725 4.27206 277.904 4.36984C278.381 4.41263 278.638 4.25983 278.742 3.78312C278.839 3.34307 279.004 2.92136 279.151 2.49354C279.304 2.04128 279.658 1.81514 280.104 1.77236C280.519 1.73569 280.678 2.09628 280.807 2.40798C281.057 3.00082 281.271 3.61199 281.521 4.26594L281.534 4.27817ZM279.744 8.39747C280.648 7.7863 280.994 6.9714 280.782 5.95278C280.77 5.89777 280.77 5.84277 280.758 5.78776C280.703 5.52496 280.623 5.25604 280.281 5.32938C279.896 5.41495 279.414 5.1277 279.139 5.62886C278.467 6.8512 278.619 7.54183 279.744 8.39747ZM282.194 11.2761C282.236 11.2394 282.279 11.2028 282.322 11.1661C282.047 10.2554 281.766 9.3509 281.485 8.42192C281.027 8.59305 280.776 8.89252 280.477 9.22255C281.051 9.90707 281.625 10.5916 282.2 11.2761H282.194ZM281.735 5.26215C281.778 5.73276 281.858 6.15447 282.102 6.5884C282.835 6.08724 283.507 5.62886 284.326 5.06658C283.299 4.98713 282.53 5.13381 281.735 5.25604V5.26215ZM278.179 5.40272H276.09C276.762 5.91 277.281 6.30726 277.831 6.72286C278.021 6.24003 278.173 5.84888 278.186 5.40272H278.179ZM280.434 4.2965C280.306 3.83201 280.306 3.3553 279.994 2.90914C279.695 3.34919 279.652 3.80756 279.572 4.28428C279.829 4.39429 280.073 4.37595 280.434 4.2965Z" fill="#3D43B7"/>
<path d="M30.6774 90.1174C31.5022 90.6491 32.2599 91.1319 33.0053 91.6331C33.2863 91.8225 33.5429 92.0426 33.7873 92.2748C34.0317 92.5071 34.1295 92.8065 33.9584 93.1243C33.7995 93.4177 33.5185 93.4055 33.2191 93.3566C31.9971 93.1671 30.7752 93.0021 29.4982 92.8126C29.205 93.65 28.9361 94.4506 28.6429 95.239C28.4596 95.7218 28.2274 96.223 27.5859 96.1497C26.9993 96.0824 26.8466 95.5935 26.7671 95.1045C26.6388 94.3284 26.535 93.5461 26.4128 92.6965C25.6796 92.556 24.9281 92.6537 24.1766 92.6476C23.7795 92.6476 23.3273 92.6721 23.1929 92.1893C23.0585 91.7064 23.4495 91.4925 23.7917 91.2847C24.0788 91.1075 24.3782 90.9486 24.6715 90.7774C25.7305 90.1744 26.1541 89.2638 25.9423 88.0455C25.869 87.6299 25.7835 87.2143 25.7102 86.7987C25.6735 86.597 25.6613 86.3953 25.8812 86.2792C26.1073 86.1631 26.2478 86.2914 26.3578 86.4809C26.8282 87.2571 27.6653 87.6177 28.2946 88.2166C28.594 88.4978 28.8078 88.2839 29.0278 88.1188C29.706 87.6116 30.3719 87.086 31.0501 86.5787C31.4045 86.3098 31.82 86.1081 32.1927 86.4809C32.5409 86.8293 32.3087 87.2143 32.1132 87.5688C31.6489 88.4 31.1845 89.2312 30.6896 90.1174H30.6774ZM27.3965 90.6735C27.3659 91.3947 27.5675 91.7003 28.1052 91.7064C28.3862 91.7064 29.0644 90.8019 29.0278 90.4413C28.9972 90.1479 28.7223 89.9035 28.5329 89.9768C28.0624 90.1418 27.4942 90.2579 27.3965 90.6797V90.6735ZM31.7711 92.2687C31.2212 91.7737 30.7385 91.4742 30.2253 91.2358C30.0359 91.4436 29.932 91.627 29.932 91.8776C30.4697 92.122 31.0562 92.1159 31.7711 92.2687Z" fill="#3D43B7"/>
<path d="M67.4033 180.803C66.8351 180.381 66.1935 180.131 65.7109 179.642C65.4604 179.391 65.1976 179.11 65.4176 178.762C65.6925 178.322 66.0225 178.701 66.2974 178.823C66.8595 179.074 67.4094 179.367 68.0204 179.666C68.5947 178.915 68.943 178.083 69.3767 177.307C69.5173 177.063 69.6334 176.806 69.7922 176.574C69.9327 176.366 70.0977 176.128 70.4032 176.274C70.6842 176.415 70.6842 176.702 70.5926 176.941C70.2688 177.815 69.9205 178.676 69.5845 179.538C69.5051 179.746 69.4073 179.947 69.3156 180.168C70.1099 180.644 70.8798 181.096 71.6435 181.573C71.8818 181.72 72.0956 181.915 72.285 182.117C72.4622 182.307 72.6027 182.545 72.3889 182.796C72.1873 183.034 71.9368 182.973 71.6985 182.832C70.7881 182.27 69.8289 181.805 68.7535 181.372C68.4175 181.977 68.0998 182.557 67.776 183.138C67.611 183.431 67.446 183.731 67.2628 184.012C67.0489 184.336 66.8351 184.782 66.3524 184.55C65.8819 184.323 66.0408 183.883 66.1935 183.511C66.4624 182.863 66.7556 182.215 67.0428 181.573C67.1528 181.323 67.2811 181.078 67.4155 180.803H67.4033Z" fill="#3D43B7"/>
<path d="M78.5476 55.5861C79.0608 56.3561 78.4865 57.0407 78.5354 57.7985C79.1586 58.1224 79.8307 58.4586 80.4966 58.8131C80.906 59.0331 81.3703 59.2959 81.0954 59.8459C80.8204 60.4082 80.2889 60.2738 79.8368 60.0721C79.2747 59.8154 78.7431 59.5098 78.1566 59.1981C77.8816 59.9315 77.6311 60.616 77.3623 61.2944C77.2462 61.5878 77.0812 61.9178 76.6963 61.7956C76.3114 61.6795 76.3603 61.3127 76.4092 61.0072C76.5314 60.2554 76.7819 59.5342 77.069 58.7642C76.3297 58.4341 75.6149 58.1224 74.9062 57.7985C74.6557 57.6824 74.3257 57.554 74.4113 57.2057C74.5151 56.7656 74.9184 56.9062 75.1872 56.9612C75.957 57.1079 76.7208 57.3096 77.4845 57.4868C77.9733 56.949 77.8694 56.1117 78.5415 55.6044L78.5476 55.5861Z" fill="#3D43B7"/>
<path d="M44.8031 175.284C46.3978 175.37 47.1737 176.219 47.076 177.778C46.9843 179.196 45.8296 180.18 44.3632 180.088C42.7685 179.99 41.7177 178.872 41.7482 177.448C41.7726 176.238 43.3612 175.137 44.8031 175.284ZM44.797 176.152C44.1005 176.152 42.7991 177.093 42.7991 177.594C42.7991 178.34 43.795 179.061 44.797 179.043C45.6402 179.031 46.3183 178.371 46.3183 177.558C46.3183 176.702 45.7196 176.146 44.797 176.146V176.152Z" fill="#3D43B7"/>
<path d="M188.726 18.2435C188.934 17.8768 189.135 17.5101 189.343 17.1495C189.465 16.9417 189.636 16.7828 189.899 16.8867C190.18 16.9967 190.149 17.2228 190.07 17.4551C190.033 17.559 190.033 17.6812 189.984 17.779C189.624 18.4819 189.752 18.9952 190.43 19.472C190.791 19.7287 191.445 20.1381 191.072 20.6821C190.638 21.3116 190.21 20.5782 189.777 20.4315C189.593 20.3704 189.422 20.2726 189.208 20.1687C188.842 20.8838 188.488 21.5866 188.121 22.2834C187.913 22.6684 187.657 23.0779 187.143 22.8273C186.661 22.5951 186.82 22.155 186.972 21.7883C187.272 21.061 187.602 20.3521 187.938 19.5942C187.528 19.3436 187.125 19.0991 186.722 18.8425C186.477 18.6897 186.215 18.5185 186.337 18.1763C186.453 17.8462 186.777 17.889 187.058 17.8585C187.644 17.8035 188.127 18.1885 188.732 18.2496L188.726 18.2435Z" fill="#3D43B7"/>
<path d="M270.622 69.0624C270.628 67.8584 271.74 66.8866 273.078 66.9172C274.165 66.9417 275.094 67.9073 275.088 69.0135C275.076 70.3581 274.214 71.2443 272.937 71.226C271.562 71.2076 270.615 70.3153 270.628 69.0563L270.622 69.0624ZM272.919 69.8753C273.475 69.8753 273.835 69.5514 273.86 69.0196C273.884 68.4757 273.347 67.9562 272.729 68.0418C272.29 68.1029 271.624 67.9501 271.611 68.7446C271.599 69.423 272.125 69.8753 272.919 69.8814V69.8753Z" fill="#3D43B7"/>
<path d="M236.04 112.67C234.8 112.688 233.737 111.802 233.688 110.708C233.645 109.595 234.525 108.746 235.747 108.728C237.109 108.709 237.995 109.485 237.983 110.702C237.977 111.722 237.054 112.651 236.04 112.67ZM235.783 109.657C235.472 109.822 234.836 109.553 234.843 110.292C234.843 110.897 235.399 111.441 236.077 111.435C236.608 111.435 236.975 111.136 236.975 110.622C236.975 109.907 236.443 109.699 235.783 109.65V109.657Z" fill="#3D43B7"/>
<path d="M1.53358 128.481C0.665985 128.523 0.250518 128.242 0.0733341 127.656C-0.0977404 127.093 0.0183459 126.36 0.476581 126.225C1.09978 126.036 1.88795 125.914 2.53559 126.348C2.90217 126.592 3.1649 126.977 2.9816 127.436C2.68833 128.181 2.02847 128.426 1.53969 128.487L1.53358 128.481Z" fill="#3D43B7"/>
<path d="M52.5687 173.286C53.0697 173.328 53.4974 173.628 53.4669 174.27C53.4363 174.942 52.9231 175.248 52.3121 175.248C51.7745 175.248 51.3162 175.015 51.2857 174.367C51.2612 173.793 51.8233 173.286 52.5687 173.286Z" fill="#3D43B7"/>
<path d="M230.266 110.463C230.218 111.044 229.9 111.441 229.264 111.453C228.678 111.466 228.305 111.136 228.269 110.531C228.238 109.962 228.788 109.455 229.374 109.498C229.93 109.54 230.254 109.834 230.266 110.463Z" fill="#3D43B7"/>
<path d="M229.338 24.4591C227.535 22.815 225.824 21.2565 224.108 19.6919C223.979 19.5758 223.839 19.478 223.723 19.3558C223.552 19.1724 223.509 18.9402 223.662 18.7385C223.839 18.5063 224.071 18.5857 224.26 18.7385C224.554 18.9585 224.829 19.203 225.104 19.4475C226.698 20.8409 228.293 22.2344 229.924 23.6523C232.79 20.5842 235.9 17.9684 240.14 17.1922C240.305 16.795 240.207 16.4283 240.225 16.0677C240.244 15.7315 240.225 15.3954 240.225 14.9981C239.077 15.1387 238.038 15.481 236.999 15.8232C236.058 16.1349 235.142 16.4955 234.201 16.8072C233.828 16.9294 233.309 17.3389 233.071 16.8316C232.808 16.2816 233.462 16.1166 233.816 15.9027C235.631 14.8148 237.629 14.1914 239.694 13.8063C240.286 13.6963 240.433 13.4519 240.415 12.9201C240.384 11.9606 240.39 10.9949 240.384 10.0354C240.384 9.67482 240.439 9.302 240.885 9.302C241.319 9.302 241.411 9.65037 241.429 10.0232C241.49 11.1783 241.557 12.3334 241.624 13.5313C244.966 13.733 248.272 14.0508 250.85 16.575C247.838 15.5115 244.802 14.662 241.545 14.8087C241.368 15.5054 241.472 16.1777 241.459 16.9172C244.239 16.6789 246.922 16.8622 249.408 18.1457C251.877 19.4169 253.734 21.3849 255.213 23.469C256.129 22.6439 257.027 21.8433 257.919 21.0365C258.255 20.737 258.579 20.4192 258.933 20.1381C259.123 19.9853 259.373 19.8019 259.618 20.0281C259.874 20.2664 259.783 20.5537 259.593 20.792C259.19 21.3054 258.775 21.8066 258.353 22.3016C257.858 22.8823 257.4 23.5118 256.838 24.019C256.202 24.5935 256.178 25.0519 256.612 25.8037C258.054 28.3034 259.215 30.9375 260.119 33.6817C260.308 34.2501 260.033 34.5618 259.734 34.8735C258.396 36.2547 256.801 37.2387 255.005 37.9232C252.335 38.9439 249.531 39.2983 246.726 39.61C244.337 39.879 241.948 40.1479 239.541 39.8056C234.665 39.115 230.15 37.5748 226.35 34.3173C225.794 33.8406 225.213 33.3822 224.682 32.8749C224.218 32.4349 224.163 32.0009 224.578 31.3959C226.148 29.1162 227.444 26.6532 229.313 24.4713L229.338 24.4591ZM225.446 31.8909C226.106 32.3982 226.753 32.8505 227.358 33.3516C231.018 36.3892 235.276 37.9966 239.944 38.5588C243.751 39.0172 247.502 38.4427 251.229 37.7521C253.966 37.2448 256.465 36.1936 258.652 34.4212C259.141 34.0239 259.282 33.7122 259.007 33.0949C257.919 30.6319 256.502 28.3461 255.219 25.9931C254.443 24.5691 253.435 23.3101 252.347 22.1122C249.06 18.4879 244.973 17.5039 240.311 18.4757C236.095 19.3558 233.095 22.0633 230.388 25.1925C228.592 27.2705 227.169 29.6235 225.452 31.8848L225.446 31.8909Z" fill="#B55700"/>
<path d="M247.374 30.4363C246.555 30.2897 245.657 29.6296 245.052 30.4486C244.356 31.3837 245.553 31.9643 245.791 32.7466C244.032 34.5495 240.971 34.6718 238.9 33.0277C236.596 31.2003 236.162 28.1628 237.788 25.5592C239.511 22.8028 242.706 22.32 245.07 23.3895C247.435 24.4591 248.425 27.5333 247.374 30.4302V30.4363Z" fill="#B55700"/>
<path d="M218.047 152.805C215.878 151.125 214.637 148.9 214.21 146.278C213.037 139.121 217.112 133.89 223.692 132.857C229.417 131.958 234.28 134.391 236.785 139.262C238.038 141.7 238.655 144.322 238.05 147.066C237.616 149.004 236.578 150.654 235.117 152.023C231.054 155.855 226.173 157.139 220.955 154.645C220.326 154.346 220.069 154.682 219.794 155.079C218.26 157.322 216.617 159.486 214.9 161.588C213.556 163.232 212.358 164.98 211.045 166.648C210.495 167.345 209.872 167.956 209.132 168.439C208.607 168.781 208.027 168.91 207.452 168.568C206.902 168.237 206.792 167.681 206.805 167.089C206.817 166.282 207.22 165.628 207.648 164.992C209.194 162.712 211.081 160.714 212.878 158.636C214.558 156.692 216.293 154.786 218.059 152.805H218.047ZM227.358 154.798C229.423 154.767 232.001 153.759 233.394 150.599C235.282 146.339 235.918 142.104 232.9 138.137C230.81 135.387 227.162 132.582 222.525 134.403C219.898 135.436 217.643 136.842 216.409 139.439C213.03 146.535 218.377 154.859 227.358 154.804V154.798ZM229.539 134.287C236.737 138.877 236.602 145.062 233.309 152.06C236.095 149.682 237.781 147.048 237.036 143.32C236.162 138.92 233.669 135.925 229.533 134.293L229.539 134.287ZM217.692 155.311C214.882 158.514 211.906 161.582 209.224 164.9C208.784 165.444 208.418 166.062 208.069 166.673C207.868 167.033 207.715 167.461 208.204 167.852C209.059 167.474 209.774 166.881 210.354 166.153C211.949 164.137 213.507 162.089 215.102 160.072C216.201 158.673 217.326 157.298 218.236 155.776C218.12 155.531 217.943 155.409 217.692 155.317V155.311Z" fill="#317A8B"/>
<path d="M224.285 144.738C224.04 145.667 224.12 146.608 223.826 147.482C223.735 147.757 223.723 148.167 223.307 148.118C222.843 148.069 222.904 147.635 222.922 147.323C223.044 144.915 223.497 142.562 224.291 140.282C224.389 139.995 224.547 139.72 224.718 139.47C225.244 138.693 226.044 138.614 226.747 139.25C227.199 139.659 227.443 140.191 227.633 140.747C228.348 142.813 228.623 144.964 228.922 147.115C228.94 147.262 228.922 147.421 228.898 147.568C228.855 147.763 228.818 147.995 228.562 148.02C228.311 148.044 228.183 147.855 228.128 147.659C227.902 146.901 227.639 146.15 227.498 145.374C227.382 144.695 227.071 144.487 226.417 144.573C225.739 144.665 225.048 144.671 224.285 144.72V144.738ZM227.022 143.595C226.716 142.403 226.527 141.297 226.05 140.27C225.965 140.087 225.873 139.873 225.635 139.873C225.397 139.873 225.317 140.081 225.219 140.264C224.676 141.303 224.627 142.452 224.425 143.595C225.323 143.595 226.13 143.595 227.022 143.595Z" fill="#317A8B"/>
<path d="M67.6844 110.555C70.2933 111.649 72.8777 112.719 75.4438 113.819C77.3379 114.632 79.1952 115.53 81.1259 116.251C81.5842 116.422 81.9508 116.532 82.4457 116.208C83.0322 115.823 83.7287 115.884 84.2114 116.465C84.7063 117.058 84.5963 117.7 84.0403 118.201C83.6126 118.58 83.7287 119.032 83.7654 119.46C84.1198 123.127 84.1992 126.806 84.0159 130.479C83.7715 135.344 83.7043 140.209 83.7532 145.074C83.7837 148.228 84.2175 151.326 84.9568 154.394C86.3132 160.023 89.9852 163.079 95.5879 163.874C98.6672 164.308 101.71 165.029 104.82 165.163C108.571 165.322 112.317 165.762 116.086 165.524C118.402 165.377 120.724 165.347 123.039 165.273C123.394 165.261 123.846 165.182 123.931 165.689C124.017 166.227 123.552 166.331 123.18 166.435C121.774 166.826 120.32 166.74 118.885 166.832C118.61 166.85 118.335 166.862 117.993 166.887C118.109 169.289 118.072 171.629 118.041 173.97C117.968 178.939 117.229 183.828 116.325 188.7C115.237 194.536 114.345 200.41 113.092 206.216C112.915 207.047 112.695 207.866 112.5 208.691C112.353 209.308 112.115 209.877 112.524 210.543C112.848 211.075 112.39 211.863 111.736 212.114C111.095 212.364 110.496 212.285 110.099 211.655C109.72 211.056 109.811 210.011 110.386 209.846C111.314 209.577 111.162 208.893 111.266 208.269C111.828 205.012 112.445 201.76 112.952 198.497C113.881 192.519 115.237 186.615 116.05 180.614C116.453 177.613 116.679 174.594 116.654 171.562C116.642 170.034 116.893 168.519 116.74 166.856C115.469 166.856 114.211 166.881 112.952 166.856C107.807 166.728 102.675 166.447 97.6102 165.438C96.0583 165.127 94.4759 165.01 92.9484 164.57C87.8773 163.11 85.0362 159.577 83.7104 154.645C82.8122 151.296 82.3662 147.885 82.3357 144.42C82.2868 139.237 82.4823 134.073 82.8 128.902C83.0017 125.627 82.855 122.338 82.7084 119.063C82.6962 118.818 82.6656 118.635 82.409 118.519C82.2379 118.439 81.9997 118.299 81.9691 118.146C81.7308 117.125 80.8266 117.033 80.0751 116.722C76.1892 115.102 72.3278 113.434 68.3992 111.918C66.3769 111.136 66.328 110.842 67.4889 108.984C70.3605 104.376 73.397 99.8778 76.0792 95.1473C80.6372 87.086 84.0403 78.5418 86.9425 69.7776C88.9404 63.7514 91.2682 57.878 94.4148 52.3469C96.1438 49.3094 98.1356 46.4674 100.567 43.9494C100.769 43.7416 100.989 43.5827 100.94 43.1732C100.787 41.9081 101.802 40.8813 103.097 40.9608C103.482 40.9852 103.787 40.9669 104.111 40.7041C108.651 36.9393 113.771 34.2868 119.386 32.4532C125.202 30.5525 131.08 28.9146 137.116 27.9978C144.155 26.9344 151.248 26.5677 158.391 26.8305C167.5 27.1666 176.023 29.5257 184.021 33.7734C196.339 40.3129 204.465 50.3606 208.699 63.6475C210.287 68.6408 210.697 73.6707 210.458 78.8779C210.049 87.8499 207.654 96.3147 204.416 104.59C203.707 106.405 202.784 108.135 201.953 109.895C201.77 110.286 201.679 110.634 201.813 111.099C202.021 111.826 201.758 112.474 200.994 112.737C200.573 112.884 200.353 113.128 200.169 113.501C199.186 115.42 197.994 117.205 196.711 118.934C191.915 125.382 186.893 131.659 182.31 138.259C179.891 141.749 177.985 145.502 177.08 149.676C176.476 152.457 176.818 155.262 177.313 158.025C178.852 166.71 180.496 175.382 182.543 183.963C183.257 186.958 184.388 189.849 184.84 192.917C184.889 193.259 185.078 193.43 185.378 193.595C186.215 194.059 186.435 194.866 185.989 195.594C185.518 196.357 184.565 196.645 183.856 196.235C183.123 195.814 182.836 194.817 183.361 194.102C183.703 193.644 183.673 193.259 183.532 192.788C181.712 186.664 179.989 180.516 178.602 174.27C177.337 168.574 176.567 162.804 175.73 157.041C175.235 153.606 175.254 150.202 176.476 146.914C177.856 143.216 179.671 139.757 181.981 136.53C186.465 130.271 191.261 124.251 195.874 118.091C197.047 116.526 198.117 114.9 199.045 113.177C199.265 112.767 199.4 112.382 199.32 111.893C199.198 111.123 199.485 110.476 200.249 110.176C200.585 110.048 200.725 109.828 200.872 109.547C204.904 101.827 207.403 93.5888 208.766 85.0324C209.597 79.8069 210.043 74.4591 208.955 69.2336C205.919 54.6449 198.269 43.2099 185.194 35.7169C178.217 31.7198 170.683 29.269 162.704 28.3339C157.334 27.7044 151.92 27.8083 146.519 28.0467C143.495 28.1812 140.507 28.6395 137.513 29.0368C130.896 29.9169 124.579 31.9154 118.316 34.1523C113.551 35.8575 109.243 38.3388 105.296 41.4864C104.85 41.8409 104.484 42.1648 104.429 42.8371C104.355 43.6805 103.628 44.0716 102.877 44.1755C102.278 44.255 101.911 44.5667 101.533 44.9517C97.8179 48.7471 95.264 53.3003 92.9423 58.0125C90.5717 62.8224 88.8304 67.8707 87.1258 72.9373C83.2277 84.5252 77.9855 95.4529 71.112 105.58C70 107.218 68.8819 108.85 67.7088 110.567L67.6844 110.555Z" fill="#3D43B7"/>
<path d="M127.579 166.239C127.127 166.208 126.577 166.331 126.497 165.695C126.418 165.029 126.956 164.968 127.457 164.9C130.31 164.534 133.145 163.971 136.035 163.898C136.982 163.874 137.837 163.464 138.668 163.036C140.312 162.193 141.772 161.074 143.281 160.036C143.648 159.779 143.562 159.473 143.58 159.149C143.617 158.563 143.91 158.129 144.46 157.902C144.961 157.695 145.407 157.841 145.78 158.202C146.538 158.935 146.201 160.078 145.108 160.353C144.637 160.469 144.307 160.708 143.953 160.995C141.094 163.311 137.972 165.004 134.202 165.322C131.984 165.505 129.784 165.921 127.579 166.239Z" fill="#3D43B7"/>
<path d="M169.846 118.616C168.013 119.228 166.26 119.833 164.494 120.395C159.784 121.898 154.963 122.913 150.02 123.005C139.218 123.206 129.155 120.664 119.758 115.121C111.162 110.048 105.736 102.726 103.305 93.2405C99.883 79.9109 102.944 67.883 111.638 57.3525C118.799 48.6861 127.939 42.9227 138.815 40.0869C143.544 38.8523 148.425 38.8156 153.307 39.0601C158.446 39.3229 163.474 40.1358 168.405 41.5781C177.698 44.2978 185.182 49.6762 191.243 57.1447C193.381 59.7788 195.605 62.3519 197.066 65.4628C199.314 70.2605 200.725 75.266 200.634 80.6015C200.56 85.1181 199.516 89.4268 197.56 93.5278C194.915 99.0772 191.42 104.083 187.876 109.058C182.598 116.465 176.775 123.426 170.427 129.948C169.028 131.384 167.665 132.869 166.284 134.324C166.003 134.623 165.716 135.088 165.24 134.745C164.787 134.427 165.05 133.987 165.24 133.602C167.439 129.037 168.624 124.148 169.785 119.252C169.828 119.069 169.828 118.873 169.859 118.616H169.846Z" fill="#3D43B7"/>
<path d="M129.968 50.4952C134.85 49.0589 138.289 51.6808 137.917 56.7536C137.52 62.2052 134.972 66.6362 130.408 69.7838C129.522 70.3949 128.52 70.8044 127.347 71C127.133 69.2154 126.943 67.4796 126.717 65.7561C126.412 63.4215 126.076 61.0868 125.746 58.7582C125.691 58.3671 125.557 57.9331 125.068 58.0004C124.597 58.0615 124.683 58.5382 124.689 58.8621C124.726 61.1907 124.988 63.5009 125.233 65.8111C125.428 67.6691 125.636 69.521 125.844 71.4339C125.056 71.6112 124.353 71.7762 123.638 71.9229C123.284 71.9962 122.868 72.039 122.929 72.5096C122.99 72.9802 123.436 72.9191 123.772 72.9069C124.493 72.8763 125.214 72.8152 126.015 72.7602C126.363 75.8649 126.705 78.9269 127.047 81.9889C127.139 82.814 127.2 83.6391 127.292 84.458C127.334 84.8431 127.414 85.3076 127.915 85.2587C128.404 85.2159 128.404 84.7514 128.404 84.3602C128.404 84.2319 128.41 84.1035 128.404 83.9752C128.257 81.6894 128.117 79.3975 127.952 77.1117C127.835 75.5655 127.677 74.0192 127.53 72.4424C128.184 72.2468 128.801 72.1001 129.387 71.874C129.98 71.6478 130.597 71.4156 131.104 71.055C136.53 67.2168 139.389 61.9485 139.291 55.3051C139.23 51.3019 136.511 48.8511 132.76 48.7289C128.477 48.5883 124.994 50.324 122.141 53.331C118.732 56.9186 117.174 61.1968 117.907 66.184C117.98 66.679 118.011 67.2535 118.665 67.4674C118.732 67.333 118.824 67.2474 118.811 67.1741C118.445 65.0777 118.811 63.0425 119.441 61.0623C121.145 55.7513 124.579 52.0781 129.974 50.4891L129.968 50.4952Z" fill="white"/>
<path d="M150.595 86.2854C149.965 86.1998 149.929 86.7682 149.849 87.1899C149.024 91.4498 148.591 95.7524 148.267 100.073C148.077 102.598 147.827 105.122 147.43 107.75C147.088 107.316 147.094 106.888 147.008 106.509C145.792 101.07 144.344 95.6852 142.951 90.2886C142.786 89.6468 142.536 89.0173 142.273 88.4061C142.102 88.0028 141.784 87.6911 141.295 87.85C140.843 87.9967 140.966 88.4 140.996 88.7423C141.021 89.0295 141.039 89.3168 141.088 89.5979C141.815 93.6439 142.67 97.6593 143.727 101.632C144.46 104.401 145.157 107.181 146.092 109.895C146.318 110.561 146.55 111.337 147.43 111.301C148.377 111.258 148.499 110.408 148.633 109.693C148.829 108.66 148.957 107.615 149.104 106.576C149.66 102.665 149.874 98.7166 150.204 94.7807C150.417 92.2749 150.992 89.8057 151.041 87.2816C151.047 86.8782 151.169 86.3587 150.595 86.2793V86.2854Z" fill="white"/>
<path d="M180.569 84.2808C180.667 83.9935 180.649 83.6941 180.368 83.5107C180.056 83.309 179.738 83.3885 179.5 83.6452C179.262 83.8958 179.036 84.1769 178.871 84.4825C178.162 85.7659 177.441 87.0433 176.793 88.3512C175.962 90.0319 175.034 91.6576 174.007 93.3689C173.885 92.99 173.787 92.7333 173.714 92.4705C172.944 89.7752 172.18 87.08 171.398 84.3908C171.27 83.9569 171.075 83.4985 170.5 83.5841C169.889 83.6757 169.92 84.1891 169.956 84.6353C170.299 88.6079 171.337 92.3911 173.06 95.9847C173.213 96.3026 173.127 96.5226 173.03 96.7854C172.138 99.3095 171.246 101.828 170.366 104.358C170.103 105.11 169.895 105.88 169.663 106.637C169.51 107.139 169.51 107.64 170.079 107.848C170.653 108.055 170.965 107.634 171.191 107.188C171.49 106.589 171.795 105.99 172.034 105.366C174.502 98.8084 177.074 92.2872 179.97 85.9004C180.209 85.3809 180.386 84.8308 180.563 84.2869L180.569 84.2808Z" fill="white"/>
<path d="M154.871 67.4552C154.7 66.8257 154.78 66.4468 155.293 65.9945C156.637 64.8089 157.175 63.1526 157.639 61.4902C157.737 61.1418 157.731 60.7568 157.26 60.6529C156.845 60.5612 156.723 60.8851 156.606 61.1968C156.368 61.8508 156.148 62.5231 155.861 63.1587C155.494 63.9654 155.048 64.7355 154.211 65.2245C153.863 64.6561 153.558 64.106 153.197 63.5926C152.666 62.8348 151.951 62.3947 150.992 62.572C150.112 62.7309 149.684 63.397 149.354 64.1549C149.232 64.436 149.281 64.7661 148.963 64.9861C148.199 65.5178 147.851 66.3551 147.521 67.1863C146.415 69.9855 146.348 72.9008 146.66 75.8405C146.812 77.3073 147.21 78.7191 147.967 80.0026C149.47 82.5329 151.865 82.5756 153.49 80.1065C153.875 79.5198 154.193 78.8903 154.431 78.2363C155.727 74.6915 155.855 71.0856 154.871 67.4552ZM151.236 63.6293C151.786 63.3787 152.128 63.776 152.421 64.161C152.763 64.6133 153.063 65.09 153.228 65.7256C152.568 65.9273 152 65.9212 151.444 65.7684C150.973 65.6401 150.546 65.4017 150.564 64.8027C150.576 64.2955 150.765 63.8432 151.236 63.6293ZM152.531 79.0858C152.403 79.2998 152.232 79.5014 152.061 79.6848C151.181 80.6016 150.442 80.5404 149.739 79.4648C148.847 78.0958 148.511 76.525 148.383 74.936C148.169 72.3263 148.248 69.7227 149.073 67.1985C149.177 66.8746 149.232 66.514 149.507 66.2634C150.912 67.3208 151.157 67.3758 153.796 67.1558C154.816 71.2873 154.81 75.2966 152.537 79.0858H152.531Z" fill="white"/>
<path d="M144.179 82.264C144.344 82.5573 144.638 82.7346 144.992 82.5757C145.334 82.4229 145.414 82.1173 145.316 81.775C145.255 81.5611 145.175 81.3533 145.09 81.1455C143.886 78.1508 142.835 75.0766 140.336 72.803C140.843 72.4608 141.289 72.2102 141.687 71.8924C143.263 70.6028 144.491 69.0871 144.497 66.9235C144.497 65.5362 143.458 64.8517 142.151 65.3284C141.601 65.5301 141.155 65.8907 140.746 66.294C139.64 67.388 138.919 68.7326 138.296 70.1322C138.18 70.395 138.198 70.7678 137.837 70.9023C137.758 70.0283 137.685 69.1788 137.611 68.3231C137.587 68.0542 137.538 67.7975 137.22 67.7486C136.854 67.6997 136.829 67.9931 136.793 68.2437C136.731 68.6532 136.664 69.0626 136.64 69.4721C136.469 72.4302 136.45 75.3883 136.444 78.3525C136.444 79.4709 136.408 80.5832 136.567 81.6895C136.646 82.2212 136.848 82.6429 137.446 82.6123C138.051 82.5757 138.216 82.1295 138.198 81.5917C138.161 80.571 138.112 79.5565 138.082 78.5358C138.033 76.8795 138.241 75.2599 138.754 73.6159C139.64 74.1293 140.122 74.8871 140.611 75.6205C141.601 77.1057 142.353 78.7314 143.153 80.3204C143.483 80.9744 143.813 81.6283 144.179 82.264ZM139.127 72.1185C139.762 70.2361 140.452 68.5004 141.79 67.1191C142.133 66.7646 142.572 66.239 143.067 66.4835C143.636 66.7707 143.391 67.4614 143.293 67.9625C142.945 69.7288 140.886 71.8007 139.127 72.1185Z" fill="white"/>
<path d="M177.771 79.0675C178.895 80.8277 180.447 81.0416 182.023 79.6664C183.031 78.7925 183.734 77.7046 184.192 76.4578C184.382 75.9444 184.534 75.4249 184.534 74.8809C184.534 74.5265 184.486 74.1475 184.046 74.062C183.618 73.9764 183.404 74.2331 183.282 74.6059C183.19 74.8748 183.086 75.1438 182.97 75.4066C182.451 76.5861 181.803 77.6679 180.752 78.4624C180.196 78.8841 179.775 78.8047 179.414 78.2057C178.999 77.5151 178.73 76.7695 178.522 75.9994C177.661 72.7785 177.618 69.521 178.07 66.239C178.278 64.7477 178.602 63.2931 179.396 61.9852C179.769 61.3679 180.154 61.3068 180.661 61.8385C181.333 62.5353 181.699 63.3665 181.754 64.3138C181.797 65.0594 181.761 65.8111 181.761 66.5873C182.543 66.6729 182.701 66.184 182.793 65.7317C183.178 63.7393 182.86 61.9241 181.315 60.4695C180.337 59.5466 179.304 59.5894 178.382 60.5612C177.6 61.3863 177.117 62.3947 176.775 63.4642C175.62 67.0579 175.529 70.7189 176.103 74.4165C176.359 76.0605 176.848 77.6434 177.752 79.0675H177.771Z" fill="white"/>
<path d="M166.773 81.4511C166.517 81.4694 166.26 81.4755 166.016 81.5305C163.333 82.0867 160.657 82.6734 158.079 83.6146C157.48 83.8346 156.9 84.0974 156.332 84.3725C155.965 84.5497 155.69 84.8492 155.849 85.2953C156.002 85.7415 156.411 85.7904 156.802 85.7293C157.175 85.6682 157.541 85.552 157.908 85.442C159.295 85.0081 160.682 84.5619 162.063 84.128C162.13 84.2747 162.179 84.3297 162.173 84.3847C161.885 89.7691 162.05 95.1597 162.069 100.544C162.075 102.329 162.313 104.101 162.576 105.867C162.637 106.277 162.808 106.619 163.303 106.589C163.786 106.552 163.92 106.179 163.951 105.782C163.993 105.275 164.018 104.761 164.012 104.254C163.981 100.012 163.932 95.7708 163.92 91.5354C163.92 88.9013 163.932 86.2671 163.773 83.6391C164.861 83.254 165.887 83.0523 166.92 82.8568C167.378 82.7712 167.843 82.6184 167.794 82.0378C167.739 81.4266 167.244 81.4266 166.779 81.4572L166.773 81.4511Z" fill="white"/>
<path d="M130.463 91.0098C130.896 90.8876 131.232 90.7959 131.562 90.6981C133.175 90.2214 134.801 89.7569 136.401 89.2497C136.933 89.0785 137.471 88.7607 137.171 88.0701C136.89 87.4345 136.328 87.6423 135.845 87.8195C133.933 88.5346 131.947 89.0052 129.992 89.5675C127.732 90.2153 125.489 90.9548 123.247 91.676C122.831 91.8105 122.306 91.9572 122.508 92.5744C122.691 93.1489 123.216 93.0634 123.638 92.9595C124.689 92.7089 125.727 92.4033 126.772 92.1222C127.536 91.9205 128.251 91.5538 129.082 91.4743C129.082 92.3361 129.057 93.1551 129.082 93.9801C129.277 99.2973 129.736 104.596 130.322 109.883C130.401 110.58 130.536 111.264 130.67 111.949C130.731 112.254 130.951 112.468 131.281 112.438C131.654 112.407 131.837 112.156 131.856 111.796C131.868 111.576 131.874 111.35 131.874 111.13C131.856 107.395 131.501 103.686 131.202 99.9696C130.964 97.0177 130.713 94.0718 130.456 91.0159L130.463 91.0098Z" fill="white"/>
<path d="M158.959 79.6114C159.148 80.522 159.649 80.742 160.37 80.2103C164.665 77.02 166.327 72.644 165.887 67.4429C165.643 64.5643 163.217 62.5352 160.602 62.743C159.918 62.798 159.484 63.0425 159.399 63.8126C158.983 67.3268 158.775 70.841 158.843 74.3797C158.843 75.0154 158.843 75.651 158.843 76.2866C158.849 77.3989 158.727 78.5174 158.959 79.6175V79.6114ZM160.596 64.1243C162.6 64.0081 164.286 65.4505 164.476 67.7118C164.8 71.6478 163.492 75.0642 160.596 77.894V64.1304V64.1243Z" fill="white"/>
<path d="M170.775 79.2447C171.875 79.3059 172.455 78.6152 172.901 77.7535C173.225 77.1301 173.445 76.4578 173.561 75.7672C174.246 71.7701 174.612 67.7486 174.508 63.6904C174.496 63.2137 174.404 62.7431 174.319 62.2725C174.264 61.9547 174.038 61.7835 173.708 61.7713C173.335 61.7591 173.097 61.9485 173.011 62.2969C172.95 62.5414 172.95 62.8042 172.932 63.0548C172.663 66.6424 172.663 70.2483 172.162 73.8175C171.973 75.1499 171.887 76.5311 170.891 77.7168C170.207 77.0628 170.091 76.3172 169.95 75.6083C169.437 72.9924 169.456 70.3522 169.645 67.7058C169.743 66.3429 169.957 64.9861 170.091 63.6232C170.134 63.2198 170.207 62.7003 169.657 62.6086C169.132 62.5231 169.009 63.0181 168.875 63.4093C168.832 63.5315 168.79 63.6476 168.765 63.776C168.16 66.7524 167.83 69.7593 168.02 72.7907C168.124 74.4409 168.258 76.1033 168.924 77.6496C169.272 78.4624 169.743 79.1775 170.763 79.2325L170.775 79.2447Z" fill="white"/>
<path d="M184.302 86.6522C183.722 86.5544 183.606 87.0922 183.465 87.5078C182.983 88.889 182.463 90.252 182.036 91.6516C180.881 95.398 180.038 99.2118 179.683 103.117C179.683 103.404 179.671 103.692 179.683 103.979C179.696 104.229 179.836 104.394 180.093 104.431C180.307 104.462 180.496 104.352 180.551 104.162C180.808 103.343 181.4 102.702 181.614 101.846C182.366 98.79 183.221 95.7525 183.991 92.7028C184.394 91.1015 184.773 89.4819 184.846 87.8195C184.865 87.3611 184.944 86.7622 184.302 86.6583V86.6522Z" fill="white"/>
<path d="M138.693 108.367C138.436 105.935 138.228 103.49 137.996 101.057C137.74 98.3989 137.477 95.7403 137.196 93.0878C137.153 92.6905 137.123 92.1466 136.603 92.1283C136.041 92.1099 136.096 92.6539 136.029 93.0511C135.778 94.5668 135.833 96.0948 135.907 97.9222C136.011 99.5907 136.102 101.565 136.261 103.527C136.45 105.843 136.725 108.147 137.269 110.408C137.404 110.971 137.63 111.6 138.393 111.429C139.114 111.27 139.127 110.598 139.065 110.029C139.004 109.467 138.754 108.923 138.693 108.361V108.367Z" fill="white"/>
<path d="M155.751 96.7487C155.641 95.0986 155.708 93.4423 155.421 91.8044C155.36 91.4438 155.317 91.0587 154.871 91.0343C154.376 91.0098 154.279 91.4071 154.205 91.8044C153.93 93.3445 153.796 94.8908 153.82 96.3148C153.79 99.2362 154.273 101.962 154.841 104.67C154.945 105.158 155.091 105.751 155.794 105.611C156.442 105.482 156.35 104.932 156.301 104.456C156.014 101.895 155.922 99.3218 155.751 96.7549V96.7487Z" fill="white"/>
<path d="M179.567 106.405C178.81 106.375 178.577 106.949 178.504 107.579C178.559 108.202 178.785 108.673 179.457 108.679C180.19 108.685 180.557 108.19 180.594 107.536C180.636 106.876 180.209 106.436 179.567 106.405Z" fill="white"/>
<path d="M71.5029 41.4925V38.4978H72.6699C72.9326 38.4978 73.1587 38.5406 73.342 38.62C73.5253 38.7056 73.6719 38.8217 73.7697 38.9806C73.8674 39.1395 73.9224 39.3229 73.9224 39.5429C73.9224 39.7629 73.8735 39.9463 73.7697 40.0991C73.6719 40.2519 73.5253 40.3741 73.342 40.4597C73.1587 40.5452 72.9326 40.588 72.6699 40.588H71.7351L71.9245 40.3863V41.4925H71.4968H71.5029ZM71.9306 40.423L71.7412 40.2091H72.6577C72.9326 40.2091 73.1404 40.148 73.2809 40.0318C73.4214 39.9157 73.4947 39.7507 73.4947 39.5368C73.4947 39.3229 73.4214 39.1579 73.2809 39.0417C73.1404 38.9256 72.9326 38.8645 72.6577 38.8645H71.7412L71.9306 38.6506V40.423Z" fill="#3D43B7"/>
<path d="M75.4009 41.4925V38.4978H75.8286V41.1197H77.4477V41.4925H75.4009Z" fill="#3D43B7"/>
<path d="M78.3459 41.4925L79.7023 38.4978H80.1239L81.4864 41.4925H81.0404L79.8306 38.7362H80.0017L78.792 41.4925H78.3521H78.3459ZM78.9203 40.7408L79.0364 40.3985H80.7227L80.8449 40.7408H78.9203Z" fill="#3D43B7"/>
<path d="M82.7817 41.4925V38.4978H83.13L85.1096 40.9547H84.9263V38.4978H85.354V41.4925H85.0057L83.0261 39.0356H83.2094V41.4925H82.7817Z" fill="#3D43B7"/>
<path d="M87.1135 41.4925V38.4978H87.4618L89.4414 40.9547H89.2581V38.4978H89.6857V41.4925H89.3375L87.3579 39.0356H87.5412V41.4925H87.1135Z" fill="#3D43B7"/>
<path d="M91.4392 41.4925V38.4978H93.5532V38.8706H91.8669V41.1197H93.6143V41.4925H91.4392ZM91.8302 40.1541V39.7874H93.3699V40.1541H91.8302Z" fill="#3D43B7"/>
<path d="M95.1602 41.4925V38.4978H96.3271C96.7121 38.4978 97.0175 38.5895 97.2436 38.7728C97.4636 38.9562 97.5796 39.2129 97.5796 39.5429C97.5796 39.7568 97.5308 39.9463 97.4269 40.0991C97.3291 40.2519 97.1825 40.3741 96.9992 40.4536C96.8159 40.5391 96.5899 40.5758 96.3271 40.5758H95.3923L95.5817 40.3802V41.4864H95.1541L95.1602 41.4925ZM95.5878 40.423L95.3984 40.2152H96.3149C96.5899 40.2152 96.7976 40.1541 96.9381 40.038C97.0786 39.9218 97.152 39.7507 97.152 39.5368C97.152 39.3229 97.0786 39.1579 96.9381 39.0417C96.7976 38.9256 96.5899 38.8645 96.3149 38.8645H95.3984L95.5878 38.6506V40.423ZM97.1642 41.4925L96.4004 40.4047H96.8587L97.6285 41.4925H97.1642Z" fill="#3D43B7"/>
<path d="M180.704 202.592C180.471 202.592 180.258 202.555 180.068 202.475C179.873 202.402 179.708 202.292 179.561 202.151C179.414 202.011 179.304 201.852 179.225 201.669C179.146 201.485 179.103 201.278 179.103 201.057C179.103 200.837 179.146 200.63 179.225 200.446C179.304 200.263 179.414 200.098 179.561 199.963C179.708 199.829 179.873 199.719 180.068 199.64C180.264 199.566 180.477 199.523 180.71 199.523C180.942 199.523 181.162 199.56 181.357 199.64C181.553 199.719 181.724 199.829 181.858 199.988L181.596 200.251C181.473 200.128 181.339 200.043 181.192 199.988C181.046 199.933 180.893 199.902 180.722 199.902C180.551 199.902 180.392 199.933 180.245 199.988C180.099 200.043 179.97 200.122 179.867 200.226C179.763 200.33 179.677 200.452 179.616 200.593C179.555 200.734 179.53 200.886 179.53 201.051C179.53 201.216 179.561 201.363 179.616 201.51C179.671 201.65 179.757 201.773 179.867 201.876C179.976 201.98 180.099 202.06 180.245 202.121C180.392 202.176 180.551 202.206 180.722 202.206C180.881 202.206 181.033 202.182 181.18 202.133C181.327 202.084 181.461 201.999 181.589 201.883L181.834 202.206C181.687 202.335 181.51 202.427 181.315 202.488C181.119 202.555 180.911 202.585 180.704 202.585V202.592ZM181.84 202.206L181.431 202.151V201.039H181.84V202.206Z" fill="#3D43B7"/>
<path d="M184.864 202.592C184.638 202.592 184.425 202.555 184.229 202.475C184.033 202.396 183.862 202.292 183.722 202.151C183.581 202.011 183.465 201.852 183.386 201.669C183.306 201.485 183.264 201.284 183.264 201.064C183.264 200.844 183.306 200.642 183.386 200.459C183.465 200.275 183.575 200.11 183.722 199.976C183.869 199.841 184.033 199.731 184.229 199.652C184.425 199.572 184.638 199.536 184.864 199.536C185.091 199.536 185.304 199.572 185.494 199.652C185.683 199.725 185.854 199.835 186.001 199.976C186.147 200.116 186.257 200.275 186.337 200.459C186.416 200.642 186.453 200.85 186.453 201.07C186.453 201.29 186.416 201.497 186.337 201.681C186.257 201.864 186.147 202.029 186.001 202.164C185.854 202.304 185.689 202.408 185.494 202.488C185.298 202.561 185.091 202.604 184.864 202.604V202.592ZM184.864 202.206C185.029 202.206 185.182 202.176 185.323 202.121C185.463 202.066 185.585 201.986 185.689 201.876C185.793 201.773 185.873 201.65 185.934 201.51C185.995 201.369 186.019 201.216 186.019 201.051C186.019 200.886 185.989 200.734 185.934 200.593C185.873 200.452 185.793 200.33 185.689 200.226C185.585 200.122 185.463 200.043 185.323 199.982C185.182 199.927 185.029 199.896 184.864 199.896C184.699 199.896 184.541 199.927 184.4 199.982C184.26 200.037 184.137 200.116 184.027 200.226C183.924 200.33 183.838 200.452 183.783 200.593C183.722 200.734 183.697 200.886 183.697 201.051C183.697 201.216 183.728 201.369 183.783 201.51C183.838 201.65 183.924 201.773 184.027 201.876C184.131 201.98 184.253 202.06 184.4 202.121C184.541 202.176 184.693 202.206 184.864 202.206Z" fill="#3D43B7"/>
<path d="M187.461 202.555L188.817 199.56H189.239L190.601 202.555H190.155L188.946 199.798H189.117L187.907 202.555H187.467H187.461ZM188.041 201.809L188.157 201.467H189.844L189.966 201.809H188.041Z" fill="#3D43B7"/>
<path d="M191.903 202.555V199.56H192.331V202.182H193.95V202.555H191.903Z" fill="#3D43B7"/>
<path d="M196.143 202.592C195.917 202.592 195.697 202.555 195.489 202.488C195.282 202.42 195.117 202.329 195 202.219L195.159 201.883C195.275 201.98 195.416 202.066 195.593 202.133C195.77 202.2 195.954 202.231 196.143 202.231C196.314 202.231 196.461 202.213 196.565 202.17C196.675 202.127 196.754 202.072 196.803 202.005C196.852 201.938 196.882 201.858 196.882 201.766C196.882 201.663 196.852 201.583 196.778 201.516C196.711 201.455 196.626 201.4 196.516 201.363C196.412 201.326 196.29 201.29 196.161 201.265C196.033 201.235 195.905 201.204 195.776 201.161C195.648 201.125 195.526 201.076 195.422 201.015C195.318 200.954 195.227 200.874 195.165 200.77C195.098 200.666 195.068 200.538 195.068 200.379C195.068 200.22 195.11 200.086 195.19 199.951C195.269 199.823 195.398 199.719 195.569 199.64C195.74 199.56 195.954 199.523 196.216 199.523C196.387 199.523 196.565 199.548 196.736 199.591C196.907 199.633 197.053 199.701 197.182 199.786L197.041 200.129C196.913 200.043 196.778 199.982 196.632 199.945C196.491 199.908 196.351 199.89 196.216 199.89C196.045 199.89 195.911 199.908 195.801 199.951C195.691 199.994 195.611 200.049 195.563 200.122C195.514 200.196 195.489 200.275 195.489 200.361C195.489 200.465 195.52 200.55 195.587 200.611C195.654 200.672 195.74 200.721 195.85 200.764C195.954 200.801 196.076 200.837 196.204 200.862C196.332 200.892 196.461 200.923 196.589 200.966C196.717 201.002 196.84 201.051 196.943 201.112C197.047 201.174 197.139 201.253 197.2 201.351C197.261 201.449 197.298 201.577 197.298 201.736C197.298 201.895 197.255 202.029 197.176 202.158C197.096 202.286 196.968 202.39 196.791 202.469C196.62 202.549 196.4 202.585 196.137 202.585L196.143 202.592Z" fill="#3D43B7"/>
<path d="M101.123 219.026V216.031H102.29C102.675 216.031 102.981 216.123 103.207 216.306C103.427 216.49 103.543 216.746 103.543 217.076C103.543 217.29 103.494 217.48 103.39 217.633C103.292 217.785 103.146 217.908 102.962 217.987C102.779 218.073 102.553 218.109 102.29 218.109H101.355L101.545 217.914V219.02H101.117L101.123 219.026ZM101.551 217.963L101.362 217.755H102.278C102.553 217.755 102.761 217.694 102.901 217.578C103.042 217.461 103.115 217.296 103.115 217.076C103.115 216.856 103.042 216.697 102.901 216.581C102.761 216.465 102.553 216.404 102.278 216.404H101.362L101.551 216.19V217.963ZM103.127 219.026L102.364 217.938H102.822L103.592 219.026H103.127Z" fill="#3D43B7"/>
<path d="M105.089 219.026V216.031H107.203V216.404H105.516V218.653H107.264V219.026H105.089ZM105.48 217.687V217.327H107.019V217.687H105.48Z" fill="#3D43B7"/>
<path d="M109.683 219.063C109.457 219.063 109.237 219.026 109.029 218.959C108.822 218.891 108.657 218.8 108.541 218.69L108.699 218.354C108.815 218.451 108.956 218.537 109.133 218.604C109.31 218.671 109.494 218.702 109.683 218.702C109.854 218.702 110.001 218.684 110.105 218.641C110.215 218.604 110.294 218.549 110.343 218.476C110.392 218.409 110.422 218.329 110.422 218.237C110.422 218.134 110.392 218.054 110.325 217.987C110.257 217.92 110.172 217.871 110.062 217.834C109.952 217.797 109.836 217.761 109.708 217.736C109.579 217.712 109.451 217.675 109.323 217.639C109.194 217.602 109.072 217.553 108.968 217.492C108.858 217.431 108.773 217.351 108.712 217.247C108.644 217.143 108.614 217.015 108.614 216.856C108.614 216.697 108.657 216.563 108.736 216.428C108.815 216.3 108.944 216.196 109.115 216.117C109.286 216.037 109.5 216.001 109.762 216.001C109.934 216.001 110.111 216.025 110.282 216.068C110.453 216.117 110.6 216.178 110.728 216.263L110.587 216.606C110.459 216.52 110.325 216.459 110.178 216.422C110.037 216.386 109.897 216.367 109.762 216.367C109.591 216.367 109.457 216.392 109.347 216.435C109.237 216.477 109.158 216.532 109.109 216.606C109.06 216.679 109.035 216.758 109.035 216.844C109.035 216.948 109.072 217.033 109.133 217.095C109.2 217.156 109.286 217.205 109.396 217.247C109.5 217.284 109.622 217.321 109.75 217.345C109.879 217.376 110.007 217.406 110.135 217.443C110.263 217.48 110.386 217.529 110.49 217.59C110.593 217.651 110.685 217.73 110.746 217.828C110.813 217.926 110.844 218.054 110.844 218.213C110.844 218.372 110.801 218.506 110.722 218.635C110.636 218.763 110.514 218.867 110.337 218.946C110.16 219.026 109.946 219.063 109.683 219.063Z" fill="#3D43B7"/>
<path d="M112.323 219.026V216.031H114.437V216.404H112.75V218.653H114.498V219.026H112.323ZM112.714 217.687V217.327H114.253V217.687H112.714Z" fill="#3D43B7"/>
<path d="M116.043 219.026V216.031H117.21C117.595 216.031 117.901 216.123 118.127 216.306C118.347 216.49 118.463 216.746 118.463 217.076C118.463 217.29 118.414 217.48 118.31 217.632C118.212 217.785 118.066 217.907 117.883 217.987C117.699 218.072 117.473 218.109 117.21 218.109H116.276L116.465 217.914V219.02H116.037L116.043 219.026ZM116.471 217.962L116.282 217.755H117.198C117.473 217.755 117.681 217.694 117.821 217.577C117.962 217.461 118.035 217.296 118.035 217.076C118.035 216.856 117.962 216.697 117.821 216.581C117.681 216.465 117.473 216.404 117.198 216.404H116.282L116.471 216.19V217.962ZM118.041 219.026L117.278 217.938H117.736L118.506 219.026H118.041Z" fill="#3D43B7"/>
<path d="M121.347 219.063C121.121 219.063 120.907 219.026 120.718 218.946C120.528 218.873 120.357 218.763 120.217 218.629C120.076 218.488 119.966 218.329 119.887 218.146C119.807 217.962 119.764 217.755 119.764 217.535C119.764 217.315 119.807 217.107 119.887 216.923C119.966 216.74 120.076 216.575 120.223 216.441C120.363 216.3 120.534 216.196 120.724 216.123C120.913 216.049 121.127 216.007 121.353 216.007C121.579 216.007 121.799 216.043 121.994 216.123C122.19 216.202 122.355 216.318 122.495 216.471L122.214 216.74C122.098 216.618 121.97 216.532 121.83 216.471C121.689 216.41 121.536 216.386 121.371 216.386C121.206 216.386 121.047 216.416 120.901 216.471C120.754 216.526 120.632 216.606 120.528 216.71C120.424 216.813 120.339 216.936 120.284 217.076C120.223 217.217 120.198 217.37 120.198 217.535C120.198 217.7 120.229 217.852 120.284 217.993C120.345 218.134 120.424 218.256 120.528 218.36C120.632 218.464 120.76 218.543 120.901 218.598C121.047 218.653 121.2 218.684 121.371 218.684C121.542 218.684 121.689 218.653 121.83 218.598C121.97 218.543 122.098 218.451 122.214 218.329L122.495 218.598C122.361 218.751 122.19 218.867 121.994 218.946C121.799 219.026 121.585 219.069 121.353 219.069L121.347 219.063Z" fill="#3D43B7"/>
<path d="M123.913 219.026V216.031H124.341V219.026H123.913ZM124.298 217.694V217.321H126.1V217.694H124.298ZM126.057 219.026V216.031H126.485V219.026H126.057Z" fill="#3D43B7"/>
<path d="M205.949 111.307L204.947 108.312H205.387L206.304 111.075H206.084L207.037 108.312H207.428L208.363 111.075H208.149L209.084 108.312H209.493L208.491 111.307H208.039L207.165 108.746H207.281L206.407 111.307H205.949Z" fill="#3D43B7"/>
<path d="M212.194 111.337C211.967 111.337 211.754 111.301 211.558 111.221C211.363 111.142 211.192 111.038 211.051 110.897C210.91 110.757 210.794 110.598 210.715 110.414C210.636 110.231 210.593 110.029 210.593 109.809C210.593 109.589 210.636 109.388 210.715 109.204C210.794 109.021 210.904 108.856 211.051 108.722C211.192 108.581 211.363 108.477 211.558 108.398C211.754 108.318 211.967 108.281 212.194 108.281C212.42 108.281 212.633 108.318 212.823 108.398C213.018 108.471 213.183 108.581 213.33 108.715C213.477 108.856 213.587 109.015 213.666 109.198C213.745 109.382 213.782 109.589 213.782 109.809C213.782 110.029 213.745 110.237 213.666 110.421C213.587 110.604 213.477 110.769 213.33 110.903C213.183 111.044 213.018 111.148 212.823 111.221C212.633 111.295 212.42 111.337 212.194 111.337ZM212.194 110.958C212.359 110.958 212.511 110.928 212.652 110.873C212.792 110.818 212.915 110.732 213.018 110.628C213.122 110.524 213.202 110.402 213.263 110.262C213.318 110.121 213.348 109.968 213.348 109.803C213.348 109.638 213.318 109.486 213.263 109.345C213.202 109.204 213.122 109.082 213.018 108.978C212.915 108.874 212.792 108.795 212.652 108.734C212.511 108.679 212.359 108.648 212.194 108.648C212.029 108.648 211.87 108.679 211.729 108.734C211.589 108.789 211.466 108.874 211.356 108.978C211.247 109.082 211.167 109.204 211.112 109.345C211.051 109.486 211.027 109.638 211.027 109.803C211.027 109.968 211.057 110.121 211.112 110.262C211.173 110.402 211.253 110.524 211.356 110.628C211.46 110.732 211.589 110.812 211.729 110.873C211.87 110.928 212.022 110.958 212.194 110.958Z" fill="#3D43B7"/>
<path d="M215.291 111.307V108.312H216.458C216.843 108.312 217.149 108.404 217.375 108.587C217.595 108.77 217.711 109.027 217.711 109.357C217.711 109.571 217.662 109.76 217.558 109.913C217.454 110.066 217.314 110.188 217.13 110.268C216.947 110.347 216.721 110.39 216.458 110.39H215.523L215.719 110.194V111.301H215.291V111.307ZM215.719 110.237L215.523 110.029H216.44C216.715 110.029 216.923 109.968 217.063 109.852C217.204 109.736 217.277 109.565 217.277 109.351C217.277 109.137 217.204 108.972 217.063 108.856C216.923 108.74 216.715 108.679 216.44 108.679H215.523L215.719 108.465V110.237ZM217.289 111.307L216.525 110.219H216.984L217.754 111.307H217.289Z" fill="#3D43B7"/>
<path d="M219.25 111.307V108.312H219.678V111.307H219.25ZM219.629 110.579L219.605 110.06L221.303 108.312H221.792L220.478 109.699L220.24 109.962L219.629 110.586V110.579ZM221.376 111.307L220.148 109.877L220.436 109.559L221.877 111.307H221.376Z" fill="#3D43B7"/>
</g>
<defs>
<clipPath id="clip0_1566_1985">
<rect width="286" height="221" fill="white"/>
</clipPath>
</defs>
</svg>
