<svg width="52" height="52" viewBox="0 0 52 52" fill="none" xmlns="http://www.w3.org/2000/svg">
<rect width="52" height="52" rx="26" fill="black" fill-opacity="0.5"/>
<rect x="0.5" y="0.5" width="51" height="51" rx="25.5" stroke="white" stroke-opacity="0.5"/>
<g clip-path="url(#clip0_1510_4293)">
<mask id="mask0_1510_4293" style="mask-type:luminance" maskUnits="userSpaceOnUse" x="10" y="10" width="32" height="32">
<path d="M42 10H10V42H42V10Z" fill="white"/>
</mask>
<g mask="url(#mask0_1510_4293)">
<path d="M26 36.3337C21.04 36.3337 17 32.2937 17 27.3337V20.667C17 15.707 21.04 11.667 26 11.667C30.96 11.667 35 15.707 35 20.667V27.3337C35 32.2937 30.96 36.3337 26 36.3337ZM26 13.667C22.1467 13.667 19 16.8003 19 20.667V27.3337C19 31.2003 22.1467 34.3337 26 34.3337C29.8533 34.3337 33 31.2003 33 27.3337V20.667C33 16.8003 29.8533 13.667 26 13.667Z" fill="white"/>
<path d="M26 40.3337C18.8267 40.3337 13 34.507 13 27.3337V24.667C13 24.1203 13.4533 23.667 14 23.667C14.5467 23.667 15 24.1203 15 24.667V27.3337C15 33.4003 19.9333 38.3337 26 38.3337C32.0667 38.3337 37 33.4003 37 27.3337V24.667C37 24.1203 37.4533 23.667 38 23.667C38.5467 23.667 39 24.1203 39 24.667V27.3337C39 34.507 33.1733 40.3337 26 40.3337Z" fill="white"/>
<path d="M29.4801 20.9732C29.3734 20.9732 29.2534 20.9598 29.1334 20.9198C26.9868 20.1465 24.6268 20.1465 22.4801 20.9198C21.9735 21.1065 21.4001 20.8398 21.2135 20.3198C21.0268 19.7998 21.2935 19.2265 21.8135 19.0398C24.4001 18.1065 27.2401 18.1065 29.8268 19.0398C30.3468 19.2265 30.6134 19.7998 30.4268 20.3198C30.2801 20.7332 29.8934 20.9732 29.4801 20.9732Z" fill="white"/>
<path d="M28.2665 24.974C28.1865 24.974 28.0932 24.9607 27.9998 24.934C26.5732 24.5473 25.0665 24.5473 23.6398 24.934C23.0932 25.0807 22.5599 24.7607 22.4132 24.2273C22.2665 23.694 22.5865 23.1473 23.1199 23.0006C24.8932 22.5206 26.7598 22.5206 28.5332 23.0006C29.0665 23.1473 29.3865 23.694 29.2398 24.2273C29.1065 24.694 28.7065 24.974 28.2665 24.974Z" fill="white"/>
</g>
</g>
<defs>
<clipPath id="clip0_1510_4293">
<rect width="32" height="32" fill="white" transform="translate(10 10)"/>
</clipPath>
</defs>
</svg>
