<svg width="24" height="24" viewBox="0 0 24 24" fill="none" xmlns="http://www.w3.org/2000/svg">
<path fill-rule="evenodd" clip-rule="evenodd" d="M16.7199 16.28C16.5795 16.1394 16.5006 15.9488 16.5006 15.75C16.5006 15.5513 16.5795 15.3607 16.7199 15.22L19.1899 12.75L2.99993 12.75C2.80102 12.75 2.61025 12.671 2.4696 12.5304C2.32895 12.3897 2.24993 12.199 2.24993 12C2.24993 11.8011 2.32895 11.6104 2.4696 11.4697C2.61025 11.3291 2.80102 11.25 2.99993 11.25L19.1899 11.25L16.7199 8.78005C16.6462 8.71139 16.5871 8.62859 16.5461 8.53659C16.5052 8.44459 16.4831 8.34527 16.4813 8.24457C16.4796 8.14387 16.4981 8.04384 16.5358 7.95045C16.5735 7.85706 16.6297 7.77223 16.7009 7.70101C16.7721 7.62979 16.8569 7.57365 16.9503 7.53593C17.0437 7.49821 17.1437 7.47968 17.2445 7.48146C17.3452 7.48323 17.4445 7.50528 17.5365 7.54627C17.6285 7.58726 17.7113 7.64636 17.7799 7.72005L21.5299 11.47C21.6704 11.6107 21.7493 11.8013 21.7493 12C21.7493 12.1988 21.6704 12.3894 21.5299 12.53L17.7799 16.28C17.6393 16.4205 17.4487 16.4994 17.2499 16.4994C17.0512 16.4994 16.8606 16.4205 16.7199 16.28Z" fill="#96989C"/>
</svg>
