<svg width="54" height="53" viewBox="0 0 54 53" fill="none" xmlns="http://www.w3.org/2000/svg">
<mask id="mask0_1512_4718" style="mask-type:luminance" maskUnits="userSpaceOnUse" x="0" y="0" width="54" height="53">
<path d="M54 0H0V53H54V0Z" fill="white"/>
</mask>
<g mask="url(#mask0_1512_4718)">
<path d="M29.2051 6.24803L32.984 13.789C33.5017 14.824 34.8736 15.8536 36.0321 16.0439L42.9235 17.2658C47.3363 18.0387 48.3375 21.1968 45.1673 24.2826L39.7676 29.5088C38.866 30.3848 38.3389 32.1188 38.6282 33.3432L40.1317 39.9098C41.3135 45.094 38.5186 47.07 33.8957 44.3108L27.4379 40.4557C26.2618 39.7512 24.3424 39.7436 23.1764 40.4038L16.6888 44.0843C12.0448 46.7148 9.26135 44.6756 10.4919 39.5255L12.064 33.0085C12.3576 31.7902 11.8696 30.043 10.9721 29.1488L5.61764 23.7933C2.47614 20.639 3.50526 17.5076 7.91689 16.8366L14.8051 15.7938C15.9681 15.6084 17.3506 14.6403 17.868 13.6085L21.7174 6.1474C23.7885 2.11922 27.1654 2.16699 29.2051 6.24803Z" fill="#AFAFAF"/>
</g>
</svg>
